{
	"asset":{
		"generator":"Khronos glTF Blender I/O v5.0.21",
		"version":"2.0"
	},
	"extensionsUsed":[
		"KHR_lights_punctual"
	],
	"extensionsRequired":[
		"KHR_lights_punctual"
	],
	"extensions":{
		"KHR_lights_punctual":{
			"lights":[
				{
					"color":[
						1,
						0.9021446704864502,
						0.9021446704864502
					],
					"intensity":23.8732414637843,
					"spot":{
						"innerConeAngle":1.029143457348603,
						"outerConeAngle":1.2107570171356201
					},
					"type":"spot",
					"name":"Spot.002"
				},
				{
					"color":[
						0.008792527951300144,
						0.00011834494216600433,
						0
					],
					"intensity":23.8732414637843,
					"spot":{
						"innerConeAngle":1.029143457348603,
						"outerConeAngle":1.2107570171356201
					},
					"type":"spot",
					"name":"Spot.001"
				},
				{
					"color":[
						1,
						0.0012895918916910887,
						0
					],
					"intensity":56.285139796020694,
					"spot":{
						"innerConeAngle":1.029143457348603,
						"outerConeAngle":1.2107570171356201
					},
					"type":"spot",
					"name":"Spot.007"
				},
				{
					"color":[
						1,
						0.8723463416099548,
						0.898158073425293
					],
					"intensity":23.8732414637843,
					"spot":{
						"innerConeAngle":1.029143457348603,
						"outerConeAngle":1.2107570171356201
					},
					"type":"spot",
					"name":"Spot.003"
				}
			]
		}
	},
	"scene":0,
	"scenes":[
		{
			"name":"Scene",
			"nodes":[
				0,
				1,
				2,
				3,
				4,
				12,
				13,
				14,
				15,
				16,
				17,
				18,
				19,
				20,
				21,
				22,
				23,
				24,
				25,
				26,
				27,
				28,
				29,
				30,
				31,
				32,
				33,
				34,
				35,
				36,
				37,
				38,
				39,
				40,
				41,
				42,
				43,
				44,
				45,
				46,
				47,
				48,
				49,
				50,
				51,
				52,
				53,
				54
			]
		}
	],
	"nodes":[
		{
			"mesh":0,
			"name":"Sphere.001",
			"scale":[
				0.38919198513031006,
				0.38919198513031006,
				0.38919198513031006
			],
			"translation":[
				-0.11948680877685547,
				3.56071400642395,
				2.007382392883301
			]
		},
		{
			"extensions":{
				"KHR_lights_punctual":{
					"light":0
				}
			},
			"name":"Spot.002",
			"rotation":[
				-0.7071068286895752,
				0,
				0,
				0.7071068286895752
			],
			"scale":[
				1.182554841041565,
				1.1825547218322754,
				1.1825547218322754
			],
			"translation":[
				0.10334157943725586,
				3.7233076095581055,
				1.9821466207504272
			]
		},
		{
			"mesh":1,
			"name":"Cube.001",
			"scale":[
				10.743830680847168,
				2.784177780151367,
				2.784177780151367
			],
			"translation":[
				0,
				1,
				0
			]
		},
		{
			"mesh":2,
			"name":"salt pot.001",
			"rotation":[
				0.000785604992415756,
				0.8952760100364685,
				0.004909497685730457,
				0.44548413157463074
			],
			"scale":[
				0.13514229655265808,
				0.13514229655265808,
				0.13514229655265808
			],
			"translation":[
				10.418137550354004,
				1.8262497186660767,
				1.8947958946228027
			]
		},
		{
			"mesh":3,
			"name":"Cube.009",
			"rotation":[
				0,
				-0.7071067094802856,
				0,
				0.7071068286895752
			],
			"scale":[
				1.3413997888565063,
				0.09979492425918579,
				0.9299329519271851
			],
			"translation":[
				-2.335179567337036,
				1.2937989234924316,
				-2.4962058067321777
			]
		},
		{
			"mesh":4,
			"name":"CTRL_Hole",
			"translation":[
				0,
				0,
				0.1499999314546585
			]
		},
		{
			"mesh":5,
			"name":"Handle",
			"translation":[
				0.034999966621398926,
				0.4749998450279236,
				0.035500332713127136
			]
		},
		{
			"children":[
				6
			],
			"mesh":6,
			"name":"Window.L",
			"translation":[
				-0.5900000333786011,
				0.02500000037252903,
				0.022999968379735947
			]
		},
		{
			"mesh":7,
			"name":"Handle.001",
			"translation":[
				-0.03500005602836609,
				0.47499987483024597,
				0.035500094294548035
			]
		},
		{
			"children":[
				8
			],
			"mesh":8,
			"name":"Window.R",
			"translation":[
				0.5899999141693115,
				0.024999994784593582,
				0.06250008195638657
			]
		},
		{
			"mesh":9,
			"name":"Windows_Sill",
			"translation":[
				0,
				0,
				0.10000010579824448
			]
		},
		{
			"children":[
				7,
				9,
				10
			],
			"mesh":10,
			"name":"WindowFrame"
		},
		{
			"children":[
				5,
				11
			],
			"name":"Window_Group",
			"scale":[
				3.0501492023468018,
				3.0501492023468018,
				3.0501492023468018
			],
			"translation":[
				-0.20493993163108826,
				1.5169367790222168,
				-4.44326639175415
			]
		},
		{
			"mesh":11,
			"name":"Sphere.002",
			"scale":[
				0.38919198513031006,
				0.38919198513031006,
				0.38919198513031006
			],
			"translation":[
				-4.4210205078125,
				3.56071400642395,
				2.007382392883301
			]
		},
		{
			"extensions":{
				"KHR_lights_punctual":{
					"light":1
				}
			},
			"name":"Spot.001",
			"rotation":[
				-0.7071068286895752,
				0,
				0,
				0.7071068286895752
			],
			"scale":[
				1.182554841041565,
				1.1825547218322754,
				1.1825547218322754
			],
			"translation":[
				4.129471778869629,
				3.7233076095581055,
				1.9821466207504272
			]
		},
		{
			"mesh":12,
			"name":"Sause red.020",
			"rotation":[
				0.006111414171755314,
				0.8952008485794067,
				-0.0066544292494654655,
				0.44557130336761475
			],
			"scale":[
				0.04471144080162048,
				0.12580443918704987,
				0.04471144452691078
			],
			"translation":[
				-10.21098518371582,
				1.863857388496399,
				1.972947359085083
			]
		},
		{
			"mesh":13,
			"name":"sause yellow.015",
			"rotation":[
				-0.006057893857359886,
				-0.44572362303733826,
				-0.015560217201709747,
				0.8950148820877075
			],
			"scale":[
				0.04436485469341278,
				0.1248292401432991,
				0.04436485096812248
			],
			"translation":[
				-9.12169075012207,
				1.8626573085784912,
				1.9932751655578613
			]
		},
		{
			"mesh":14,
			"name":"sause yellow.016",
			"rotation":[
				-0.015560191124677658,
				0.8950148224830627,
				0.006057764869183302,
				0.4457237422466278
			],
			"scale":[
				0.04436485469341278,
				0.1248292401432991,
				0.04436485096812248
			],
			"translation":[
				-10.51733112335205,
				1.8626573085784912,
				2.078148365020752
			]
		},
		{
			"mesh":15,
			"name":"Plane.003",
			"rotation":[
				0,
				0,
				-0.7071068286895752,
				0.7071068286895752
			],
			"scale":[
				0.2120027393102646,
				0.2120027393102646,
				0.2120027393102646
			],
			"translation":[
				-15.38821029663086,
				0.10817107558250427,
				3.849470853805542
			]
		},
		{
			"mesh":16,
			"name":"Cube.016",
			"rotation":[
				0,
				-0.7071067094802856,
				0,
				0.7071068286895752
			],
			"scale":[
				1.3413997888565063,
				0.09979492425918579,
				0.9299329519271851
			],
			"translation":[
				3.8233754634857178,
				1.2937989234924316,
				-2.4962058067321777
			]
		},
		{
			"mesh":17,
			"name":"Sause red.012",
			"rotation":[
				0.006111414171755314,
				0.8952008485794067,
				-0.0066544292494654655,
				0.44557130336761475
			],
			"scale":[
				0.04471144080162048,
				0.12580443918704987,
				0.04471144452691078
			],
			"translation":[
				-2.5329015254974365,
				1.863857388496399,
				1.972947359085083
			]
		},
		{
			"mesh":18,
			"name":"salt pot.020",
			"rotation":[
				-0.0049096220172941685,
				-0.4454839527606964,
				0.0007855235016904771,
				0.8952761292457581
			],
			"scale":[
				0.13514229655265808,
				0.1351422816514969,
				0.13514229655265808
			],
			"translation":[
				-8.770698547363281,
				1.8262497186660767,
				2.0111448764801025
			]
		},
		{
			"mesh":19,
			"name":"Sause red.001",
			"rotation":[
				0.006111414171755314,
				0.8952008485794067,
				-0.0066544292494654655,
				0.44557130336761475
			],
			"scale":[
				0.04471144080162048,
				0.12580443918704987,
				0.04471144452691078
			],
			"translation":[
				9.776849746704102,
				1.863857388496399,
				1.9729468822479248
			]
		},
		{
			"mesh":20,
			"name":"Sause red.003",
			"rotation":[
				0.006654246244579554,
				-0.4455711841583252,
				0.006111364345997572,
				0.8952009081840515
			],
			"scale":[
				0.04471144452691078,
				0.12580443918704987,
				0.04471144080162048
			],
			"translation":[
				7.969573497772217,
				1.863857388496399,
				1.9329936504364014
			]
		},
		{
			"mesh":21,
			"name":"Sause red.022",
			"rotation":[
				0.006654246244579554,
				-0.4455711841583252,
				0.006111364345997572,
				0.8952009081840515
			],
			"scale":[
				0.04471144452691078,
				0.12580443918704987,
				0.04471144080162048
			],
			"translation":[
				-8.129412651062012,
				1.863857388496399,
				1.9329936504364014
			]
		},
		{
			"mesh":22,
			"name":"Plane.002",
			"rotation":[
				0.5000000596046448,
				-0.5,
				-0.4999999403953552,
				0.5
			],
			"scale":[
				0.2120027393102646,
				0.2120027393102646,
				0.2120027393102646
			],
			"translation":[
				-15.15063190460205,
				0.10817107558250427,
				-3.974076271057129
			]
		},
		{
			"mesh":23,
			"name":"salt pot.003",
			"rotation":[
				-0.0049096220172941685,
				-0.4454839527606964,
				0.0007855235016904771,
				0.8952761292457581
			],
			"scale":[
				0.13514229655265808,
				0.1351422816514969,
				0.13514229655265808
			],
			"translation":[
				7.328287124633789,
				1.8262497186660767,
				2.0111448764801025
			]
		},
		{
			"mesh":24,
			"name":"Cube.003",
			"scale":[
				10.743830680847168,
				2.784177780151367,
				2.784177780151367
			],
			"translation":[
				0,
				1,
				0
			]
		},
		{
			"mesh":25,
			"name":"sause yellow.017",
			"rotation":[
				-0.015560191124677658,
				0.8950148224830627,
				0.006057764869183302,
				0.4457237422466278
			],
			"scale":[
				0.04436485469341278,
				0.1248292401432991,
				0.04436485096812248
			],
			"translation":[
				-6.467742443084717,
				1.8626573085784912,
				1.919390320777893
			]
		},
		{
			"mesh":26,
			"name":"salt pot.018",
			"rotation":[
				0.000785604992415756,
				0.8952760100364685,
				0.004909497685730457,
				0.44548413157463074
			],
			"scale":[
				0.13514229655265808,
				0.13514229655265808,
				0.13514229655265808
			],
			"translation":[
				-9.569700241088867,
				1.8262497186660767,
				1.8947961330413818
			]
		},
		{
			"mesh":27,
			"name":"Sause red.024",
			"rotation":[
				0.006111414171755314,
				0.8952008485794067,
				-0.0066544292494654655,
				0.44557130336761475
			],
			"scale":[
				0.04471144080162048,
				0.12580443918704987,
				0.04471144452691078
			],
			"translation":[
				-6.322136402130127,
				1.863857388496399,
				1.9729468822479248
			]
		},
		{
			"extensions":{
				"KHR_lights_punctual":{
					"light":2
				}
			},
			"name":"Spot.004",
			"rotation":[
				-0.7071068286895752,
				0,
				0,
				0.7071068286895752
			],
			"scale":[
				1.182554841041565,
				1.1825547218322754,
				1.1825547218322754
			],
			"translation":[
				-8.81910514831543,
				3.7233076095581055,
				1.9821466207504272
			]
		},
		{
			"mesh":28,
			"name":"Cube.010",
			"rotation":[
				0,
				-0.7071067094802856,
				0,
				0.7071068286895752
			],
			"scale":[
				1.3413997888565063,
				0.09979492425918579,
				0.9299329519271851
			],
			"translation":[
				-8.493734359741211,
				1.2937989234924316,
				-2.4962058067321777
			]
		},
		{
			"mesh":29,
			"name":"sause yellow.010",
			"rotation":[
				-0.015560191124677658,
				0.8950148224830627,
				0.006057764869183302,
				0.4457237422466278
			],
			"scale":[
				0.04436485469341278,
				0.1248292401432991,
				0.04436485096812248
			],
			"translation":[
				-2.3746018409729004,
				1.8626573085784912,
				2.078148365020752
			]
		},
		{
			"mesh":30,
			"name":"Circle",
			"translation":[
				3.365833044052124,
				0,
				-0.5426425933837891
			]
		},
		{
			"mesh":31,
			"name":"salt pot",
			"rotation":[
				0.000785604992415756,
				0.8952760100364685,
				0.004909497685730457,
				0.44548413157463074
			],
			"scale":[
				0.13514229655265808,
				0.13514229655265808,
				0.13514229655265808
			],
			"translation":[
				9.370923042297363,
				1.8262497186660767,
				2.216820478439331
			]
		},
		{
			"mesh":32,
			"name":"salt pot.019",
			"rotation":[
				0.000785604992415756,
				0.8952760100364685,
				0.004909497685730457,
				0.44548413157463074
			],
			"scale":[
				0.13514229655265808,
				0.13514229655265808,
				0.13514229655265808
			],
			"translation":[
				-10.616912841796875,
				1.8262497186660767,
				2.216820478439331
			]
		},
		{
			"mesh":33,
			"name":"Sause red.021",
			"rotation":[
				0.006654246244579554,
				-0.4455711841583252,
				0.006111364345997572,
				0.8952009081840515
			],
			"scale":[
				0.04471144452691078,
				0.12580443918704987,
				0.04471144080162048
			],
			"translation":[
				-8.88883113861084,
				1.863857388496399,
				2.1786603927612305
			]
		},
		{
			"mesh":34,
			"name":"sause yellow.002",
			"rotation":[
				-0.015560191124677658,
				0.8950148224830627,
				0.006057764869183302,
				0.4457237422466278
			],
			"scale":[
				0.04436485469341278,
				0.1248292401432991,
				0.04436485096812248
			],
			"translation":[
				9.108230590820312,
				1.8626573085784912,
				1.8278295993804932
			]
		},
		{
			"mesh":35,
			"name":"Sphere.003",
			"scale":[
				0.38919198513031006,
				0.38919198513031006,
				0.38919198513031006
			],
			"translation":[
				-8.722554206848145,
				3.56071400642395,
				2.007382392883301
			]
		},
		{
			"mesh":36,
			"name":"Cube.008",
			"rotation":[
				0,
				-1,
				0,
				1.9470718370939721e-07
			],
			"scale":[
				0.7696034908294678,
				0.7696034908294678,
				0.7696034908294678
			],
			"translation":[
				-4.4607319831848145,
				0,
				-2.533353328704834
			]
		},
		{
			"mesh":37,
			"name":"Sause red.004",
			"rotation":[
				0.006654246244579554,
				-0.4455711841583252,
				0.006111364345997572,
				0.8952009081840515
			],
			"scale":[
				0.04471144452691078,
				0.12580443918704987,
				0.04471144080162048
			],
			"translation":[
				7.210155010223389,
				1.863857388496399,
				2.1786603927612305
			]
		},
		{
			"mesh":38,
			"name":"Cube.006",
			"scale":[
				0.7696034908294678,
				0.7696034908294678,
				0.7696034908294678
			],
			"translation":[
				1.69782292842865,
				0,
				-2.533353328704834
			]
		},
		{
			"mesh":39,
			"name":"sause yellow.001",
			"rotation":[
				-0.015560191124677658,
				0.8950148224830627,
				0.006057764869183302,
				0.4457237422466278
			],
			"scale":[
				0.04436485469341278,
				0.1248292401432991,
				0.04436485096812248
			],
			"translation":[
				9.470503807067871,
				1.8626573085784912,
				2.0781478881835938
			]
		},
		{
			"mesh":40,
			"name":"salt pot.022",
			"rotation":[
				0.000785604992415756,
				0.8952760100364685,
				0.004909497685730457,
				0.44548413157463074
			],
			"scale":[
				0.13514229655265808,
				0.13514229655265808,
				0.13514229655265808
			],
			"translation":[
				-6.199563503265381,
				1.8262497186660767,
				1.8947958946228027
			]
		},
		{
			"mesh":41,
			"name":"Plane",
			"rotation":[
				0.7071068286895752,
				0,
				0,
				0.7071068286895752
			],
			"scale":[
				10.923701286315918,
				1.1830896139144897,
				1.1830896139144897
			],
			"translation":[
				0,
				1.0695538520812988,
				1.6012015342712402
			]
		},
		{
			"mesh":42,
			"name":"salt pot.002",
			"rotation":[
				-0.0049096220172941685,
				-0.4454839527606964,
				0.0007855235016904771,
				0.8952761292457581
			],
			"scale":[
				0.13514229655265808,
				0.1351422816514969,
				0.13514229655265808
			],
			"translation":[
				8.375500679016113,
				1.8262497186660767,
				1.6891205310821533
			]
		},
		{
			"mesh":43,
			"name":"salt pot.011",
			"rotation":[
				0.000785604992415756,
				0.8952760100364685,
				0.004909497685730457,
				0.44548413157463074
			],
			"scale":[
				0.13514229655265808,
				0.13514229655265808,
				0.13514229655265808
			],
			"translation":[
				-2.47418212890625,
				1.8262497186660767,
				2.216820478439331
			]
		},
		{
			"mesh":44,
			"name":"Sphere",
			"scale":[
				0.38919198513031006,
				0.38919198513031006,
				0.38919198513031006
			],
			"translation":[
				4.182046890258789,
				3.56071400642395,
				2.007382392883301
			]
		},
		{
			"mesh":45,
			"name":"button",
			"rotation":[
				0.4139859974384308,
				0.5732500553131104,
				0.41398608684539795,
				0.5732499361038208
			],
			"translation":[
				0.0743604227900505,
				0.024132609367370605,
				0.07030820846557617
			]
		},
		{
			"mesh":46,
			"name":"Sause red.019",
			"rotation":[
				0.006111414171755314,
				0.8952008485794067,
				-0.0066544292494654655,
				0.44557130336761475
			],
			"scale":[
				0.04471144080162048,
				0.12580443918704987,
				0.04471144452691078
			],
			"translation":[
				-9.451566696166992,
				1.863857388496399,
				1.7272803783416748
			]
		},
		{
			"name":"Coffee machine",
			"rotation":[
				0,
				-1,
				0,
				7.549790126404332e-08
			],
			"translation":[
				-0.08593147993087769,
				1.7679352760314941,
				3.51826810836792
			]
		},
		{
			"extensions":{
				"KHR_lights_punctual":{
					"light":3
				}
			},
			"name":"Spot.003",
			"rotation":[
				-0.7071068286895752,
				0,
				0,
				0.7071068286895752
			],
			"scale":[
				1.182554841041565,
				1.1825547218322754,
				1.1825547218322754
			],
			"translation":[
				-4.400369167327881,
				3.7233076095581055,
				1.9821466207504272
			]
		},
		{
			"mesh":47,
			"name":"Sause red.002",
			"rotation":[
				0.006111414171755314,
				0.8952008485794067,
				-0.0066544292494654655,
				0.44557130336761475
			],
			"scale":[
				0.04471144080162048,
				0.12580443918704987,
				0.04471144452691078
			],
			"translation":[
				10.53626823425293,
				1.863857388496399,
				1.7272801399230957
			]
		},
		{
			"mesh":48,
			"name":"Plane.001",
			"rotation":[
				-0.5000000596046448,
				0.5,
				-0.4999999403953552,
				0.5
			],
			"scale":[
				0.2120027393102646,
				0.2120027393102646,
				0.2120027393102646
			],
			"translation":[
				4.553117275238037,
				0.10817107558250427,
				4.064197540283203
			]
		}
	],
	"materials":[
		{
			"doubleSided":true,
			"name":"Material.014",
			"pbrMetallicRoughness":{
				"baseColorFactor":[
					0.8723463416099548,
					0.9725027084350586,
					1,
					1
				],
				"metallicFactor":0,
				"roughnessFactor":0.5
			}
		},
		{
			"doubleSided":true,
			"name":"Material.017",
			"pbrMetallicRoughness":{
				"baseColorFactor":[
					0.017182182520627975,
					0.017182182520627975,
					0.017182182520627975,
					1
				],
				"metallicFactor":0,
				"roughnessFactor":0.5
			}
		},
		{
			"doubleSided":true,
			"name":"Material.019",
			"pbrMetallicRoughness":{
				"metallicFactor":0,
				"roughnessFactor":0.5
			}
		},
		{
			"doubleSided":true,
			"name":"Material.001",
			"pbrMetallicRoughness":{
				"baseColorFactor":[
					0.8000000715255737,
					0.5932779908180237,
					0.6589500308036804,
					1
				],
				"metallicFactor":0.02545454539358616,
				"roughnessFactor":0.0490909218788147
			}
		},
		{
			"doubleSided":true,
			"name":"Material.002",
			"pbrMetallicRoughness":{
				"baseColorFactor":[
					0.8000000715255737,
					0.3007202744483948,
					0.0783751904964447,
					1
				],
				"metallicFactor":0,
				"roughnessFactor":0.5
			}
		},
		{
			"doubleSided":true,
			"name":"Material.003",
			"pbrMetallicRoughness":{
				"baseColorFactor":[
					0,
					0,
					0,
					1
				],
				"metallicFactor":0,
				"roughnessFactor":0.5
			}
		},
		{
			"doubleSided":true,
			"name":"Material.009",
			"pbrMetallicRoughness":{
				"metallicFactor":0
			}
		},
		{
			"doubleSided":true,
			"name":"hidden_material",
			"pbrMetallicRoughness":{
				"metallicFactor":0,
				"roughnessFactor":0.4000000059604645
			}
		},
		{
			"doubleSided":true,
			"name":"Plastic_Handle_material",
			"pbrMetallicRoughness":{
				"baseColorFactor":[
					0.0820000022649765,
					0.07900000363588333,
					0.019999999552965164,
					1
				],
				"metallicFactor":0,
				"roughnessFactor":0.4000000059604645
			}
		},
		{
			"doubleSided":true,
			"name":"Window_material",
			"pbrMetallicRoughness":{
				"metallicFactor":0
			}
		},
		{
			"doubleSided":true,
			"name":"Glass_material",
			"pbrMetallicRoughness":{
				"baseColorFactor":[
					0.3330000042915344,
					0.34200000762939453,
					0.8999999761581421,
					1
				],
				"metallicFactor":0,
				"roughnessFactor":0.4000000059604645
			}
		},
		{
			"doubleSided":true,
			"name":"Sill_material",
			"pbrMetallicRoughness":{
				"baseColorFactor":[
					0.800000011920929,
					0.800000011920929,
					0.800000011920929,
					1
				],
				"metallicFactor":0,
				"roughnessFactor":0.4000000059604645
			}
		},
		{
			"doubleSided":true,
			"name":"Material.004",
			"pbrMetallicRoughness":{
				"baseColorFactor":[
					0.8000000715255737,
					0.0010745783802121878,
					0,
					1
				],
				"metallicFactor":0,
				"roughnessFactor":0.5
			}
		},
		{
			"doubleSided":true,
			"name":"Material.005",
			"pbrMetallicRoughness":{
				"baseColorFactor":[
					0.8000000715255737,
					0.39242127537727356,
					0,
					1
				],
				"metallicFactor":0,
				"roughnessFactor":0.5
			}
		},
		{
			"doubleSided":true,
			"name":"Material.013",
			"pbrMetallicRoughness":{
				"metallicFactor":0
			}
		},
		{
			"doubleSided":true,
			"name":"Material.018",
			"pbrMetallicRoughness":{
				"baseColorFactor":[
					0.8000000715255737,
					0.04952927306294441,
					0.060505662113428116,
					1
				],
				"metallicFactor":0,
				"roughnessFactor":0.5
			}
		},
		{
			"doubleSided":true,
			"name":"Material.010",
			"pbrMetallicRoughness":{
				"baseColorFactor":[
					0.800000011920929,
					0.800000011920929,
					0.800000011920929,
					1
				],
				"metallicFactor":0.9527272582054138,
				"roughnessFactor":0.2200000137090683
			}
		},
		{
			"doubleSided":true,
			"name":"Material.011",
			"pbrMetallicRoughness":{
				"baseColorFactor":[
					0.8000000715255737,
					0.08703482896089554,
					0.16504953801631927,
					1
				],
				"metallicFactor":0,
				"roughnessFactor":0.5
			}
		},
		{
			"doubleSided":true,
			"emissiveFactor":[
				0.4541783034801483,
				0.12538455426692963,
				0.1091490387916565
			],
			"name":"sdfghjk",
			"pbrMetallicRoughness":{
				"metallicFactor":0
			}
		},
		{
			"doubleSided":true,
			"name":"Material.015",
			"pbrMetallicRoughness":{
				"metallicFactor":0
			}
		},
		{
			"doubleSided":true,
			"name":"Material.016",
			"pbrMetallicRoughness":{
				"metallicFactor":0,
				"roughnessFactor":0.5
			}
		},
		{
			"doubleSided":true,
			"name":"plastic",
			"pbrMetallicRoughness":{
				"baseColorFactor":[
					0.800000011920929,
					0.800000011920929,
					0.800000011920929,
					1
				],
				"metallicFactor":0,
				"roughnessFactor":0.5
			}
		}
	],
	"meshes":[
		{
			"name":"Sphere.005",
			"primitives":[
				{
					"attributes":{
						"POSITION":0,
						"NORMAL":1,
						"TEXCOORD_0":2,
						"TANGENT":3
					},
					"indices":4,
					"material":0
				},
				{
					"attributes":{
						"POSITION":5,
						"NORMAL":6,
						"TEXCOORD_0":7,
						"TANGENT":8
					},
					"indices":9,
					"material":1
				}
			]
		},
		{
			"name":"Cube.004",
			"primitives":[
				{
					"attributes":{
						"POSITION":10,
						"NORMAL":11,
						"TEXCOORD_0":12,
						"TANGENT":13
					},
					"indices":14,
					"material":2
				}
			]
		},
		{
			"name":"Cylinder.003",
			"primitives":[
				{
					"attributes":{
						"POSITION":15,
						"NORMAL":16,
						"TEXCOORD_0":17
					},
					"indices":18,
					"material":3
				},
				{
					"attributes":{
						"POSITION":19,
						"NORMAL":20,
						"TEXCOORD_0":21
					},
					"indices":22,
					"material":4
				},
				{
					"attributes":{
						"POSITION":23,
						"NORMAL":24,
						"TEXCOORD_0":25
					},
					"indices":26,
					"material":5
				}
			]
		},
		{
			"name":"Cube.022",
			"primitives":[
				{
					"attributes":{
						"POSITION":27,
						"NORMAL":28,
						"TEXCOORD_0":29
					},
					"indices":30,
					"material":6
				}
			]
		},
		{
			"name":"CTRL_Hole",
			"primitives":[
				{
					"attributes":{
						"POSITION":31,
						"NORMAL":32
					},
					"indices":33,
					"material":7
				}
			]
		},
		{
			"name":"Handle",
			"primitives":[
				{
					"attributes":{
						"POSITION":34,
						"NORMAL":35
					},
					"indices":36,
					"material":8
				}
			]
		},
		{
			"name":"Window.L",
			"primitives":[
				{
					"attributes":{
						"POSITION":37,
						"NORMAL":38
					},
					"indices":39,
					"material":9
				},
				{
					"attributes":{
						"POSITION":40,
						"NORMAL":41
					},
					"indices":42,
					"material":10
				}
			]
		},
		{
			"name":"Handle.001",
			"primitives":[
				{
					"attributes":{
						"POSITION":43,
						"NORMAL":44
					},
					"indices":36,
					"material":8
				}
			]
		},
		{
			"name":"Window.R",
			"primitives":[
				{
					"attributes":{
						"POSITION":45,
						"NORMAL":46
					},
					"indices":47,
					"material":9
				},
				{
					"attributes":{
						"POSITION":48,
						"NORMAL":49
					},
					"indices":42,
					"material":10
				}
			]
		},
		{
			"name":"Windows_Sill",
			"primitives":[
				{
					"attributes":{
						"POSITION":50,
						"NORMAL":51
					},
					"indices":52,
					"material":11
				}
			]
		},
		{
			"name":"WindowFrane",
			"primitives":[
				{
					"attributes":{
						"POSITION":53,
						"NORMAL":54
					},
					"indices":55,
					"material":9
				}
			]
		},
		{
			"name":"Sphere.002",
			"primitives":[
				{
					"attributes":{
						"POSITION":56,
						"NORMAL":57,
						"TEXCOORD_0":58,
						"TANGENT":59
					},
					"indices":60,
					"material":0
				},
				{
					"attributes":{
						"POSITION":61,
						"NORMAL":62,
						"TEXCOORD_0":63,
						"TANGENT":64
					},
					"indices":65,
					"material":1
				}
			]
		},
		{
			"name":"Cylinder.056",
			"primitives":[
				{
					"attributes":{
						"POSITION":66,
						"NORMAL":67,
						"TEXCOORD_0":68
					},
					"indices":69,
					"material":12
				}
			]
		},
		{
			"name":"Cylinder.049",
			"primitives":[
				{
					"attributes":{
						"POSITION":70,
						"NORMAL":71,
						"TEXCOORD_0":72
					},
					"indices":69,
					"material":13
				}
			]
		},
		{
			"name":"Cylinder.050",
			"primitives":[
				{
					"attributes":{
						"POSITION":73,
						"NORMAL":74,
						"TEXCOORD_0":75
					},
					"indices":69,
					"material":13
				}
			]
		},
		{
			"name":"Plane.003",
			"primitives":[
				{
					"attributes":{
						"POSITION":76,
						"NORMAL":77,
						"TEXCOORD_0":78
					},
					"indices":79,
					"material":14
				}
			]
		},
		{
			"name":"Cube.016",
			"primitives":[
				{
					"attributes":{
						"POSITION":80,
						"NORMAL":81,
						"TEXCOORD_0":82
					},
					"indices":30,
					"material":6
				}
			]
		},
		{
			"name":"Cylinder.034",
			"primitives":[
				{
					"attributes":{
						"POSITION":83,
						"NORMAL":84,
						"TEXCOORD_0":85
					},
					"indices":69,
					"material":12
				}
			]
		},
		{
			"name":"Cylinder.065",
			"primitives":[
				{
					"attributes":{
						"POSITION":86,
						"NORMAL":87,
						"TEXCOORD_0":88
					},
					"indices":18,
					"material":3
				},
				{
					"attributes":{
						"POSITION":89,
						"NORMAL":90,
						"TEXCOORD_0":91
					},
					"indices":22,
					"material":4
				},
				{
					"attributes":{
						"POSITION":92,
						"NORMAL":93,
						"TEXCOORD_0":94
					},
					"indices":26,
					"material":5
				}
			]
		},
		{
			"name":"Cylinder.006",
			"primitives":[
				{
					"attributes":{
						"POSITION":95,
						"NORMAL":96,
						"TEXCOORD_0":97
					},
					"indices":69,
					"material":12
				}
			]
		},
		{
			"name":"Cylinder.007",
			"primitives":[
				{
					"attributes":{
						"POSITION":98,
						"NORMAL":99,
						"TEXCOORD_0":100
					},
					"indices":69,
					"material":12
				}
			]
		},
		{
			"name":"Cylinder.058",
			"primitives":[
				{
					"attributes":{
						"POSITION":101,
						"NORMAL":102,
						"TEXCOORD_0":103
					},
					"indices":69,
					"material":12
				}
			]
		},
		{
			"name":"Plane.002",
			"primitives":[
				{
					"attributes":{
						"POSITION":104,
						"NORMAL":105,
						"TEXCOORD_0":106
					},
					"indices":107,
					"material":14
				}
			]
		},
		{
			"name":"Cylinder.011",
			"primitives":[
				{
					"attributes":{
						"POSITION":108,
						"NORMAL":109,
						"TEXCOORD_0":110
					},
					"indices":18,
					"material":3
				},
				{
					"attributes":{
						"POSITION":111,
						"NORMAL":112,
						"TEXCOORD_0":113
					},
					"indices":22,
					"material":4
				},
				{
					"attributes":{
						"POSITION":114,
						"NORMAL":115,
						"TEXCOORD_0":116
					},
					"indices":26,
					"material":5
				}
			]
		},
		{
			"name":"Cube.001",
			"primitives":[
				{
					"attributes":{
						"POSITION":117,
						"NORMAL":118,
						"TEXCOORD_0":119
					},
					"indices":120,
					"material":15
				}
			]
		},
		{
			"name":"Cylinder.051",
			"primitives":[
				{
					"attributes":{
						"POSITION":121,
						"NORMAL":122,
						"TEXCOORD_0":123
					},
					"indices":69,
					"material":13
				}
			]
		},
		{
			"name":"Cylinder.063",
			"primitives":[
				{
					"attributes":{
						"POSITION":124,
						"NORMAL":125,
						"TEXCOORD_0":126
					},
					"indices":18,
					"material":3
				},
				{
					"attributes":{
						"POSITION":127,
						"NORMAL":128,
						"TEXCOORD_0":129
					},
					"indices":22,
					"material":4
				},
				{
					"attributes":{
						"POSITION":130,
						"NORMAL":131,
						"TEXCOORD_0":132
					},
					"indices":26,
					"material":5
				}
			]
		},
		{
			"name":"Cylinder.060",
			"primitives":[
				{
					"attributes":{
						"POSITION":133,
						"NORMAL":134,
						"TEXCOORD_0":135
					},
					"indices":69,
					"material":12
				}
			]
		},
		{
			"name":"Cube.023",
			"primitives":[
				{
					"attributes":{
						"POSITION":136,
						"NORMAL":137,
						"TEXCOORD_0":138
					},
					"indices":30,
					"material":6
				}
			]
		},
		{
			"name":"Cylinder.028",
			"primitives":[
				{
					"attributes":{
						"POSITION":139,
						"NORMAL":140,
						"TEXCOORD_0":141
					},
					"indices":69,
					"material":13
				}
			]
		},
		{
			"name":"Circle.002",
			"primitives":[
				{
					"attributes":{
						"POSITION":142,
						"NORMAL":143,
						"TEXCOORD_0":144
					},
					"indices":145,
					"material":16
				},
				{
					"attributes":{
						"POSITION":146,
						"NORMAL":147,
						"TEXCOORD_0":148
					},
					"indices":149,
					"material":17
				}
			]
		},
		{
			"name":"Cylinder.001",
			"primitives":[
				{
					"attributes":{
						"POSITION":150,
						"NORMAL":151,
						"TEXCOORD_0":152
					},
					"indices":18,
					"material":3
				},
				{
					"attributes":{
						"POSITION":153,
						"NORMAL":154,
						"TEXCOORD_0":155
					},
					"indices":22,
					"material":4
				},
				{
					"attributes":{
						"POSITION":156,
						"NORMAL":157,
						"TEXCOORD_0":158
					},
					"indices":26,
					"material":5
				}
			]
		},
		{
			"name":"Cylinder.064",
			"primitives":[
				{
					"attributes":{
						"POSITION":159,
						"NORMAL":160,
						"TEXCOORD_0":161
					},
					"indices":18,
					"material":3
				},
				{
					"attributes":{
						"POSITION":162,
						"NORMAL":163,
						"TEXCOORD_0":164
					},
					"indices":22,
					"material":4
				},
				{
					"attributes":{
						"POSITION":165,
						"NORMAL":166,
						"TEXCOORD_0":167
					},
					"indices":26,
					"material":5
				}
			]
		},
		{
			"name":"Cylinder.057",
			"primitives":[
				{
					"attributes":{
						"POSITION":168,
						"NORMAL":169,
						"TEXCOORD_0":170
					},
					"indices":69,
					"material":12
				}
			]
		},
		{
			"name":"Cylinder.004",
			"primitives":[
				{
					"attributes":{
						"POSITION":171,
						"NORMAL":172,
						"TEXCOORD_0":173
					},
					"indices":69,
					"material":13
				}
			]
		},
		{
			"name":"Sphere.003",
			"primitives":[
				{
					"attributes":{
						"POSITION":174,
						"NORMAL":175,
						"TEXCOORD_0":176,
						"TANGENT":177
					},
					"indices":60,
					"material":0
				},
				{
					"attributes":{
						"POSITION":178,
						"NORMAL":179,
						"TEXCOORD_0":180,
						"TANGENT":181
					},
					"indices":65,
					"material":1
				}
			]
		},
		{
			"name":"Cube.021",
			"primitives":[
				{
					"attributes":{
						"POSITION":182,
						"NORMAL":183,
						"TEXCOORD_0":184
					},
					"indices":185,
					"material":18
				},
				{
					"attributes":{
						"POSITION":186,
						"NORMAL":187,
						"TEXCOORD_0":188
					},
					"indices":189,
					"material":6
				}
			]
		},
		{
			"name":"Cylinder.010",
			"primitives":[
				{
					"attributes":{
						"POSITION":190,
						"NORMAL":191,
						"TEXCOORD_0":192
					},
					"indices":69,
					"material":12
				}
			]
		},
		{
			"name":"Cube.012",
			"primitives":[
				{
					"attributes":{
						"POSITION":193,
						"NORMAL":194,
						"TEXCOORD_0":195
					},
					"indices":185,
					"material":18
				},
				{
					"attributes":{
						"POSITION":196,
						"NORMAL":197,
						"TEXCOORD_0":198
					},
					"indices":189,
					"material":6
				}
			]
		},
		{
			"name":"Cylinder.009",
			"primitives":[
				{
					"attributes":{
						"POSITION":199,
						"NORMAL":200,
						"TEXCOORD_0":201
					},
					"indices":69,
					"material":13
				}
			]
		},
		{
			"name":"Cylinder.067",
			"primitives":[
				{
					"attributes":{
						"POSITION":202,
						"NORMAL":203,
						"TEXCOORD_0":204
					},
					"indices":18,
					"material":3
				},
				{
					"attributes":{
						"POSITION":205,
						"NORMAL":206,
						"TEXCOORD_0":207
					},
					"indices":22,
					"material":4
				},
				{
					"attributes":{
						"POSITION":208,
						"NORMAL":209,
						"TEXCOORD_0":210
					},
					"indices":26,
					"material":5
				}
			]
		},
		{
			"name":"Plane",
			"primitives":[
				{
					"attributes":{
						"POSITION":211,
						"NORMAL":212,
						"TEXCOORD_0":213,
						"TANGENT":214
					},
					"indices":215,
					"material":19
				},
				{
					"attributes":{
						"POSITION":216,
						"NORMAL":217,
						"TEXCOORD_0":218,
						"TANGENT":219
					},
					"indices":220,
					"material":20
				}
			]
		},
		{
			"name":"Cylinder.005",
			"primitives":[
				{
					"attributes":{
						"POSITION":221,
						"NORMAL":222,
						"TEXCOORD_0":223
					},
					"indices":18,
					"material":3
				},
				{
					"attributes":{
						"POSITION":224,
						"NORMAL":225,
						"TEXCOORD_0":226
					},
					"indices":22,
					"material":4
				},
				{
					"attributes":{
						"POSITION":227,
						"NORMAL":228,
						"TEXCOORD_0":229
					},
					"indices":26,
					"material":5
				}
			]
		},
		{
			"name":"Cylinder.042",
			"primitives":[
				{
					"attributes":{
						"POSITION":230,
						"NORMAL":231,
						"TEXCOORD_0":232
					},
					"indices":18,
					"material":3
				},
				{
					"attributes":{
						"POSITION":233,
						"NORMAL":234,
						"TEXCOORD_0":235
					},
					"indices":22,
					"material":4
				},
				{
					"attributes":{
						"POSITION":236,
						"NORMAL":237,
						"TEXCOORD_0":238
					},
					"indices":26,
					"material":5
				}
			]
		},
		{
			"name":"Sphere.004",
			"primitives":[
				{
					"attributes":{
						"POSITION":239,
						"NORMAL":240,
						"TEXCOORD_0":241,
						"TANGENT":242
					},
					"indices":4,
					"material":0
				},
				{
					"attributes":{
						"POSITION":243,
						"NORMAL":244,
						"TEXCOORD_0":245,
						"TANGENT":246
					},
					"indices":9,
					"material":1
				}
			]
		},
		{
			"name":"Circle.001",
			"primitives":[
				{
					"attributes":{
						"POSITION":247,
						"NORMAL":248,
						"TEXCOORD_0":249,
						"TANGENT":250
					},
					"indices":251,
					"material":21
				}
			]
		},
		{
			"name":"Cylinder.055",
			"primitives":[
				{
					"attributes":{
						"POSITION":252,
						"NORMAL":253,
						"TEXCOORD_0":254
					},
					"indices":69,
					"material":12
				}
			]
		},
		{
			"name":"Cylinder.002",
			"primitives":[
				{
					"attributes":{
						"POSITION":255,
						"NORMAL":256,
						"TEXCOORD_0":257
					},
					"indices":69,
					"material":12
				}
			]
		},
		{
			"name":"Plane.001",
			"primitives":[
				{
					"attributes":{
						"POSITION":258,
						"NORMAL":259,
						"TEXCOORD_0":260
					},
					"indices":261,
					"material":14
				}
			]
		}
	],
	"accessors":[
		{
			"bufferView":0,
			"componentType":5126,
			"count":890,
			"max":[
				0.9999997019767761,
				1.1681404113769531,
				0.9999994039535522
			],
			"min":[
				-0.9999990463256836,
				-0.15622131526470184,
				-0.9999987483024597
			],
			"type":"VEC3"
		},
		{
			"bufferView":1,
			"componentType":5126,
			"count":890,
			"type":"VEC3"
		},
		{
			"bufferView":2,
			"componentType":5126,
			"count":890,
			"type":"VEC2"
		},
		{
			"bufferView":3,
			"componentType":5126,
			"count":890,
			"type":"VEC4"
		},
		{
			"bufferView":4,
			"componentType":5123,
			"count":4800,
			"type":"SCALAR"
		},
		{
			"bufferView":5,
			"componentType":5126,
			"count":196,
			"max":[
				0.03183292970061302,
				5.497008323669434,
				0.03183300420641899
			],
			"min":[
				-0.03183287754654884,
				1.1592769622802734,
				-0.031832873821258545
			],
			"type":"VEC3"
		},
		{
			"bufferView":6,
			"componentType":5126,
			"count":196,
			"type":"VEC3"
		},
		{
			"bufferView":7,
			"componentType":5126,
			"count":196,
			"type":"VEC2"
		},
		{
			"bufferView":8,
			"componentType":5126,
			"count":196,
			"type":"VEC4"
		},
		{
			"bufferView":9,
			"componentType":5123,
			"count":576,
			"type":"SCALAR"
		},
		{
			"bufferView":10,
			"componentType":5126,
			"count":14,
			"max":[
				1.0171147584915161,
				-0.3589681386947632,
				1.4626638889312744
			],
			"min":[
				-1.4379595518112183,
				-0.3589681386947632,
				-1.4626638889312744
			],
			"type":"VEC3"
		},
		{
			"bufferView":11,
			"componentType":5126,
			"count":14,
			"type":"VEC3"
		},
		{
			"bufferView":12,
			"componentType":5126,
			"count":14,
			"type":"VEC2"
		},
		{
			"bufferView":13,
			"componentType":5126,
			"count":14,
			"type":"VEC4"
		},
		{
			"bufferView":14,
			"componentType":5123,
			"count":24,
			"type":"SCALAR"
		},
		{
			"bufferView":15,
			"componentType":5126,
			"count":387,
			"max":[
				0.4809632897377014,
				0.21999981999397278,
				0.4809633493423462
			],
			"min":[
				-0.4809633493423462,
				-0.6851422786712646,
				-0.4809633493423462
			],
			"type":"VEC3"
		},
		{
			"bufferView":16,
			"componentType":5126,
			"count":387,
			"type":"VEC3"
		},
		{
			"bufferView":17,
			"componentType":5126,
			"count":387,
			"type":"VEC2"
		},
		{
			"bufferView":18,
			"componentType":5123,
			"count":858,
			"type":"SCALAR"
		},
		{
			"bufferView":19,
			"componentType":5126,
			"count":548,
			"max":[
				0.4809632897377014,
				0.5286610722541809,
				0.4809633493423462
			],
			"min":[
				-0.4809633493423462,
				0.2960898280143738,
				-0.4809633493423462
			],
			"type":"VEC3"
		},
		{
			"bufferView":20,
			"componentType":5126,
			"count":548,
			"type":"VEC3"
		},
		{
			"bufferView":21,
			"componentType":5126,
			"count":548,
			"type":"VEC2"
		},
		{
			"bufferView":22,
			"componentType":5123,
			"count":1050,
			"type":"SCALAR"
		},
		{
			"bufferView":23,
			"componentType":5126,
			"count":128,
			"max":[
				0.4004221558570862,
				0.2960898280143738,
				0.40042221546173096
			],
			"min":[
				-0.40042221546173096,
				0.21999981999397278,
				-0.40042221546173096
			],
			"type":"VEC3"
		},
		{
			"bufferView":24,
			"componentType":5126,
			"count":128,
			"type":"VEC3"
		},
		{
			"bufferView":25,
			"componentType":5126,
			"count":128,
			"type":"VEC2"
		},
		{
			"bufferView":26,
			"componentType":5123,
			"count":192,
			"type":"SCALAR"
		},
		{
			"bufferView":27,
			"componentType":5126,
			"count":704,
			"max":[
				0.9999998807907104,
				0.8141734004020691,
				0.9999999403953552
			],
			"min":[
				-0.9999999403953552,
				-13.171703338623047,
				-0.9999999403953552
			],
			"type":"VEC3"
		},
		{
			"bufferView":28,
			"componentType":5126,
			"count":704,
			"type":"VEC3"
		},
		{
			"bufferView":29,
			"componentType":5126,
			"count":704,
			"type":"VEC2"
		},
		{
			"bufferView":30,
			"componentType":5123,
			"count":1752,
			"type":"SCALAR"
		},
		{
			"bufferView":31,
			"componentType":5126,
			"count":24,
			"max":[
				0.5990000367164612,
				0.9980000257492065,
				0
			],
			"min":[
				-0.5990000367164612,
				0,
				-0.30000001192092896
			],
			"type":"VEC3"
		},
		{
			"bufferView":32,
			"componentType":5126,
			"count":24,
			"type":"VEC3"
		},
		{
			"bufferView":33,
			"componentType":5123,
			"count":36,
			"type":"SCALAR"
		},
		{
			"bufferView":34,
			"componentType":5126,
			"count":644,
			"max":[
				0.007971039041876793,
				0.05025443434715271,
				0.0038057267665863037
			],
			"min":[
				-0.007970962673425674,
				-0.07533407211303711,
				-6.780028343200684e-07
			],
			"type":"VEC3"
		},
		{
			"bufferView":35,
			"componentType":5126,
			"count":644,
			"type":"VEC3"
		},
		{
			"bufferView":36,
			"componentType":5123,
			"count":1368,
			"type":"SCALAR"
		},
		{
			"bufferView":37,
			"componentType":5126,
			"count":296,
			"max":[
				0.6140000224113464,
				0.949999988079071,
				0.03449999913573265
			],
			"min":[
				-0.004000000189989805,
				0,
				0
			],
			"type":"VEC3"
		},
		{
			"bufferView":38,
			"componentType":5126,
			"count":296,
			"type":"VEC3"
		},
		{
			"bufferView":39,
			"componentType":5123,
			"count":528,
			"type":"SCALAR"
		},
		{
			"bufferView":40,
			"componentType":5126,
			"count":4,
			"max":[
				0.5600000023841858,
				0.8999999761581421,
				0.017249999567866325
			],
			"min":[
				0.05000000074505806,
				0.05000000074505806,
				0.017249999567866325
			],
			"type":"VEC3"
		},
		{
			"bufferView":41,
			"componentType":5126,
			"count":4,
			"type":"VEC3"
		},
		{
			"bufferView":42,
			"componentType":5123,
			"count":6,
			"type":"SCALAR"
		},
		{
			"bufferView":43,
			"componentType":5126,
			"count":644,
			"max":[
				0.007971039041876793,
				0.05025443434715271,
				0.0038057267665863037
			],
			"min":[
				-0.007970962673425674,
				-0.07533407211303711,
				-6.780028343200684e-07
			],
			"type":"VEC3"
		},
		{
			"bufferView":44,
			"componentType":5126,
			"count":644,
			"type":"VEC3"
		},
		{
			"bufferView":45,
			"componentType":5126,
			"count":296,
			"max":[
				0.004000000189989805,
				0.949999988079071,
				0.03449999913573265
			],
			"min":[
				-0.6140000224113464,
				0,
				0
			],
			"type":"VEC3"
		},
		{
			"bufferView":46,
			"componentType":5126,
			"count":296,
			"type":"VEC3"
		},
		{
			"bufferView":47,
			"componentType":5123,
			"count":528,
			"type":"SCALAR"
		},
		{
			"bufferView":48,
			"componentType":5126,
			"count":4,
			"max":[
				-0.05000000074505806,
				0.8999999761581421,
				0.017249999567866325
			],
			"min":[
				-0.5600000023841858,
				0.05000000074505806,
				0.017249999567866325
			],
			"type":"VEC3"
		},
		{
			"bufferView":49,
			"componentType":5126,
			"count":4,
			"type":"VEC3"
		},
		{
			"bufferView":50,
			"componentType":5126,
			"count":24,
			"max":[
				0.6000000238418579,
				0,
				0
			],
			"min":[
				-0.6000000238418579,
				-0.009999999776482582,
				-0.2199999988079071
			],
			"type":"VEC3"
		},
		{
			"bufferView":51,
			"componentType":5126,
			"count":24,
			"type":"VEC3"
		},
		{
			"bufferView":52,
			"componentType":5123,
			"count":36,
			"type":"SCALAR"
		},
		{
			"bufferView":53,
			"componentType":5126,
			"count":352,
			"max":[
				0.6100000143051147,
				1.0099999904632568,
				0.10199999809265137
			],
			"min":[
				-0.6100000143051147,
				-0.009999999776482582,
				0
			],
			"type":"VEC3"
		},
		{
			"bufferView":54,
			"componentType":5126,
			"count":352,
			"type":"VEC3"
		},
		{
			"bufferView":55,
			"componentType":5123,
			"count":624,
			"type":"SCALAR"
		},
		{
			"bufferView":56,
			"componentType":5126,
			"count":429,
			"max":[
				0.9999997019767761,
				1.1681404113769531,
				0.9999994039535522
			],
			"min":[
				-0.9999990463256836,
				-0.15622131526470184,
				-0.9999987483024597
			],
			"type":"VEC3"
		},
		{
			"bufferView":57,
			"componentType":5126,
			"count":429,
			"type":"VEC3"
		},
		{
			"bufferView":58,
			"componentType":5126,
			"count":429,
			"type":"VEC2"
		},
		{
			"bufferView":59,
			"componentType":5126,
			"count":429,
			"type":"VEC4"
		},
		{
			"bufferView":60,
			"componentType":5123,
			"count":2304,
			"type":"SCALAR"
		},
		{
			"bufferView":61,
			"componentType":5126,
			"count":98,
			"max":[
				0.03183292970061302,
				5.497008323669434,
				0.03183300420641899
			],
			"min":[
				-0.03183287754654884,
				1.1666642427444458,
				-0.031832873821258545
			],
			"type":"VEC3"
		},
		{
			"bufferView":62,
			"componentType":5126,
			"count":98,
			"type":"VEC3"
		},
		{
			"bufferView":63,
			"componentType":5126,
			"count":98,
			"type":"VEC2"
		},
		{
			"bufferView":64,
			"componentType":5126,
			"count":98,
			"type":"VEC4"
		},
		{
			"bufferView":65,
			"componentType":5123,
			"count":288,
			"type":"SCALAR"
		},
		{
			"bufferView":66,
			"componentType":5126,
			"count":450,
			"max":[
				1,
				1.3887839317321777,
				1
			],
			"min":[
				-1,
				-1,
				-1
			],
			"type":"VEC3"
		},
		{
			"bufferView":67,
			"componentType":5126,
			"count":450,
			"type":"VEC3"
		},
		{
			"bufferView":68,
			"componentType":5126,
			"count":450,
			"type":"VEC2"
		},
		{
			"bufferView":69,
			"componentType":5123,
			"count":1332,
			"type":"SCALAR"
		},
		{
			"bufferView":70,
			"componentType":5126,
			"count":450,
			"max":[
				1,
				1.3887839317321777,
				1
			],
			"min":[
				-1,
				-1,
				-1
			],
			"type":"VEC3"
		},
		{
			"bufferView":71,
			"componentType":5126,
			"count":450,
			"type":"VEC3"
		},
		{
			"bufferView":72,
			"componentType":5126,
			"count":450,
			"type":"VEC2"
		},
		{
			"bufferView":73,
			"componentType":5126,
			"count":450,
			"max":[
				1,
				1.3887839317321777,
				1
			],
			"min":[
				-1,
				-1,
				-1
			],
			"type":"VEC3"
		},
		{
			"bufferView":74,
			"componentType":5126,
			"count":450,
			"type":"VEC3"
		},
		{
			"bufferView":75,
			"componentType":5126,
			"count":450,
			"type":"VEC2"
		},
		{
			"bufferView":76,
			"componentType":5126,
			"count":87090,
			"max":[
				1,
				0.1198204830288887,
				1
			],
			"min":[
				-11,
				-0.009999999776482582,
				-37.472084045410156
			],
			"type":"VEC3"
		},
		{
			"bufferView":77,
			"componentType":5126,
			"count":87090,
			"type":"VEC3"
		},
		{
			"bufferView":78,
			"componentType":5126,
			"count":87090,
			"type":"VEC2"
		},
		{
			"bufferView":79,
			"componentType":5125,
			"count":157788,
			"type":"SCALAR"
		},
		{
			"bufferView":80,
			"componentType":5126,
			"count":704,
			"max":[
				0.9999998807907104,
				0.8141734004020691,
				0.9999999403953552
			],
			"min":[
				-0.9999999403953552,
				-13.171703338623047,
				-0.9999999403953552
			],
			"type":"VEC3"
		},
		{
			"bufferView":81,
			"componentType":5126,
			"count":704,
			"type":"VEC3"
		},
		{
			"bufferView":82,
			"componentType":5126,
			"count":704,
			"type":"VEC2"
		},
		{
			"bufferView":83,
			"componentType":5126,
			"count":450,
			"max":[
				1,
				1.3887839317321777,
				1
			],
			"min":[
				-1,
				-1,
				-1
			],
			"type":"VEC3"
		},
		{
			"bufferView":84,
			"componentType":5126,
			"count":450,
			"type":"VEC3"
		},
		{
			"bufferView":85,
			"componentType":5126,
			"count":450,
			"type":"VEC2"
		},
		{
			"bufferView":86,
			"componentType":5126,
			"count":387,
			"max":[
				0.4809632897377014,
				0.21999981999397278,
				0.4809633493423462
			],
			"min":[
				-0.4809633493423462,
				-0.6851422786712646,
				-0.4809633493423462
			],
			"type":"VEC3"
		},
		{
			"bufferView":87,
			"componentType":5126,
			"count":387,
			"type":"VEC3"
		},
		{
			"bufferView":88,
			"componentType":5126,
			"count":387,
			"type":"VEC2"
		},
		{
			"bufferView":89,
			"componentType":5126,
			"count":548,
			"max":[
				0.4809632897377014,
				0.5286610722541809,
				0.4809633493423462
			],
			"min":[
				-0.4809633493423462,
				0.2960898280143738,
				-0.4809633493423462
			],
			"type":"VEC3"
		},
		{
			"bufferView":90,
			"componentType":5126,
			"count":548,
			"type":"VEC3"
		},
		{
			"bufferView":91,
			"componentType":5126,
			"count":548,
			"type":"VEC2"
		},
		{
			"bufferView":92,
			"componentType":5126,
			"count":128,
			"max":[
				0.4004221558570862,
				0.2960898280143738,
				0.40042221546173096
			],
			"min":[
				-0.40042221546173096,
				0.21999981999397278,
				-0.40042221546173096
			],
			"type":"VEC3"
		},
		{
			"bufferView":93,
			"componentType":5126,
			"count":128,
			"type":"VEC3"
		},
		{
			"bufferView":94,
			"componentType":5126,
			"count":128,
			"type":"VEC2"
		},
		{
			"bufferView":95,
			"componentType":5126,
			"count":450,
			"max":[
				1,
				1.3887839317321777,
				1
			],
			"min":[
				-1,
				-1,
				-1
			],
			"type":"VEC3"
		},
		{
			"bufferView":96,
			"componentType":5126,
			"count":450,
			"type":"VEC3"
		},
		{
			"bufferView":97,
			"componentType":5126,
			"count":450,
			"type":"VEC2"
		},
		{
			"bufferView":98,
			"componentType":5126,
			"count":450,
			"max":[
				1,
				1.3887839317321777,
				1
			],
			"min":[
				-1,
				-1,
				-1
			],
			"type":"VEC3"
		},
		{
			"bufferView":99,
			"componentType":5126,
			"count":450,
			"type":"VEC3"
		},
		{
			"bufferView":100,
			"componentType":5126,
			"count":450,
			"type":"VEC2"
		},
		{
			"bufferView":101,
			"componentType":5126,
			"count":450,
			"max":[
				1,
				1.3887839317321777,
				1
			],
			"min":[
				-1,
				-1,
				-1
			],
			"type":"VEC3"
		},
		{
			"bufferView":102,
			"componentType":5126,
			"count":450,
			"type":"VEC3"
		},
		{
			"bufferView":103,
			"componentType":5126,
			"count":450,
			"type":"VEC2"
		},
		{
			"bufferView":104,
			"componentType":5126,
			"count":201204,
			"max":[
				1,
				0.1198204830288887,
				1
			],
			"min":[
				-11,
				-0.009999999776482582,
				-95
			],
			"type":"VEC3"
		},
		{
			"bufferView":105,
			"componentType":5126,
			"count":201204,
			"type":"VEC3"
		},
		{
			"bufferView":106,
			"componentType":5126,
			"count":201204,
			"type":"VEC2"
		},
		{
			"bufferView":107,
			"componentType":5125,
			"count":364512,
			"type":"SCALAR"
		},
		{
			"bufferView":108,
			"componentType":5126,
			"count":387,
			"max":[
				0.4809632897377014,
				0.21999981999397278,
				0.4809633493423462
			],
			"min":[
				-0.4809633493423462,
				-0.6851422786712646,
				-0.4809633493423462
			],
			"type":"VEC3"
		},
		{
			"bufferView":109,
			"componentType":5126,
			"count":387,
			"type":"VEC3"
		},
		{
			"bufferView":110,
			"componentType":5126,
			"count":387,
			"type":"VEC2"
		},
		{
			"bufferView":111,
			"componentType":5126,
			"count":548,
			"max":[
				0.4809632897377014,
				0.5286610722541809,
				0.4809633493423462
			],
			"min":[
				-0.4809633493423462,
				0.2960898280143738,
				-0.4809633493423462
			],
			"type":"VEC3"
		},
		{
			"bufferView":112,
			"componentType":5126,
			"count":548,
			"type":"VEC3"
		},
		{
			"bufferView":113,
			"componentType":5126,
			"count":548,
			"type":"VEC2"
		},
		{
			"bufferView":114,
			"componentType":5126,
			"count":128,
			"max":[
				0.4004221558570862,
				0.2960898280143738,
				0.40042221546173096
			],
			"min":[
				-0.40042221546173096,
				0.21999981999397278,
				-0.40042221546173096
			],
			"type":"VEC3"
		},
		{
			"bufferView":115,
			"componentType":5126,
			"count":128,
			"type":"VEC3"
		},
		{
			"bufferView":116,
			"componentType":5126,
			"count":128,
			"type":"VEC2"
		},
		{
			"bufferView":117,
			"componentType":5126,
			"count":368,
			"max":[
				1.0171147584915161,
				1.7352617979049683,
				1.5226638317108154
			],
			"min":[
				-1.4803858995437622,
				-0.418968141078949,
				-1.5226638317108154
			],
			"type":"VEC3"
		},
		{
			"bufferView":118,
			"componentType":5126,
			"count":368,
			"type":"VEC3"
		},
		{
			"bufferView":119,
			"componentType":5126,
			"count":368,
			"type":"VEC2"
		},
		{
			"bufferView":120,
			"componentType":5123,
			"count":738,
			"type":"SCALAR"
		},
		{
			"bufferView":121,
			"componentType":5126,
			"count":450,
			"max":[
				1,
				1.3887839317321777,
				1
			],
			"min":[
				-1,
				-1,
				-1
			],
			"type":"VEC3"
		},
		{
			"bufferView":122,
			"componentType":5126,
			"count":450,
			"type":"VEC3"
		},
		{
			"bufferView":123,
			"componentType":5126,
			"count":450,
			"type":"VEC2"
		},
		{
			"bufferView":124,
			"componentType":5126,
			"count":387,
			"max":[
				0.4809632897377014,
				0.21999981999397278,
				0.4809633493423462
			],
			"min":[
				-0.4809633493423462,
				-0.6851422786712646,
				-0.4809633493423462
			],
			"type":"VEC3"
		},
		{
			"bufferView":125,
			"componentType":5126,
			"count":387,
			"type":"VEC3"
		},
		{
			"bufferView":126,
			"componentType":5126,
			"count":387,
			"type":"VEC2"
		},
		{
			"bufferView":127,
			"componentType":5126,
			"count":548,
			"max":[
				0.4809632897377014,
				0.5286610722541809,
				0.4809633493423462
			],
			"min":[
				-0.4809633493423462,
				0.2960898280143738,
				-0.4809633493423462
			],
			"type":"VEC3"
		},
		{
			"bufferView":128,
			"componentType":5126,
			"count":548,
			"type":"VEC3"
		},
		{
			"bufferView":129,
			"componentType":5126,
			"count":548,
			"type":"VEC2"
		},
		{
			"bufferView":130,
			"componentType":5126,
			"count":128,
			"max":[
				0.4004221558570862,
				0.2960898280143738,
				0.40042221546173096
			],
			"min":[
				-0.40042221546173096,
				0.21999981999397278,
				-0.40042221546173096
			],
			"type":"VEC3"
		},
		{
			"bufferView":131,
			"componentType":5126,
			"count":128,
			"type":"VEC3"
		},
		{
			"bufferView":132,
			"componentType":5126,
			"count":128,
			"type":"VEC2"
		},
		{
			"bufferView":133,
			"componentType":5126,
			"count":450,
			"max":[
				1,
				1.3887839317321777,
				1
			],
			"min":[
				-1,
				-1,
				-1
			],
			"type":"VEC3"
		},
		{
			"bufferView":134,
			"componentType":5126,
			"count":450,
			"type":"VEC3"
		},
		{
			"bufferView":135,
			"componentType":5126,
			"count":450,
			"type":"VEC2"
		},
		{
			"bufferView":136,
			"componentType":5126,
			"count":704,
			"max":[
				0.9999998807907104,
				0.8141734004020691,
				0.9999999403953552
			],
			"min":[
				-0.9999999403953552,
				-13.171703338623047,
				-0.9999999403953552
			],
			"type":"VEC3"
		},
		{
			"bufferView":137,
			"componentType":5126,
			"count":704,
			"type":"VEC3"
		},
		{
			"bufferView":138,
			"componentType":5126,
			"count":704,
			"type":"VEC2"
		},
		{
			"bufferView":139,
			"componentType":5126,
			"count":450,
			"max":[
				1,
				1.3887839317321777,
				1
			],
			"min":[
				-1,
				-1,
				-1
			],
			"type":"VEC3"
		},
		{
			"bufferView":140,
			"componentType":5126,
			"count":450,
			"type":"VEC3"
		},
		{
			"bufferView":141,
			"componentType":5126,
			"count":450,
			"type":"VEC2"
		},
		{
			"bufferView":142,
			"componentType":5126,
			"count":11200,
			"max":[
				-1.014918327331543,
				1.406373381614685,
				1.9675164222717285
			],
			"min":[
				-12.607433319091797,
				0.004131793975830078,
				1.0757845640182495
			],
			"type":"VEC3"
		},
		{
			"bufferView":143,
			"componentType":5126,
			"count":11200,
			"type":"VEC3"
		},
		{
			"bufferView":144,
			"componentType":5126,
			"count":11200,
			"type":"VEC2"
		},
		{
			"bufferView":145,
			"componentType":5123,
			"count":18240,
			"type":"SCALAR"
		},
		{
			"bufferView":146,
			"componentType":5126,
			"count":3360,
			"max":[
				-1.0809433460235596,
				1.5025137662887573,
				1.901491403579712
			],
			"min":[
				-12.54140853881836,
				1.406373381614685,
				1.1418094635009766
			],
			"type":"VEC3"
		},
		{
			"bufferView":147,
			"componentType":5126,
			"count":3360,
			"type":"VEC3"
		},
		{
			"bufferView":148,
			"componentType":5126,
			"count":3360,
			"type":"VEC2"
		},
		{
			"bufferView":149,
			"componentType":5123,
			"count":5250,
			"type":"SCALAR"
		},
		{
			"bufferView":150,
			"componentType":5126,
			"count":387,
			"max":[
				0.4809632897377014,
				0.21999981999397278,
				0.4809633493423462
			],
			"min":[
				-0.4809633493423462,
				-0.6851422786712646,
				-0.4809633493423462
			],
			"type":"VEC3"
		},
		{
			"bufferView":151,
			"componentType":5126,
			"count":387,
			"type":"VEC3"
		},
		{
			"bufferView":152,
			"componentType":5126,
			"count":387,
			"type":"VEC2"
		},
		{
			"bufferView":153,
			"componentType":5126,
			"count":548,
			"max":[
				0.4809632897377014,
				0.5286610722541809,
				0.4809633493423462
			],
			"min":[
				-0.4809633493423462,
				0.2960898280143738,
				-0.4809633493423462
			],
			"type":"VEC3"
		},
		{
			"bufferView":154,
			"componentType":5126,
			"count":548,
			"type":"VEC3"
		},
		{
			"bufferView":155,
			"componentType":5126,
			"count":548,
			"type":"VEC2"
		},
		{
			"bufferView":156,
			"componentType":5126,
			"count":128,
			"max":[
				0.4004221558570862,
				0.2960898280143738,
				0.40042221546173096
			],
			"min":[
				-0.40042221546173096,
				0.21999981999397278,
				-0.40042221546173096
			],
			"type":"VEC3"
		},
		{
			"bufferView":157,
			"componentType":5126,
			"count":128,
			"type":"VEC3"
		},
		{
			"bufferView":158,
			"componentType":5126,
			"count":128,
			"type":"VEC2"
		},
		{
			"bufferView":159,
			"componentType":5126,
			"count":387,
			"max":[
				0.4809632897377014,
				0.21999981999397278,
				0.4809633493423462
			],
			"min":[
				-0.4809633493423462,
				-0.6851422786712646,
				-0.4809633493423462
			],
			"type":"VEC3"
		},
		{
			"bufferView":160,
			"componentType":5126,
			"count":387,
			"type":"VEC3"
		},
		{
			"bufferView":161,
			"componentType":5126,
			"count":387,
			"type":"VEC2"
		},
		{
			"bufferView":162,
			"componentType":5126,
			"count":548,
			"max":[
				0.4809632897377014,
				0.5286610722541809,
				0.4809633493423462
			],
			"min":[
				-0.4809633493423462,
				0.2960898280143738,
				-0.4809633493423462
			],
			"type":"VEC3"
		},
		{
			"bufferView":163,
			"componentType":5126,
			"count":548,
			"type":"VEC3"
		},
		{
			"bufferView":164,
			"componentType":5126,
			"count":548,
			"type":"VEC2"
		},
		{
			"bufferView":165,
			"componentType":5126,
			"count":128,
			"max":[
				0.4004221558570862,
				0.2960898280143738,
				0.40042221546173096
			],
			"min":[
				-0.40042221546173096,
				0.21999981999397278,
				-0.40042221546173096
			],
			"type":"VEC3"
		},
		{
			"bufferView":166,
			"componentType":5126,
			"count":128,
			"type":"VEC3"
		},
		{
			"bufferView":167,
			"componentType":5126,
			"count":128,
			"type":"VEC2"
		},
		{
			"bufferView":168,
			"componentType":5126,
			"count":450,
			"max":[
				1,
				1.3887839317321777,
				1
			],
			"min":[
				-1,
				-1,
				-1
			],
			"type":"VEC3"
		},
		{
			"bufferView":169,
			"componentType":5126,
			"count":450,
			"type":"VEC3"
		},
		{
			"bufferView":170,
			"componentType":5126,
			"count":450,
			"type":"VEC2"
		},
		{
			"bufferView":171,
			"componentType":5126,
			"count":450,
			"max":[
				1,
				1.3887839317321777,
				1
			],
			"min":[
				-1,
				-1,
				-1
			],
			"type":"VEC3"
		},
		{
			"bufferView":172,
			"componentType":5126,
			"count":450,
			"type":"VEC3"
		},
		{
			"bufferView":173,
			"componentType":5126,
			"count":450,
			"type":"VEC2"
		},
		{
			"bufferView":174,
			"componentType":5126,
			"count":429,
			"max":[
				0.9999997019767761,
				1.1681404113769531,
				0.9999994039535522
			],
			"min":[
				-0.9999990463256836,
				-0.15622131526470184,
				-0.9999987483024597
			],
			"type":"VEC3"
		},
		{
			"bufferView":175,
			"componentType":5126,
			"count":429,
			"type":"VEC3"
		},
		{
			"bufferView":176,
			"componentType":5126,
			"count":429,
			"type":"VEC2"
		},
		{
			"bufferView":177,
			"componentType":5126,
			"count":429,
			"type":"VEC4"
		},
		{
			"bufferView":178,
			"componentType":5126,
			"count":98,
			"max":[
				0.03183292970061302,
				5.497008323669434,
				0.03183300420641899
			],
			"min":[
				-0.03183287754654884,
				1.1666642427444458,
				-0.031832873821258545
			],
			"type":"VEC3"
		},
		{
			"bufferView":179,
			"componentType":5126,
			"count":98,
			"type":"VEC3"
		},
		{
			"bufferView":180,
			"componentType":5126,
			"count":98,
			"type":"VEC2"
		},
		{
			"bufferView":181,
			"componentType":5126,
			"count":98,
			"type":"VEC4"
		},
		{
			"bufferView":182,
			"componentType":5126,
			"count":49584,
			"max":[
				1.0366532802581787,
				2.7751357555389404,
				1.0521601438522339
			],
			"min":[
				-3.3446433544158936,
				1.0361109972000122,
				-1.0534836053848267
			],
			"type":"VEC3"
		},
		{
			"bufferView":183,
			"componentType":5126,
			"count":49584,
			"type":"VEC3"
		},
		{
			"bufferView":184,
			"componentType":5126,
			"count":49584,
			"type":"VEC2"
		},
		{
			"bufferView":185,
			"componentType":5123,
			"count":244992,
			"type":"SCALAR"
		},
		{
			"bufferView":186,
			"componentType":5126,
			"count":1224,
			"max":[
				1.0000005960464478,
				2.6055591106414795,
				1.000000238418579
			],
			"min":[
				-3.252452850341797,
				0.018047869205474854,
				-1.0000001192092896
			],
			"type":"VEC3"
		},
		{
			"bufferView":187,
			"componentType":5126,
			"count":1224,
			"type":"VEC3"
		},
		{
			"bufferView":188,
			"componentType":5126,
			"count":1224,
			"type":"VEC2"
		},
		{
			"bufferView":189,
			"componentType":5123,
			"count":2340,
			"type":"SCALAR"
		},
		{
			"bufferView":190,
			"componentType":5126,
			"count":450,
			"max":[
				1,
				1.3887839317321777,
				1
			],
			"min":[
				-1,
				-1,
				-1
			],
			"type":"VEC3"
		},
		{
			"bufferView":191,
			"componentType":5126,
			"count":450,
			"type":"VEC3"
		},
		{
			"bufferView":192,
			"componentType":5126,
			"count":450,
			"type":"VEC2"
		},
		{
			"bufferView":193,
			"componentType":5126,
			"count":49584,
			"max":[
				1.0366532802581787,
				2.7751357555389404,
				1.0521601438522339
			],
			"min":[
				-3.3446433544158936,
				1.0361109972000122,
				-1.0534836053848267
			],
			"type":"VEC3"
		},
		{
			"bufferView":194,
			"componentType":5126,
			"count":49584,
			"type":"VEC3"
		},
		{
			"bufferView":195,
			"componentType":5126,
			"count":49584,
			"type":"VEC2"
		},
		{
			"bufferView":196,
			"componentType":5126,
			"count":1224,
			"max":[
				1.0000005960464478,
				2.6055591106414795,
				1.000000238418579
			],
			"min":[
				-3.252452850341797,
				0.018047869205474854,
				-1.0000001192092896
			],
			"type":"VEC3"
		},
		{
			"bufferView":197,
			"componentType":5126,
			"count":1224,
			"type":"VEC3"
		},
		{
			"bufferView":198,
			"componentType":5126,
			"count":1224,
			"type":"VEC2"
		},
		{
			"bufferView":199,
			"componentType":5126,
			"count":450,
			"max":[
				1,
				1.3887839317321777,
				1
			],
			"min":[
				-1,
				-1,
				-1
			],
			"type":"VEC3"
		},
		{
			"bufferView":200,
			"componentType":5126,
			"count":450,
			"type":"VEC3"
		},
		{
			"bufferView":201,
			"componentType":5126,
			"count":450,
			"type":"VEC2"
		},
		{
			"bufferView":202,
			"componentType":5126,
			"count":387,
			"max":[
				0.4809632897377014,
				0.21999981999397278,
				0.4809633493423462
			],
			"min":[
				-0.4809633493423462,
				-0.6851422786712646,
				-0.4809633493423462
			],
			"type":"VEC3"
		},
		{
			"bufferView":203,
			"componentType":5126,
			"count":387,
			"type":"VEC3"
		},
		{
			"bufferView":204,
			"componentType":5126,
			"count":387,
			"type":"VEC2"
		},
		{
			"bufferView":205,
			"componentType":5126,
			"count":548,
			"max":[
				0.4809632897377014,
				0.5286610722541809,
				0.4809633493423462
			],
			"min":[
				-0.4809633493423462,
				0.2960898280143738,
				-0.4809633493423462
			],
			"type":"VEC3"
		},
		{
			"bufferView":206,
			"componentType":5126,
			"count":548,
			"type":"VEC3"
		},
		{
			"bufferView":207,
			"componentType":5126,
			"count":548,
			"type":"VEC2"
		},
		{
			"bufferView":208,
			"componentType":5126,
			"count":128,
			"max":[
				0.4004221558570862,
				0.2960898280143738,
				0.40042221546173096
			],
			"min":[
				-0.40042221546173096,
				0.21999981999397278,
				-0.40042221546173096
			],
			"type":"VEC3"
		},
		{
			"bufferView":209,
			"componentType":5126,
			"count":128,
			"type":"VEC3"
		},
		{
			"bufferView":210,
			"componentType":5126,
			"count":128,
			"type":"VEC2"
		},
		{
			"bufferView":211,
			"componentType":5126,
			"count":32,
			"max":[
				1,
				0.5911910533905029,
				0.9157994985580444
			],
			"min":[
				-0.9922851324081421,
				-0.08150532841682434,
				-0.5620912313461304
			],
			"type":"VEC3"
		},
		{
			"bufferView":212,
			"componentType":5126,
			"count":32,
			"type":"VEC3"
		},
		{
			"bufferView":213,
			"componentType":5126,
			"count":32,
			"type":"VEC2"
		},
		{
			"bufferView":214,
			"componentType":5126,
			"count":32,
			"type":"VEC4"
		},
		{
			"bufferView":215,
			"componentType":5123,
			"count":54,
			"type":"SCALAR"
		},
		{
			"bufferView":216,
			"componentType":5126,
			"count":12,
			"max":[
				1,
				1.8927096334664384e-08,
				0.9157994985580444
			],
			"min":[
				-0.9922851324081421,
				-0.08150532841682434,
				-0.549315869808197
			],
			"type":"VEC3"
		},
		{
			"bufferView":217,
			"componentType":5126,
			"count":12,
			"type":"VEC3"
		},
		{
			"bufferView":218,
			"componentType":5126,
			"count":12,
			"type":"VEC2"
		},
		{
			"bufferView":219,
			"componentType":5126,
			"count":12,
			"type":"VEC4"
		},
		{
			"bufferView":220,
			"componentType":5123,
			"count":18,
			"type":"SCALAR"
		},
		{
			"bufferView":221,
			"componentType":5126,
			"count":387,
			"max":[
				0.4809632897377014,
				0.21999981999397278,
				0.4809633493423462
			],
			"min":[
				-0.4809633493423462,
				-0.6851422786712646,
				-0.4809633493423462
			],
			"type":"VEC3"
		},
		{
			"bufferView":222,
			"componentType":5126,
			"count":387,
			"type":"VEC3"
		},
		{
			"bufferView":223,
			"componentType":5126,
			"count":387,
			"type":"VEC2"
		},
		{
			"bufferView":224,
			"componentType":5126,
			"count":548,
			"max":[
				0.4809632897377014,
				0.5286610722541809,
				0.4809633493423462
			],
			"min":[
				-0.4809633493423462,
				0.2960898280143738,
				-0.4809633493423462
			],
			"type":"VEC3"
		},
		{
			"bufferView":225,
			"componentType":5126,
			"count":548,
			"type":"VEC3"
		},
		{
			"bufferView":226,
			"componentType":5126,
			"count":548,
			"type":"VEC2"
		},
		{
			"bufferView":227,
			"componentType":5126,
			"count":128,
			"max":[
				0.4004221558570862,
				0.2960898280143738,
				0.40042221546173096
			],
			"min":[
				-0.40042221546173096,
				0.21999981999397278,
				-0.40042221546173096
			],
			"type":"VEC3"
		},
		{
			"bufferView":228,
			"componentType":5126,
			"count":128,
			"type":"VEC3"
		},
		{
			"bufferView":229,
			"componentType":5126,
			"count":128,
			"type":"VEC2"
		},
		{
			"bufferView":230,
			"componentType":5126,
			"count":387,
			"max":[
				0.4809632897377014,
				0.21999981999397278,
				0.4809633493423462
			],
			"min":[
				-0.4809633493423462,
				-0.6851422786712646,
				-0.4809633493423462
			],
			"type":"VEC3"
		},
		{
			"bufferView":231,
			"componentType":5126,
			"count":387,
			"type":"VEC3"
		},
		{
			"bufferView":232,
			"componentType":5126,
			"count":387,
			"type":"VEC2"
		},
		{
			"bufferView":233,
			"componentType":5126,
			"count":548,
			"max":[
				0.4809632897377014,
				0.5286610722541809,
				0.4809633493423462
			],
			"min":[
				-0.4809633493423462,
				0.2960898280143738,
				-0.4809633493423462
			],
			"type":"VEC3"
		},
		{
			"bufferView":234,
			"componentType":5126,
			"count":548,
			"type":"VEC3"
		},
		{
			"bufferView":235,
			"componentType":5126,
			"count":548,
			"type":"VEC2"
		},
		{
			"bufferView":236,
			"componentType":5126,
			"count":128,
			"max":[
				0.4004221558570862,
				0.2960898280143738,
				0.40042221546173096
			],
			"min":[
				-0.40042221546173096,
				0.21999981999397278,
				-0.40042221546173096
			],
			"type":"VEC3"
		},
		{
			"bufferView":237,
			"componentType":5126,
			"count":128,
			"type":"VEC3"
		},
		{
			"bufferView":238,
			"componentType":5126,
			"count":128,
			"type":"VEC2"
		},
		{
			"bufferView":239,
			"componentType":5126,
			"count":890,
			"max":[
				0.9999997019767761,
				1.1681404113769531,
				0.9999994039535522
			],
			"min":[
				-0.9999990463256836,
				-0.15622131526470184,
				-0.9999987483024597
			],
			"type":"VEC3"
		},
		{
			"bufferView":240,
			"componentType":5126,
			"count":890,
			"type":"VEC3"
		},
		{
			"bufferView":241,
			"componentType":5126,
			"count":890,
			"type":"VEC2"
		},
		{
			"bufferView":242,
			"componentType":5126,
			"count":890,
			"type":"VEC4"
		},
		{
			"bufferView":243,
			"componentType":5126,
			"count":196,
			"max":[
				0.03183292970061302,
				5.497008323669434,
				0.03183300420641899
			],
			"min":[
				-0.03183287754654884,
				1.1592769622802734,
				-0.031832873821258545
			],
			"type":"VEC3"
		},
		{
			"bufferView":244,
			"componentType":5126,
			"count":196,
			"type":"VEC3"
		},
		{
			"bufferView":245,
			"componentType":5126,
			"count":196,
			"type":"VEC2"
		},
		{
			"bufferView":246,
			"componentType":5126,
			"count":196,
			"type":"VEC4"
		},
		{
			"bufferView":247,
			"componentType":5126,
			"count":42,
			"max":[
				0.003201076528057456,
				1.0118790669366717e-05,
				0.003250457812100649
			],
			"min":[
				-0.0032010762952268124,
				1.0117564670508727e-05,
				-0.003250457812100649
			],
			"type":"VEC3"
		},
		{
			"bufferView":248,
			"componentType":5126,
			"count":42,
			"type":"VEC3"
		},
		{
			"bufferView":249,
			"componentType":5126,
			"count":42,
			"type":"VEC2"
		},
		{
			"bufferView":250,
			"componentType":5126,
			"count":42,
			"type":"VEC4"
		},
		{
			"bufferView":251,
			"componentType":5123,
			"count":120,
			"type":"SCALAR"
		},
		{
			"bufferView":252,
			"componentType":5126,
			"count":450,
			"max":[
				1,
				1.3887839317321777,
				1
			],
			"min":[
				-1,
				-1,
				-1
			],
			"type":"VEC3"
		},
		{
			"bufferView":253,
			"componentType":5126,
			"count":450,
			"type":"VEC3"
		},
		{
			"bufferView":254,
			"componentType":5126,
			"count":450,
			"type":"VEC2"
		},
		{
			"bufferView":255,
			"componentType":5126,
			"count":450,
			"max":[
				1,
				1.3887839317321777,
				1
			],
			"min":[
				-1,
				-1,
				-1
			],
			"type":"VEC3"
		},
		{
			"bufferView":256,
			"componentType":5126,
			"count":450,
			"type":"VEC3"
		},
		{
			"bufferView":257,
			"componentType":5126,
			"count":450,
			"type":"VEC2"
		},
		{
			"bufferView":258,
			"componentType":5126,
			"count":219456,
			"max":[
				1,
				0.1198204830288887,
				1
			],
			"min":[
				-11,
				-0.009999999776482582,
				-95
			],
			"type":"VEC3"
		},
		{
			"bufferView":259,
			"componentType":5126,
			"count":219456,
			"type":"VEC3"
		},
		{
			"bufferView":260,
			"componentType":5126,
			"count":219456,
			"type":"VEC2"
		},
		{
			"bufferView":261,
			"componentType":5125,
			"count":397440,
			"type":"SCALAR"
		}
	],
	"bufferViews":[
		{
			"buffer":0,
			"byteLength":10680,
			"byteOffset":0,
			"target":34962
		},
		{
			"buffer":0,
			"byteLength":10680,
			"byteOffset":10680,
			"target":34962
		},
		{
			"buffer":0,
			"byteLength":7120,
			"byteOffset":21360,
			"target":34962
		},
		{
			"buffer":0,
			"byteLength":14240,
			"byteOffset":28480,
			"target":34962
		},
		{
			"buffer":0,
			"byteLength":9600,
			"byteOffset":42720,
			"target":34963
		},
		{
			"buffer":0,
			"byteLength":2352,
			"byteOffset":52320,
			"target":34962
		},
		{
			"buffer":0,
			"byteLength":2352,
			"byteOffset":54672,
			"target":34962
		},
		{
			"buffer":0,
			"byteLength":1568,
			"byteOffset":57024,
			"target":34962
		},
		{
			"buffer":0,
			"byteLength":3136,
			"byteOffset":58592,
			"target":34962
		},
		{
			"buffer":0,
			"byteLength":1152,
			"byteOffset":61728,
			"target":34963
		},
		{
			"buffer":0,
			"byteLength":168,
			"byteOffset":62880,
			"target":34962
		},
		{
			"buffer":0,
			"byteLength":168,
			"byteOffset":63048,
			"target":34962
		},
		{
			"buffer":0,
			"byteLength":112,
			"byteOffset":63216,
			"target":34962
		},
		{
			"buffer":0,
			"byteLength":224,
			"byteOffset":63328,
			"target":34962
		},
		{
			"buffer":0,
			"byteLength":48,
			"byteOffset":63552,
			"target":34963
		},
		{
			"buffer":0,
			"byteLength":4644,
			"byteOffset":63600,
			"target":34962
		},
		{
			"buffer":0,
			"byteLength":4644,
			"byteOffset":68244,
			"target":34962
		},
		{
			"buffer":0,
			"byteLength":3096,
			"byteOffset":72888,
			"target":34962
		},
		{
			"buffer":0,
			"byteLength":1716,
			"byteOffset":75984,
			"target":34963
		},
		{
			"buffer":0,
			"byteLength":6576,
			"byteOffset":77700,
			"target":34962
		},
		{
			"buffer":0,
			"byteLength":6576,
			"byteOffset":84276,
			"target":34962
		},
		{
			"buffer":0,
			"byteLength":4384,
			"byteOffset":90852,
			"target":34962
		},
		{
			"buffer":0,
			"byteLength":2100,
			"byteOffset":95236,
			"target":34963
		},
		{
			"buffer":0,
			"byteLength":1536,
			"byteOffset":97336,
			"target":34962
		},
		{
			"buffer":0,
			"byteLength":1536,
			"byteOffset":98872,
			"target":34962
		},
		{
			"buffer":0,
			"byteLength":1024,
			"byteOffset":100408,
			"target":34962
		},
		{
			"buffer":0,
			"byteLength":384,
			"byteOffset":101432,
			"target":34963
		},
		{
			"buffer":0,
			"byteLength":8448,
			"byteOffset":101816,
			"target":34962
		},
		{
			"buffer":0,
			"byteLength":8448,
			"byteOffset":110264,
			"target":34962
		},
		{
			"buffer":0,
			"byteLength":5632,
			"byteOffset":118712,
			"target":34962
		},
		{
			"buffer":0,
			"byteLength":3504,
			"byteOffset":124344,
			"target":34963
		},
		{
			"buffer":0,
			"byteLength":288,
			"byteOffset":127848,
			"target":34962
		},
		{
			"buffer":0,
			"byteLength":288,
			"byteOffset":128136,
			"target":34962
		},
		{
			"buffer":0,
			"byteLength":72,
			"byteOffset":128424,
			"target":34963
		},
		{
			"buffer":0,
			"byteLength":7728,
			"byteOffset":128496,
			"target":34962
		},
		{
			"buffer":0,
			"byteLength":7728,
			"byteOffset":136224,
			"target":34962
		},
		{
			"buffer":0,
			"byteLength":2736,
			"byteOffset":143952,
			"target":34963
		},
		{
			"buffer":0,
			"byteLength":3552,
			"byteOffset":146688,
			"target":34962
		},
		{
			"buffer":0,
			"byteLength":3552,
			"byteOffset":150240,
			"target":34962
		},
		{
			"buffer":0,
			"byteLength":1056,
			"byteOffset":153792,
			"target":34963
		},
		{
			"buffer":0,
			"byteLength":48,
			"byteOffset":154848,
			"target":34962
		},
		{
			"buffer":0,
			"byteLength":48,
			"byteOffset":154896,
			"target":34962
		},
		{
			"buffer":0,
			"byteLength":12,
			"byteOffset":154944,
			"target":34963
		},
		{
			"buffer":0,
			"byteLength":7728,
			"byteOffset":154956,
			"target":34962
		},
		{
			"buffer":0,
			"byteLength":7728,
			"byteOffset":162684,
			"target":34962
		},
		{
			"buffer":0,
			"byteLength":3552,
			"byteOffset":170412,
			"target":34962
		},
		{
			"buffer":0,
			"byteLength":3552,
			"byteOffset":173964,
			"target":34962
		},
		{
			"buffer":0,
			"byteLength":1056,
			"byteOffset":177516,
			"target":34963
		},
		{
			"buffer":0,
			"byteLength":48,
			"byteOffset":178572,
			"target":34962
		},
		{
			"buffer":0,
			"byteLength":48,
			"byteOffset":178620,
			"target":34962
		},
		{
			"buffer":0,
			"byteLength":288,
			"byteOffset":178668,
			"target":34962
		},
		{
			"buffer":0,
			"byteLength":288,
			"byteOffset":178956,
			"target":34962
		},
		{
			"buffer":0,
			"byteLength":72,
			"byteOffset":179244,
			"target":34963
		},
		{
			"buffer":0,
			"byteLength":4224,
			"byteOffset":179316,
			"target":34962
		},
		{
			"buffer":0,
			"byteLength":4224,
			"byteOffset":183540,
			"target":34962
		},
		{
			"buffer":0,
			"byteLength":1248,
			"byteOffset":187764,
			"target":34963
		},
		{
			"buffer":0,
			"byteLength":5148,
			"byteOffset":189012,
			"target":34962
		},
		{
			"buffer":0,
			"byteLength":5148,
			"byteOffset":194160,
			"target":34962
		},
		{
			"buffer":0,
			"byteLength":3432,
			"byteOffset":199308,
			"target":34962
		},
		{
			"buffer":0,
			"byteLength":6864,
			"byteOffset":202740,
			"target":34962
		},
		{
			"buffer":0,
			"byteLength":4608,
			"byteOffset":209604,
			"target":34963
		},
		{
			"buffer":0,
			"byteLength":1176,
			"byteOffset":214212,
			"target":34962
		},
		{
			"buffer":0,
			"byteLength":1176,
			"byteOffset":215388,
			"target":34962
		},
		{
			"buffer":0,
			"byteLength":784,
			"byteOffset":216564,
			"target":34962
		},
		{
			"buffer":0,
			"byteLength":1568,
			"byteOffset":217348,
			"target":34962
		},
		{
			"buffer":0,
			"byteLength":576,
			"byteOffset":218916,
			"target":34963
		},
		{
			"buffer":0,
			"byteLength":5400,
			"byteOffset":219492,
			"target":34962
		},
		{
			"buffer":0,
			"byteLength":5400,
			"byteOffset":224892,
			"target":34962
		},
		{
			"buffer":0,
			"byteLength":3600,
			"byteOffset":230292,
			"target":34962
		},
		{
			"buffer":0,
			"byteLength":2664,
			"byteOffset":233892,
			"target":34963
		},
		{
			"buffer":0,
			"byteLength":5400,
			"byteOffset":236556,
			"target":34962
		},
		{
			"buffer":0,
			"byteLength":5400,
			"byteOffset":241956,
			"target":34962
		},
		{
			"buffer":0,
			"byteLength":3600,
			"byteOffset":247356,
			"target":34962
		},
		{
			"buffer":0,
			"byteLength":5400,
			"byteOffset":250956,
			"target":34962
		},
		{
			"buffer":0,
			"byteLength":5400,
			"byteOffset":256356,
			"target":34962
		},
		{
			"buffer":0,
			"byteLength":3600,
			"byteOffset":261756,
			"target":34962
		},
		{
			"buffer":0,
			"byteLength":1045080,
			"byteOffset":265356,
			"target":34962
		},
		{
			"buffer":0,
			"byteLength":1045080,
			"byteOffset":1310436,
			"target":34962
		},
		{
			"buffer":0,
			"byteLength":696720,
			"byteOffset":2355516,
			"target":34962
		},
		{
			"buffer":0,
			"byteLength":631152,
			"byteOffset":3052236,
			"target":34963
		},
		{
			"buffer":0,
			"byteLength":8448,
			"byteOffset":3683388,
			"target":34962
		},
		{
			"buffer":0,
			"byteLength":8448,
			"byteOffset":3691836,
			"target":34962
		},
		{
			"buffer":0,
			"byteLength":5632,
			"byteOffset":3700284,
			"target":34962
		},
		{
			"buffer":0,
			"byteLength":5400,
			"byteOffset":3705916,
			"target":34962
		},
		{
			"buffer":0,
			"byteLength":5400,
			"byteOffset":3711316,
			"target":34962
		},
		{
			"buffer":0,
			"byteLength":3600,
			"byteOffset":3716716,
			"target":34962
		},
		{
			"buffer":0,
			"byteLength":4644,
			"byteOffset":3720316,
			"target":34962
		},
		{
			"buffer":0,
			"byteLength":4644,
			"byteOffset":3724960,
			"target":34962
		},
		{
			"buffer":0,
			"byteLength":3096,
			"byteOffset":3729604,
			"target":34962
		},
		{
			"buffer":0,
			"byteLength":6576,
			"byteOffset":3732700,
			"target":34962
		},
		{
			"buffer":0,
			"byteLength":6576,
			"byteOffset":3739276,
			"target":34962
		},
		{
			"buffer":0,
			"byteLength":4384,
			"byteOffset":3745852,
			"target":34962
		},
		{
			"buffer":0,
			"byteLength":1536,
			"byteOffset":3750236,
			"target":34962
		},
		{
			"buffer":0,
			"byteLength":1536,
			"byteOffset":3751772,
			"target":34962
		},
		{
			"buffer":0,
			"byteLength":1024,
			"byteOffset":3753308,
			"target":34962
		},
		{
			"buffer":0,
			"byteLength":5400,
			"byteOffset":3754332,
			"target":34962
		},
		{
			"buffer":0,
			"byteLength":5400,
			"byteOffset":3759732,
			"target":34962
		},
		{
			"buffer":0,
			"byteLength":3600,
			"byteOffset":3765132,
			"target":34962
		},
		{
			"buffer":0,
			"byteLength":5400,
			"byteOffset":3768732,
			"target":34962
		},
		{
			"buffer":0,
			"byteLength":5400,
			"byteOffset":3774132,
			"target":34962
		},
		{
			"buffer":0,
			"byteLength":3600,
			"byteOffset":3779532,
			"target":34962
		},
		{
			"buffer":0,
			"byteLength":5400,
			"byteOffset":3783132,
			"target":34962
		},
		{
			"buffer":0,
			"byteLength":5400,
			"byteOffset":3788532,
			"target":34962
		},
		{
			"buffer":0,
			"byteLength":3600,
			"byteOffset":3793932,
			"target":34962
		},
		{
			"buffer":0,
			"byteLength":2414448,
			"byteOffset":3797532,
			"target":34962
		},
		{
			"buffer":0,
			"byteLength":2414448,
			"byteOffset":6211980,
			"target":34962
		},
		{
			"buffer":0,
			"byteLength":1609632,
			"byteOffset":8626428,
			"target":34962
		},
		{
			"buffer":0,
			"byteLength":1458048,
			"byteOffset":10236060,
			"target":34963
		},
		{
			"buffer":0,
			"byteLength":4644,
			"byteOffset":11694108,
			"target":34962
		},
		{
			"buffer":0,
			"byteLength":4644,
			"byteOffset":11698752,
			"target":34962
		},
		{
			"buffer":0,
			"byteLength":3096,
			"byteOffset":11703396,
			"target":34962
		},
		{
			"buffer":0,
			"byteLength":6576,
			"byteOffset":11706492,
			"target":34962
		},
		{
			"buffer":0,
			"byteLength":6576,
			"byteOffset":11713068,
			"target":34962
		},
		{
			"buffer":0,
			"byteLength":4384,
			"byteOffset":11719644,
			"target":34962
		},
		{
			"buffer":0,
			"byteLength":1536,
			"byteOffset":11724028,
			"target":34962
		},
		{
			"buffer":0,
			"byteLength":1536,
			"byteOffset":11725564,
			"target":34962
		},
		{
			"buffer":0,
			"byteLength":1024,
			"byteOffset":11727100,
			"target":34962
		},
		{
			"buffer":0,
			"byteLength":4416,
			"byteOffset":11728124,
			"target":34962
		},
		{
			"buffer":0,
			"byteLength":4416,
			"byteOffset":11732540,
			"target":34962
		},
		{
			"buffer":0,
			"byteLength":2944,
			"byteOffset":11736956,
			"target":34962
		},
		{
			"buffer":0,
			"byteLength":1476,
			"byteOffset":11739900,
			"target":34963
		},
		{
			"buffer":0,
			"byteLength":5400,
			"byteOffset":11741376,
			"target":34962
		},
		{
			"buffer":0,
			"byteLength":5400,
			"byteOffset":11746776,
			"target":34962
		},
		{
			"buffer":0,
			"byteLength":3600,
			"byteOffset":11752176,
			"target":34962
		},
		{
			"buffer":0,
			"byteLength":4644,
			"byteOffset":11755776,
			"target":34962
		},
		{
			"buffer":0,
			"byteLength":4644,
			"byteOffset":11760420,
			"target":34962
		},
		{
			"buffer":0,
			"byteLength":3096,
			"byteOffset":11765064,
			"target":34962
		},
		{
			"buffer":0,
			"byteLength":6576,
			"byteOffset":11768160,
			"target":34962
		},
		{
			"buffer":0,
			"byteLength":6576,
			"byteOffset":11774736,
			"target":34962
		},
		{
			"buffer":0,
			"byteLength":4384,
			"byteOffset":11781312,
			"target":34962
		},
		{
			"buffer":0,
			"byteLength":1536,
			"byteOffset":11785696,
			"target":34962
		},
		{
			"buffer":0,
			"byteLength":1536,
			"byteOffset":11787232,
			"target":34962
		},
		{
			"buffer":0,
			"byteLength":1024,
			"byteOffset":11788768,
			"target":34962
		},
		{
			"buffer":0,
			"byteLength":5400,
			"byteOffset":11789792,
			"target":34962
		},
		{
			"buffer":0,
			"byteLength":5400,
			"byteOffset":11795192,
			"target":34962
		},
		{
			"buffer":0,
			"byteLength":3600,
			"byteOffset":11800592,
			"target":34962
		},
		{
			"buffer":0,
			"byteLength":8448,
			"byteOffset":11804192,
			"target":34962
		},
		{
			"buffer":0,
			"byteLength":8448,
			"byteOffset":11812640,
			"target":34962
		},
		{
			"buffer":0,
			"byteLength":5632,
			"byteOffset":11821088,
			"target":34962
		},
		{
			"buffer":0,
			"byteLength":5400,
			"byteOffset":11826720,
			"target":34962
		},
		{
			"buffer":0,
			"byteLength":5400,
			"byteOffset":11832120,
			"target":34962
		},
		{
			"buffer":0,
			"byteLength":3600,
			"byteOffset":11837520,
			"target":34962
		},
		{
			"buffer":0,
			"byteLength":134400,
			"byteOffset":11841120,
			"target":34962
		},
		{
			"buffer":0,
			"byteLength":134400,
			"byteOffset":11975520,
			"target":34962
		},
		{
			"buffer":0,
			"byteLength":89600,
			"byteOffset":12109920,
			"target":34962
		},
		{
			"buffer":0,
			"byteLength":36480,
			"byteOffset":12199520,
			"target":34963
		},
		{
			"buffer":0,
			"byteLength":40320,
			"byteOffset":12236000,
			"target":34962
		},
		{
			"buffer":0,
			"byteLength":40320,
			"byteOffset":12276320,
			"target":34962
		},
		{
			"buffer":0,
			"byteLength":26880,
			"byteOffset":12316640,
			"target":34962
		},
		{
			"buffer":0,
			"byteLength":10500,
			"byteOffset":12343520,
			"target":34963
		},
		{
			"buffer":0,
			"byteLength":4644,
			"byteOffset":12354020,
			"target":34962
		},
		{
			"buffer":0,
			"byteLength":4644,
			"byteOffset":12358664,
			"target":34962
		},
		{
			"buffer":0,
			"byteLength":3096,
			"byteOffset":12363308,
			"target":34962
		},
		{
			"buffer":0,
			"byteLength":6576,
			"byteOffset":12366404,
			"target":34962
		},
		{
			"buffer":0,
			"byteLength":6576,
			"byteOffset":12372980,
			"target":34962
		},
		{
			"buffer":0,
			"byteLength":4384,
			"byteOffset":12379556,
			"target":34962
		},
		{
			"buffer":0,
			"byteLength":1536,
			"byteOffset":12383940,
			"target":34962
		},
		{
			"buffer":0,
			"byteLength":1536,
			"byteOffset":12385476,
			"target":34962
		},
		{
			"buffer":0,
			"byteLength":1024,
			"byteOffset":12387012,
			"target":34962
		},
		{
			"buffer":0,
			"byteLength":4644,
			"byteOffset":12388036,
			"target":34962
		},
		{
			"buffer":0,
			"byteLength":4644,
			"byteOffset":12392680,
			"target":34962
		},
		{
			"buffer":0,
			"byteLength":3096,
			"byteOffset":12397324,
			"target":34962
		},
		{
			"buffer":0,
			"byteLength":6576,
			"byteOffset":12400420,
			"target":34962
		},
		{
			"buffer":0,
			"byteLength":6576,
			"byteOffset":12406996,
			"target":34962
		},
		{
			"buffer":0,
			"byteLength":4384,
			"byteOffset":12413572,
			"target":34962
		},
		{
			"buffer":0,
			"byteLength":1536,
			"byteOffset":12417956,
			"target":34962
		},
		{
			"buffer":0,
			"byteLength":1536,
			"byteOffset":12419492,
			"target":34962
		},
		{
			"buffer":0,
			"byteLength":1024,
			"byteOffset":12421028,
			"target":34962
		},
		{
			"buffer":0,
			"byteLength":5400,
			"byteOffset":12422052,
			"target":34962
		},
		{
			"buffer":0,
			"byteLength":5400,
			"byteOffset":12427452,
			"target":34962
		},
		{
			"buffer":0,
			"byteLength":3600,
			"byteOffset":12432852,
			"target":34962
		},
		{
			"buffer":0,
			"byteLength":5400,
			"byteOffset":12436452,
			"target":34962
		},
		{
			"buffer":0,
			"byteLength":5400,
			"byteOffset":12441852,
			"target":34962
		},
		{
			"buffer":0,
			"byteLength":3600,
			"byteOffset":12447252,
			"target":34962
		},
		{
			"buffer":0,
			"byteLength":5148,
			"byteOffset":12450852,
			"target":34962
		},
		{
			"buffer":0,
			"byteLength":5148,
			"byteOffset":12456000,
			"target":34962
		},
		{
			"buffer":0,
			"byteLength":3432,
			"byteOffset":12461148,
			"target":34962
		},
		{
			"buffer":0,
			"byteLength":6864,
			"byteOffset":12464580,
			"target":34962
		},
		{
			"buffer":0,
			"byteLength":1176,
			"byteOffset":12471444,
			"target":34962
		},
		{
			"buffer":0,
			"byteLength":1176,
			"byteOffset":12472620,
			"target":34962
		},
		{
			"buffer":0,
			"byteLength":784,
			"byteOffset":12473796,
			"target":34962
		},
		{
			"buffer":0,
			"byteLength":1568,
			"byteOffset":12474580,
			"target":34962
		},
		{
			"buffer":0,
			"byteLength":595008,
			"byteOffset":12476148,
			"target":34962
		},
		{
			"buffer":0,
			"byteLength":595008,
			"byteOffset":13071156,
			"target":34962
		},
		{
			"buffer":0,
			"byteLength":396672,
			"byteOffset":13666164,
			"target":34962
		},
		{
			"buffer":0,
			"byteLength":489984,
			"byteOffset":14062836,
			"target":34963
		},
		{
			"buffer":0,
			"byteLength":14688,
			"byteOffset":14552820,
			"target":34962
		},
		{
			"buffer":0,
			"byteLength":14688,
			"byteOffset":14567508,
			"target":34962
		},
		{
			"buffer":0,
			"byteLength":9792,
			"byteOffset":14582196,
			"target":34962
		},
		{
			"buffer":0,
			"byteLength":4680,
			"byteOffset":14591988,
			"target":34963
		},
		{
			"buffer":0,
			"byteLength":5400,
			"byteOffset":14596668,
			"target":34962
		},
		{
			"buffer":0,
			"byteLength":5400,
			"byteOffset":14602068,
			"target":34962
		},
		{
			"buffer":0,
			"byteLength":3600,
			"byteOffset":14607468,
			"target":34962
		},
		{
			"buffer":0,
			"byteLength":595008,
			"byteOffset":14611068,
			"target":34962
		},
		{
			"buffer":0,
			"byteLength":595008,
			"byteOffset":15206076,
			"target":34962
		},
		{
			"buffer":0,
			"byteLength":396672,
			"byteOffset":15801084,
			"target":34962
		},
		{
			"buffer":0,
			"byteLength":14688,
			"byteOffset":16197756,
			"target":34962
		},
		{
			"buffer":0,
			"byteLength":14688,
			"byteOffset":16212444,
			"target":34962
		},
		{
			"buffer":0,
			"byteLength":9792,
			"byteOffset":16227132,
			"target":34962
		},
		{
			"buffer":0,
			"byteLength":5400,
			"byteOffset":16236924,
			"target":34962
		},
		{
			"buffer":0,
			"byteLength":5400,
			"byteOffset":16242324,
			"target":34962
		},
		{
			"buffer":0,
			"byteLength":3600,
			"byteOffset":16247724,
			"target":34962
		},
		{
			"buffer":0,
			"byteLength":4644,
			"byteOffset":16251324,
			"target":34962
		},
		{
			"buffer":0,
			"byteLength":4644,
			"byteOffset":16255968,
			"target":34962
		},
		{
			"buffer":0,
			"byteLength":3096,
			"byteOffset":16260612,
			"target":34962
		},
		{
			"buffer":0,
			"byteLength":6576,
			"byteOffset":16263708,
			"target":34962
		},
		{
			"buffer":0,
			"byteLength":6576,
			"byteOffset":16270284,
			"target":34962
		},
		{
			"buffer":0,
			"byteLength":4384,
			"byteOffset":16276860,
			"target":34962
		},
		{
			"buffer":0,
			"byteLength":1536,
			"byteOffset":16281244,
			"target":34962
		},
		{
			"buffer":0,
			"byteLength":1536,
			"byteOffset":16282780,
			"target":34962
		},
		{
			"buffer":0,
			"byteLength":1024,
			"byteOffset":16284316,
			"target":34962
		},
		{
			"buffer":0,
			"byteLength":384,
			"byteOffset":16285340,
			"target":34962
		},
		{
			"buffer":0,
			"byteLength":384,
			"byteOffset":16285724,
			"target":34962
		},
		{
			"buffer":0,
			"byteLength":256,
			"byteOffset":16286108,
			"target":34962
		},
		{
			"buffer":0,
			"byteLength":512,
			"byteOffset":16286364,
			"target":34962
		},
		{
			"buffer":0,
			"byteLength":108,
			"byteOffset":16286876,
			"target":34963
		},
		{
			"buffer":0,
			"byteLength":144,
			"byteOffset":16286984,
			"target":34962
		},
		{
			"buffer":0,
			"byteLength":144,
			"byteOffset":16287128,
			"target":34962
		},
		{
			"buffer":0,
			"byteLength":96,
			"byteOffset":16287272,
			"target":34962
		},
		{
			"buffer":0,
			"byteLength":192,
			"byteOffset":16287368,
			"target":34962
		},
		{
			"buffer":0,
			"byteLength":36,
			"byteOffset":16287560,
			"target":34963
		},
		{
			"buffer":0,
			"byteLength":4644,
			"byteOffset":16287596,
			"target":34962
		},
		{
			"buffer":0,
			"byteLength":4644,
			"byteOffset":16292240,
			"target":34962
		},
		{
			"buffer":0,
			"byteLength":3096,
			"byteOffset":16296884,
			"target":34962
		},
		{
			"buffer":0,
			"byteLength":6576,
			"byteOffset":16299980,
			"target":34962
		},
		{
			"buffer":0,
			"byteLength":6576,
			"byteOffset":16306556,
			"target":34962
		},
		{
			"buffer":0,
			"byteLength":4384,
			"byteOffset":16313132,
			"target":34962
		},
		{
			"buffer":0,
			"byteLength":1536,
			"byteOffset":16317516,
			"target":34962
		},
		{
			"buffer":0,
			"byteLength":1536,
			"byteOffset":16319052,
			"target":34962
		},
		{
			"buffer":0,
			"byteLength":1024,
			"byteOffset":16320588,
			"target":34962
		},
		{
			"buffer":0,
			"byteLength":4644,
			"byteOffset":16321612,
			"target":34962
		},
		{
			"buffer":0,
			"byteLength":4644,
			"byteOffset":16326256,
			"target":34962
		},
		{
			"buffer":0,
			"byteLength":3096,
			"byteOffset":16330900,
			"target":34962
		},
		{
			"buffer":0,
			"byteLength":6576,
			"byteOffset":16333996,
			"target":34962
		},
		{
			"buffer":0,
			"byteLength":6576,
			"byteOffset":16340572,
			"target":34962
		},
		{
			"buffer":0,
			"byteLength":4384,
			"byteOffset":16347148,
			"target":34962
		},
		{
			"buffer":0,
			"byteLength":1536,
			"byteOffset":16351532,
			"target":34962
		},
		{
			"buffer":0,
			"byteLength":1536,
			"byteOffset":16353068,
			"target":34962
		},
		{
			"buffer":0,
			"byteLength":1024,
			"byteOffset":16354604,
			"target":34962
		},
		{
			"buffer":0,
			"byteLength":10680,
			"byteOffset":16355628,
			"target":34962
		},
		{
			"buffer":0,
			"byteLength":10680,
			"byteOffset":16366308,
			"target":34962
		},
		{
			"buffer":0,
			"byteLength":7120,
			"byteOffset":16376988,
			"target":34962
		},
		{
			"buffer":0,
			"byteLength":14240,
			"byteOffset":16384108,
			"target":34962
		},
		{
			"buffer":0,
			"byteLength":2352,
			"byteOffset":16398348,
			"target":34962
		},
		{
			"buffer":0,
			"byteLength":2352,
			"byteOffset":16400700,
			"target":34962
		},
		{
			"buffer":0,
			"byteLength":1568,
			"byteOffset":16403052,
			"target":34962
		},
		{
			"buffer":0,
			"byteLength":3136,
			"byteOffset":16404620,
			"target":34962
		},
		{
			"buffer":0,
			"byteLength":504,
			"byteOffset":16407756,
			"target":34962
		},
		{
			"buffer":0,
			"byteLength":504,
			"byteOffset":16408260,
			"target":34962
		},
		{
			"buffer":0,
			"byteLength":336,
			"byteOffset":16408764,
			"target":34962
		},
		{
			"buffer":0,
			"byteLength":672,
			"byteOffset":16409100,
			"target":34962
		},
		{
			"buffer":0,
			"byteLength":240,
			"byteOffset":16409772,
			"target":34963
		},
		{
			"buffer":0,
			"byteLength":5400,
			"byteOffset":16410012,
			"target":34962
		},
		{
			"buffer":0,
			"byteLength":5400,
			"byteOffset":16415412,
			"target":34962
		},
		{
			"buffer":0,
			"byteLength":3600,
			"byteOffset":16420812,
			"target":34962
		},
		{
			"buffer":0,
			"byteLength":5400,
			"byteOffset":16424412,
			"target":34962
		},
		{
			"buffer":0,
			"byteLength":5400,
			"byteOffset":16429812,
			"target":34962
		},
		{
			"buffer":0,
			"byteLength":3600,
			"byteOffset":16435212,
			"target":34962
		},
		{
			"buffer":0,
			"byteLength":2633472,
			"byteOffset":16438812,
			"target":34962
		},
		{
			"buffer":0,
			"byteLength":2633472,
			"byteOffset":19072284,
			"target":34962
		},
		{
			"buffer":0,
			"byteLength":1755648,
			"byteOffset":21705756,
			"target":34962
		},
		{
			"buffer":0,
			"byteLength":1589760,
			"byteOffset":23461404,
			"target":34963
		}
	],
	"buffers":[
		{
			"byteLength":25051164,
			"uri":"1980%27s%20Diner-399eb2be5fb8982884be1671d41dfe5f.bin"
		}
	]
}
