{
	"asset":{
		"generator":"Khronos glTF Blender I/O v5.0.21",
		"version":"2.0"
	},
	"scene":0,
	"scenes":[
		{
			"name":"Scene",
			"nodes":[
				0
			]
		}
	],
	"nodes":[
		{
			"mesh":0,
			"name":"-col",
			"translation":[
				-0.1018507182598114,
				1.6659650802612305,
				1.7395304441452026
			]
		}
	],
	"materials":[
		{
			"doubleSided":true,
			"name":"Material.001",
			"pbrMetallicRoughness":{
				"baseColorFactor":[
					0.15759985148906708,
					0.01827593334019184,
					0,
					1
				],
				"metallicFactor":0,
				"roughnessFactor":0.5
			}
		},
		{
			"doubleSided":true,
			"name":"Material.002",
			"pbrMetallicRoughness":{
				"baseColorFactor":[
					0.8000074625015259,
					0,
					0.07464247941970825,
					1
				],
				"metallicFactor":0,
				"roughnessFactor":0.5
			}
		}
	],
	"meshes":[
		{
			"name":"Cube.009",
			"primitives":[
				{
					"attributes":{
						"POSITION":0,
						"NORMAL":1,
						"TEXCOORD_0":2,
						"TANGENT":3
					},
					"indices":4
				},
				{
					"attributes":{
						"POSITION":5,
						"NORMAL":6,
						"TEXCOORD_0":7,
						"TANGENT":8
					},
					"indices":9,
					"material":0
				},
				{
					"attributes":{
						"POSITION":10,
						"NORMAL":11,
						"TEXCOORD_0":12,
						"TANGENT":13
					},
					"indices":14,
					"material":1
				}
			]
		}
	],
	"accessors":[
		{
			"bufferView":0,
			"componentType":5126,
			"count":60,
			"max":[
				1.518706202507019,
				-0.22975614666938782,
				0.364402174949646
			],
			"min":[
				-1.335886836051941,
				-0.7990078926086426,
				-3.975430488586426
			],
			"type":"VEC3"
		},
		{
			"bufferView":1,
			"componentType":5126,
			"count":60,
			"type":"VEC3"
		},
		{
			"bufferView":2,
			"componentType":5126,
			"count":60,
			"type":"VEC2"
		},
		{
			"bufferView":3,
			"componentType":5126,
			"count":60,
			"type":"VEC4"
		},
		{
			"bufferView":4,
			"componentType":5123,
			"count":96,
			"type":"SCALAR"
		},
		{
			"bufferView":5,
			"componentType":5126,
			"count":157,
			"max":[
				1.4806594848632812,
				0.7985020875930786,
				0.47765791416168213
			],
			"min":[
				-1.2769579887390137,
				-1.66245698928833,
				-3.956718921661377
			],
			"type":"VEC3"
		},
		{
			"bufferView":6,
			"componentType":5126,
			"count":157,
			"type":"VEC3"
		},
		{
			"bufferView":7,
			"componentType":5126,
			"count":157,
			"type":"VEC2"
		},
		{
			"bufferView":8,
			"componentType":5126,
			"count":157,
			"type":"VEC4"
		},
		{
			"bufferView":9,
			"componentType":5123,
			"count":276,
			"type":"SCALAR"
		},
		{
			"bufferView":10,
			"componentType":5126,
			"count":24,
			"max":[
				1.5720282793045044,
				-0.3711968660354614,
				-0.3904799222946167
			],
			"min":[
				-1.4101707935333252,
				-0.7849291563034058,
				-3.9914002418518066
			],
			"type":"VEC3"
		},
		{
			"bufferView":11,
			"componentType":5126,
			"count":24,
			"type":"VEC3"
		},
		{
			"bufferView":12,
			"componentType":5126,
			"count":24,
			"type":"VEC2"
		},
		{
			"bufferView":13,
			"componentType":5126,
			"count":24,
			"type":"VEC4"
		},
		{
			"bufferView":14,
			"componentType":5123,
			"count":36,
			"type":"SCALAR"
		}
	],
	"bufferViews":[
		{
			"buffer":0,
			"byteLength":720,
			"byteOffset":0,
			"target":34962
		},
		{
			"buffer":0,
			"byteLength":720,
			"byteOffset":720,
			"target":34962
		},
		{
			"buffer":0,
			"byteLength":480,
			"byteOffset":1440,
			"target":34962
		},
		{
			"buffer":0,
			"byteLength":960,
			"byteOffset":1920,
			"target":34962
		},
		{
			"buffer":0,
			"byteLength":192,
			"byteOffset":2880,
			"target":34963
		},
		{
			"buffer":0,
			"byteLength":1884,
			"byteOffset":3072,
			"target":34962
		},
		{
			"buffer":0,
			"byteLength":1884,
			"byteOffset":4956,
			"target":34962
		},
		{
			"buffer":0,
			"byteLength":1256,
			"byteOffset":6840,
			"target":34962
		},
		{
			"buffer":0,
			"byteLength":2512,
			"byteOffset":8096,
			"target":34962
		},
		{
			"buffer":0,
			"byteLength":552,
			"byteOffset":10608,
			"target":34963
		},
		{
			"buffer":0,
			"byteLength":288,
			"byteOffset":11160,
			"target":34962
		},
		{
			"buffer":0,
			"byteLength":288,
			"byteOffset":11448,
			"target":34962
		},
		{
			"buffer":0,
			"byteLength":192,
			"byteOffset":11736,
			"target":34962
		},
		{
			"buffer":0,
			"byteLength":384,
			"byteOffset":11928,
			"target":34962
		},
		{
			"buffer":0,
			"byteLength":72,
			"byteOffset":12312,
			"target":34963
		}
	],
	"buffers":[
		{
			"byteLength":12384,
			"uri":"bed%20%28made%20by%20me%29-82578965ca4e1e0b6e10b51fcc5ee36f.bin"
		}
	]
}
