{
	"asset":{
		"generator":"Khronos glTF Blender I/O v5.0.21",
		"version":"2.0"
	},
	"scene":0,
	"scenes":[
		{
			"name":"Scene",
			"nodes":[
				0,
				1,
				2,
				3,
				4,
				5,
				6
			]
		}
	],
	"nodes":[
		{
			"mesh":0,
			"name":"Cube",
			"scale":[
				1,
				0.7483385801315308,
				1
			],
			"translation":[
				0.491087943315506,
				1.0307905673980713,
				-0.7697864770889282
			]
		},
		{
			"mesh":1,
			"name":"Cylinder",
			"rotation":[
				0,
				0,
				-0.7071068286895752,
				0.7071068286895752
			],
			"scale":[
				0.7010226249694824,
				0.5454458594322205,
				0.6979008913040161
			],
			"translation":[
				0.5998551845550537,
				1.0326844453811646,
				-0.05803689360618591
			]
		},
		{
			"mesh":2,
			"name":"Cube.002",
			"translation":[
				0.491087943315506,
				1.0398937463760376,
				-0.7697864770889282
			]
		},
		{
			"mesh":3,
			"name":"Cube.003",
			"translation":[
				0.491087943315506,
				2.7652039527893066,
				-0.7697864770889282
			]
		},
		{
			"mesh":4,
			"name":"Cube.001",
			"scale":[
				0.5355293154716492,
				0.33510690927505493,
				0.5152757167816162
			],
			"translation":[
				0,
				1.9868364334106445,
				-0.10941904038190842
			]
		},
		{
			"mesh":5,
			"name":"Cylinder.002",
			"rotation":[
				0,
				1,
				0,
				0
			],
			"scale":[
				-0.24918711185455322,
				-0.12616360187530518,
				-0.26911211013793945
			],
			"translation":[
				0.06532660871744156,
				1.9481292963027954,
				-1.3655304908752441
			]
		},
		{
			"mesh":6,
			"name":"Cube.005",
			"scale":[
				1,
				0.8396076560020447,
				0.7162976264953613
			],
			"translation":[
				0.5765743255615234,
				3.33876895904541,
				-0.10172522813081741
			]
		}
	],
	"materials":[
		{
			"doubleSided":true,
			"name":"Material.001",
			"pbrMetallicRoughness":{
				"baseColorFactor":[
					0.017907120287418365,
					0.017907120287418365,
					0.017907120287418365,
					1
				],
				"metallicFactor":0,
				"roughnessFactor":0.5
			}
		},
		{
			"doubleSided":true,
			"name":"Material",
			"pbrMetallicRoughness":{
				"baseColorFactor":[
					0.04409709945321083,
					0.043966665863990784,
					0.12120447307825089,
					1
				],
				"metallicFactor":0,
				"roughnessFactor":0.5
			}
		},
		{
			"doubleSided":true,
			"name":"Material.005",
			"pbrMetallicRoughness":{
				"baseColorFactor":[
					0.13420291244983673,
					0.13420291244983673,
					0.13420291244983673,
					1
				],
				"metallicFactor":0,
				"roughnessFactor":0.5
			}
		},
		{
			"doubleSided":true,
			"name":"Material.007",
			"pbrMetallicRoughness":{
				"baseColorFactor":[
					0.5225067138671875,
					0.5225067138671875,
					0.5225067138671875,
					1
				],
				"metallicFactor":0,
				"roughnessFactor":0.5
			}
		},
		{
			"doubleSided":true,
			"name":"Material.006",
			"pbrMetallicRoughness":{
				"baseColorFactor":[
					0,
					0,
					0,
					1
				],
				"metallicFactor":0,
				"roughnessFactor":0.5
			}
		}
	],
	"meshes":[
		{
			"name":"Cube.001",
			"primitives":[
				{
					"attributes":{
						"POSITION":0,
						"NORMAL":1,
						"TEXCOORD_0":2,
						"TANGENT":3
					},
					"indices":4,
					"material":0
				}
			]
		},
		{
			"name":"Cylinder",
			"primitives":[
				{
					"attributes":{
						"POSITION":5,
						"NORMAL":6,
						"TEXCOORD_0":7
					},
					"indices":8,
					"material":0
				},
				{
					"attributes":{
						"POSITION":9,
						"NORMAL":10,
						"TEXCOORD_0":11
					},
					"indices":8,
					"material":1
				}
			]
		},
		{
			"name":"Cube.003",
			"primitives":[
				{
					"attributes":{
						"POSITION":12,
						"NORMAL":13,
						"TEXCOORD_0":14,
						"TANGENT":15
					},
					"indices":4,
					"material":2
				}
			]
		},
		{
			"name":"Cube.004",
			"primitives":[
				{
					"attributes":{
						"POSITION":16,
						"NORMAL":17,
						"TEXCOORD_0":18,
						"TANGENT":19
					},
					"indices":4,
					"material":2
				}
			]
		},
		{
			"name":"Cube.005",
			"primitives":[
				{
					"attributes":{
						"POSITION":20,
						"NORMAL":21,
						"TEXCOORD_0":22,
						"TANGENT":23
					},
					"indices":4,
					"material":2
				}
			]
		},
		{
			"name":"Cylinder.003",
			"primitives":[
				{
					"attributes":{
						"POSITION":24,
						"NORMAL":25,
						"TEXCOORD_0":26
					},
					"indices":27
				}
			]
		},
		{
			"name":"Cube.007",
			"primitives":[
				{
					"attributes":{
						"POSITION":28,
						"NORMAL":29,
						"TEXCOORD_0":30,
						"TANGENT":31
					},
					"indices":4,
					"material":3
				},
				{
					"attributes":{
						"POSITION":32,
						"NORMAL":33,
						"TEXCOORD_0":34,
						"TANGENT":35
					},
					"indices":4,
					"material":4
				}
			]
		}
	],
	"accessors":[
		{
			"bufferView":0,
			"componentType":5126,
			"count":24,
			"max":[
				0.13892269134521484,
				1.0016015768051147,
				2.3585057258605957
			],
			"min":[
				-1,
				-1,
				-1
			],
			"type":"VEC3"
		},
		{
			"bufferView":1,
			"componentType":5126,
			"count":24,
			"type":"VEC3"
		},
		{
			"bufferView":2,
			"componentType":5126,
			"count":24,
			"type":"VEC2"
		},
		{
			"bufferView":3,
			"componentType":5126,
			"count":24,
			"type":"VEC4"
		},
		{
			"bufferView":4,
			"componentType":5123,
			"count":36,
			"type":"SCALAR"
		},
		{
			"bufferView":5,
			"componentType":5126,
			"count":192,
			"max":[
				1,
				1,
				1
			],
			"min":[
				-1,
				-1,
				-1
			],
			"type":"VEC3"
		},
		{
			"bufferView":6,
			"componentType":5126,
			"count":192,
			"type":"VEC3"
		},
		{
			"bufferView":7,
			"componentType":5126,
			"count":192,
			"type":"VEC2"
		},
		{
			"bufferView":8,
			"componentType":5123,
			"count":372,
			"type":"SCALAR"
		},
		{
			"bufferView":9,
			"componentType":5126,
			"count":192,
			"max":[
				0.8549967408180237,
				1.0207581520080566,
				0.8440930247306824
			],
			"min":[
				-0.8549968600273132,
				-0.9792418479919434,
				-0.8440932631492615
			],
			"type":"VEC3"
		},
		{
			"bufferView":10,
			"componentType":5126,
			"count":192,
			"type":"VEC3"
		},
		{
			"bufferView":11,
			"componentType":5126,
			"count":192,
			"type":"VEC2"
		},
		{
			"bufferView":12,
			"componentType":5126,
			"count":24,
			"max":[
				0.13892269134521484,
				-0.7582067251205444,
				2.3585057258605957
			],
			"min":[
				-1,
				-1,
				-1
			],
			"type":"VEC3"
		},
		{
			"bufferView":13,
			"componentType":5126,
			"count":24,
			"type":"VEC3"
		},
		{
			"bufferView":14,
			"componentType":5126,
			"count":24,
			"type":"VEC2"
		},
		{
			"bufferView":15,
			"componentType":5126,
			"count":24,
			"type":"VEC4"
		},
		{
			"bufferView":16,
			"componentType":5126,
			"count":24,
			"max":[
				0.13892269134521484,
				-0.7582067251205444,
				2.3585057258605957
			],
			"min":[
				-1,
				-1,
				-1
			],
			"type":"VEC3"
		},
		{
			"bufferView":17,
			"componentType":5126,
			"count":24,
			"type":"VEC3"
		},
		{
			"bufferView":18,
			"componentType":5126,
			"count":24,
			"type":"VEC2"
		},
		{
			"bufferView":19,
			"componentType":5126,
			"count":24,
			"type":"VEC4"
		},
		{
			"bufferView":20,
			"componentType":5126,
			"count":24,
			"max":[
				1,
				1,
				1
			],
			"min":[
				-0.6485315561294556,
				-1,
				-1
			],
			"type":"VEC3"
		},
		{
			"bufferView":21,
			"componentType":5126,
			"count":24,
			"type":"VEC3"
		},
		{
			"bufferView":22,
			"componentType":5126,
			"count":24,
			"type":"VEC2"
		},
		{
			"bufferView":23,
			"componentType":5126,
			"count":24,
			"type":"VEC4"
		},
		{
			"bufferView":24,
			"componentType":5126,
			"count":48,
			"max":[
				1,
				1,
				1
			],
			"min":[
				-1,
				-1,
				-1
			],
			"type":"VEC3"
		},
		{
			"bufferView":25,
			"componentType":5126,
			"count":48,
			"type":"VEC3"
		},
		{
			"bufferView":26,
			"componentType":5126,
			"count":48,
			"type":"VEC2"
		},
		{
			"bufferView":27,
			"componentType":5123,
			"count":84,
			"type":"SCALAR"
		},
		{
			"bufferView":28,
			"componentType":5126,
			"count":24,
			"max":[
				-0.04776647686958313,
				-0.026253461837768555,
				1
			],
			"min":[
				-0.2580970525741577,
				-1.088070273399353,
				-1
			],
			"type":"VEC3"
		},
		{
			"bufferView":29,
			"componentType":5126,
			"count":24,
			"type":"VEC3"
		},
		{
			"bufferView":30,
			"componentType":5126,
			"count":24,
			"type":"VEC2"
		},
		{
			"bufferView":31,
			"componentType":5126,
			"count":24,
			"type":"VEC4"
		},
		{
			"bufferView":32,
			"componentType":5126,
			"count":24,
			"max":[
				-0.06272634863853455,
				0.03100692108273506,
				1.39606773853302
			],
			"min":[
				-0.5485185384750366,
				-1.2336513996124268,
				-1.39606773853302
			],
			"type":"VEC3"
		},
		{
			"bufferView":33,
			"componentType":5126,
			"count":24,
			"type":"VEC3"
		},
		{
			"bufferView":34,
			"componentType":5126,
			"count":24,
			"type":"VEC2"
		},
		{
			"bufferView":35,
			"componentType":5126,
			"count":24,
			"type":"VEC4"
		}
	],
	"bufferViews":[
		{
			"buffer":0,
			"byteLength":288,
			"byteOffset":0,
			"target":34962
		},
		{
			"buffer":0,
			"byteLength":288,
			"byteOffset":288,
			"target":34962
		},
		{
			"buffer":0,
			"byteLength":192,
			"byteOffset":576,
			"target":34962
		},
		{
			"buffer":0,
			"byteLength":384,
			"byteOffset":768,
			"target":34962
		},
		{
			"buffer":0,
			"byteLength":72,
			"byteOffset":1152,
			"target":34963
		},
		{
			"buffer":0,
			"byteLength":2304,
			"byteOffset":1224,
			"target":34962
		},
		{
			"buffer":0,
			"byteLength":2304,
			"byteOffset":3528,
			"target":34962
		},
		{
			"buffer":0,
			"byteLength":1536,
			"byteOffset":5832,
			"target":34962
		},
		{
			"buffer":0,
			"byteLength":744,
			"byteOffset":7368,
			"target":34963
		},
		{
			"buffer":0,
			"byteLength":2304,
			"byteOffset":8112,
			"target":34962
		},
		{
			"buffer":0,
			"byteLength":2304,
			"byteOffset":10416,
			"target":34962
		},
		{
			"buffer":0,
			"byteLength":1536,
			"byteOffset":12720,
			"target":34962
		},
		{
			"buffer":0,
			"byteLength":288,
			"byteOffset":14256,
			"target":34962
		},
		{
			"buffer":0,
			"byteLength":288,
			"byteOffset":14544,
			"target":34962
		},
		{
			"buffer":0,
			"byteLength":192,
			"byteOffset":14832,
			"target":34962
		},
		{
			"buffer":0,
			"byteLength":384,
			"byteOffset":15024,
			"target":34962
		},
		{
			"buffer":0,
			"byteLength":288,
			"byteOffset":15408,
			"target":34962
		},
		{
			"buffer":0,
			"byteLength":288,
			"byteOffset":15696,
			"target":34962
		},
		{
			"buffer":0,
			"byteLength":192,
			"byteOffset":15984,
			"target":34962
		},
		{
			"buffer":0,
			"byteLength":384,
			"byteOffset":16176,
			"target":34962
		},
		{
			"buffer":0,
			"byteLength":288,
			"byteOffset":16560,
			"target":34962
		},
		{
			"buffer":0,
			"byteLength":288,
			"byteOffset":16848,
			"target":34962
		},
		{
			"buffer":0,
			"byteLength":192,
			"byteOffset":17136,
			"target":34962
		},
		{
			"buffer":0,
			"byteLength":384,
			"byteOffset":17328,
			"target":34962
		},
		{
			"buffer":0,
			"byteLength":576,
			"byteOffset":17712,
			"target":34962
		},
		{
			"buffer":0,
			"byteLength":576,
			"byteOffset":18288,
			"target":34962
		},
		{
			"buffer":0,
			"byteLength":384,
			"byteOffset":18864,
			"target":34962
		},
		{
			"buffer":0,
			"byteLength":168,
			"byteOffset":19248,
			"target":34963
		},
		{
			"buffer":0,
			"byteLength":288,
			"byteOffset":19416,
			"target":34962
		},
		{
			"buffer":0,
			"byteLength":288,
			"byteOffset":19704,
			"target":34962
		},
		{
			"buffer":0,
			"byteLength":192,
			"byteOffset":19992,
			"target":34962
		},
		{
			"buffer":0,
			"byteLength":384,
			"byteOffset":20184,
			"target":34962
		},
		{
			"buffer":0,
			"byteLength":288,
			"byteOffset":20568,
			"target":34962
		},
		{
			"buffer":0,
			"byteLength":288,
			"byteOffset":20856,
			"target":34962
		},
		{
			"buffer":0,
			"byteLength":192,
			"byteOffset":21144,
			"target":34962
		},
		{
			"buffer":0,
			"byteLength":384,
			"byteOffset":21336,
			"target":34962
		}
	],
	"buffers":[
		{
			"byteLength":21720,
			"uri":"camera%20%28made%20by%20me%29-cbea4dc7b0edb404fc12a8b7dafb8b6c.bin"
		}
	]
}
