{
	"asset":{
		"generator":"Khronos glTF Blender I/O v5.0.21",
		"version":"2.0"
	},
	"scene":0,
	"scenes":[
		{
			"name":"Scene",
			"nodes":[
				0,
				1,
				2,
				3,
				4,
				5
			]
		}
	],
	"nodes":[
		{
			"mesh":0,
			"name":"Cube",
			"scale":[
				0.616310715675354,
				0.616310715675354,
				0.616310715675354
			],
			"translation":[
				0,
				0.5928614139556885,
				2.7744295597076416
			]
		},
		{
			"mesh":1,
			"name":"Cube.001",
			"scale":[
				0.616310715675354,
				0.616310715675354,
				0.616310715675354
			],
			"translation":[
				0,
				0.5928614139556885,
				1.3079215288162231
			]
		},
		{
			"mesh":2,
			"name":"Cube.004",
			"scale":[
				0.616310715675354,
				0.616310715675354,
				0.616310715675354
			],
			"translation":[
				0,
				0.5928614139556885,
				-3.195729970932007
			]
		},
		{
			"mesh":3,
			"name":"Cube.002",
			"scale":[
				0.616310715675354,
				0.616310715675354,
				0.616310715675354
			],
			"translation":[
				0,
				0.5928614139556885,
				-0.12604570388793945
			]
		},
		{
			"mesh":4,
			"name":"Cube.003",
			"scale":[
				0.616310715675354,
				0.616310715675354,
				0.616310715675354
			],
			"translation":[
				0,
				0.5928614139556885,
				-1.6428501605987549
			]
		},
		{
			"mesh":5,
			"name":"Cube.005",
			"scale":[
				0.616310715675354,
				0.616310715675354,
				0.616310715675354
			],
			"translation":[
				0,
				0.5928614139556885,
				-1.6428501605987549
			]
		}
	],
	"materials":[
		{
			"doubleSided":true,
			"name":"Box"
		},
		{
			"doubleSided":true,
			"name":"Roughness",
			"pbrMetallicRoughness":{
				"metallicFactor":0,
				"roughnessFactor":0.12727272510528564
			}
		},
		{
			"doubleSided":true,
			"name":"Box.001"
		},
		{
			"doubleSided":true,
			"name":"Roughness.001",
			"pbrMetallicRoughness":{
				"metallicFactor":0,
				"roughnessFactor":0.12727272510528564
			}
		}
	],
	"meshes":[
		{
			"name":"Cube.001",
			"primitives":[
				{
					"attributes":{
						"POSITION":0,
						"NORMAL":1,
						"TEXCOORD_0":2,
						"TANGENT":3
					},
					"indices":4,
					"material":0
				},
				{
					"attributes":{
						"POSITION":5,
						"NORMAL":6,
						"TEXCOORD_0":7,
						"TANGENT":8
					},
					"indices":9,
					"material":1
				}
			]
		},
		{
			"name":"Cube.003",
			"primitives":[
				{
					"attributes":{
						"POSITION":10,
						"NORMAL":11,
						"TEXCOORD_0":12
					},
					"indices":13,
					"material":0
				},
				{
					"attributes":{
						"POSITION":14,
						"NORMAL":15,
						"TEXCOORD_0":16
					},
					"indices":17,
					"material":1
				}
			]
		},
		{
			"name":"Cube.006",
			"primitives":[
				{
					"attributes":{
						"POSITION":18,
						"NORMAL":19,
						"TEXCOORD_0":20,
						"TANGENT":21
					},
					"indices":22,
					"material":0
				},
				{
					"attributes":{
						"POSITION":23,
						"NORMAL":24,
						"TEXCOORD_0":25,
						"TANGENT":26
					},
					"indices":27,
					"material":1
				}
			]
		},
		{
			"name":"Cube.004",
			"primitives":[
				{
					"attributes":{
						"POSITION":28,
						"NORMAL":29,
						"TEXCOORD_0":30
					},
					"indices":31,
					"material":0
				},
				{
					"attributes":{
						"POSITION":32,
						"NORMAL":33,
						"TEXCOORD_0":34
					},
					"indices":17,
					"material":1
				}
			]
		},
		{
			"name":"Cube.005",
			"primitives":[
				{
					"attributes":{
						"POSITION":35,
						"NORMAL":36,
						"TEXCOORD_0":37,
						"TANGENT":38
					},
					"indices":39,
					"material":0
				},
				{
					"attributes":{
						"POSITION":40,
						"NORMAL":41,
						"TEXCOORD_0":42,
						"TANGENT":43
					},
					"indices":44,
					"material":1
				}
			]
		},
		{
			"name":"Cube.002",
			"primitives":[
				{
					"attributes":{
						"POSITION":45,
						"NORMAL":46,
						"TEXCOORD_0":47,
						"TANGENT":48
					},
					"indices":39,
					"material":2
				},
				{
					"attributes":{
						"POSITION":49,
						"NORMAL":50,
						"TEXCOORD_0":51,
						"TANGENT":52
					},
					"indices":44,
					"material":3
				}
			]
		}
	],
	"accessors":[
		{
			"bufferView":0,
			"componentType":5126,
			"count":92,
			"max":[
				1,
				1,
				1
			],
			"min":[
				-1,
				-1,
				-1
			],
			"type":"VEC3"
		},
		{
			"bufferView":1,
			"componentType":5126,
			"count":92,
			"type":"VEC3"
		},
		{
			"bufferView":2,
			"componentType":5126,
			"count":92,
			"type":"VEC2"
		},
		{
			"bufferView":3,
			"componentType":5126,
			"count":92,
			"type":"VEC4"
		},
		{
			"bufferView":4,
			"componentType":5123,
			"count":240,
			"type":"SCALAR"
		},
		{
			"bufferView":5,
			"componentType":5126,
			"count":84,
			"max":[
				1,
				1,
				0.24264267086982727
			],
			"min":[
				-1,
				-1,
				-0.20030054450035095
			],
			"type":"VEC3"
		},
		{
			"bufferView":6,
			"componentType":5126,
			"count":84,
			"type":"VEC3"
		},
		{
			"bufferView":7,
			"componentType":5126,
			"count":84,
			"type":"VEC2"
		},
		{
			"bufferView":8,
			"componentType":5126,
			"count":84,
			"type":"VEC4"
		},
		{
			"bufferView":9,
			"componentType":5123,
			"count":180,
			"type":"SCALAR"
		},
		{
			"bufferView":10,
			"componentType":5126,
			"count":110,
			"max":[
				1,
				1,
				1
			],
			"min":[
				-1,
				-1,
				-1
			],
			"type":"VEC3"
		},
		{
			"bufferView":11,
			"componentType":5126,
			"count":110,
			"type":"VEC3"
		},
		{
			"bufferView":12,
			"componentType":5126,
			"count":110,
			"type":"VEC2"
		},
		{
			"bufferView":13,
			"componentType":5123,
			"count":276,
			"type":"SCALAR"
		},
		{
			"bufferView":14,
			"componentType":5126,
			"count":80,
			"max":[
				1,
				1,
				0.24264267086982727
			],
			"min":[
				-1,
				-1,
				-0.20030054450035095
			],
			"type":"VEC3"
		},
		{
			"bufferView":15,
			"componentType":5126,
			"count":80,
			"type":"VEC3"
		},
		{
			"bufferView":16,
			"componentType":5126,
			"count":80,
			"type":"VEC2"
		},
		{
			"bufferView":17,
			"componentType":5123,
			"count":168,
			"type":"SCALAR"
		},
		{
			"bufferView":18,
			"componentType":5126,
			"count":144,
			"max":[
				1.0142515897750854,
				0.7799511551856995,
				1.101436734199524
			],
			"min":[
				-1.0142515897750854,
				-0.7799058556556702,
				-1.1094207763671875
			],
			"type":"VEC3"
		},
		{
			"bufferView":19,
			"componentType":5126,
			"count":144,
			"type":"VEC3"
		},
		{
			"bufferView":20,
			"componentType":5126,
			"count":144,
			"type":"VEC2"
		},
		{
			"bufferView":21,
			"componentType":5126,
			"count":144,
			"type":"VEC4"
		},
		{
			"bufferView":22,
			"componentType":5123,
			"count":252,
			"type":"SCALAR"
		},
		{
			"bufferView":23,
			"componentType":5126,
			"count":96,
			"max":[
				1.0142515897750854,
				0.7799511551856995,
				0.2678837180137634
			],
			"min":[
				-1.0142515897750854,
				-0.7799058556556702,
				-0.24024301767349243
			],
			"type":"VEC3"
		},
		{
			"bufferView":24,
			"componentType":5126,
			"count":96,
			"type":"VEC3"
		},
		{
			"bufferView":25,
			"componentType":5126,
			"count":96,
			"type":"VEC2"
		},
		{
			"bufferView":26,
			"componentType":5126,
			"count":96,
			"type":"VEC4"
		},
		{
			"bufferView":27,
			"componentType":5123,
			"count":168,
			"type":"SCALAR"
		},
		{
			"bufferView":28,
			"componentType":5126,
			"count":152,
			"max":[
				1.0394504070281982,
				1.0042929649353027,
				1.0298211574554443
			],
			"min":[
				-1,
				-1,
				-1
			],
			"type":"VEC3"
		},
		{
			"bufferView":29,
			"componentType":5126,
			"count":152,
			"type":"VEC3"
		},
		{
			"bufferView":30,
			"componentType":5126,
			"count":152,
			"type":"VEC2"
		},
		{
			"bufferView":31,
			"componentType":5123,
			"count":354,
			"type":"SCALAR"
		},
		{
			"bufferView":32,
			"componentType":5126,
			"count":80,
			"max":[
				1,
				1,
				0.24264267086982727
			],
			"min":[
				-1,
				-1,
				-0.20030054450035095
			],
			"type":"VEC3"
		},
		{
			"bufferView":33,
			"componentType":5126,
			"count":80,
			"type":"VEC3"
		},
		{
			"bufferView":34,
			"componentType":5126,
			"count":80,
			"type":"VEC2"
		},
		{
			"bufferView":35,
			"componentType":5126,
			"count":144,
			"max":[
				1.0569031238555908,
				1,
				1.0087332725524902
			],
			"min":[
				-1.0569210052490234,
				-1,
				-1.011045217514038
			],
			"type":"VEC3"
		},
		{
			"bufferView":36,
			"componentType":5126,
			"count":144,
			"type":"VEC3"
		},
		{
			"bufferView":37,
			"componentType":5126,
			"count":144,
			"type":"VEC2"
		},
		{
			"bufferView":38,
			"componentType":5126,
			"count":144,
			"type":"VEC4"
		},
		{
			"bufferView":39,
			"componentType":5123,
			"count":252,
			"type":"SCALAR"
		},
		{
			"bufferView":40,
			"componentType":5126,
			"count":104,
			"max":[
				1.0567965507507324,
				1,
				0.26700419187545776
			],
			"min":[
				-1.0566301345825195,
				-1,
				-0.23754695057868958
			],
			"type":"VEC3"
		},
		{
			"bufferView":41,
			"componentType":5126,
			"count":104,
			"type":"VEC3"
		},
		{
			"bufferView":42,
			"componentType":5126,
			"count":104,
			"type":"VEC2"
		},
		{
			"bufferView":43,
			"componentType":5126,
			"count":104,
			"type":"VEC4"
		},
		{
			"bufferView":44,
			"componentType":5123,
			"count":168,
			"type":"SCALAR"
		},
		{
			"bufferView":45,
			"componentType":5126,
			"count":144,
			"max":[
				1.0569031238555908,
				1,
				1.0087332725524902
			],
			"min":[
				-1.0569210052490234,
				-1,
				-1.011045217514038
			],
			"type":"VEC3"
		},
		{
			"bufferView":46,
			"componentType":5126,
			"count":144,
			"type":"VEC3"
		},
		{
			"bufferView":47,
			"componentType":5126,
			"count":144,
			"type":"VEC2"
		},
		{
			"bufferView":48,
			"componentType":5126,
			"count":144,
			"type":"VEC4"
		},
		{
			"bufferView":49,
			"componentType":5126,
			"count":104,
			"max":[
				1.0567965507507324,
				1,
				0.26700419187545776
			],
			"min":[
				-1.0566301345825195,
				-1,
				-0.23754695057868958
			],
			"type":"VEC3"
		},
		{
			"bufferView":50,
			"componentType":5126,
			"count":104,
			"type":"VEC3"
		},
		{
			"bufferView":51,
			"componentType":5126,
			"count":104,
			"type":"VEC2"
		},
		{
			"bufferView":52,
			"componentType":5126,
			"count":104,
			"type":"VEC4"
		}
	],
	"bufferViews":[
		{
			"buffer":0,
			"byteLength":1104,
			"byteOffset":0,
			"target":34962
		},
		{
			"buffer":0,
			"byteLength":1104,
			"byteOffset":1104,
			"target":34962
		},
		{
			"buffer":0,
			"byteLength":736,
			"byteOffset":2208,
			"target":34962
		},
		{
			"buffer":0,
			"byteLength":1472,
			"byteOffset":2944,
			"target":34962
		},
		{
			"buffer":0,
			"byteLength":480,
			"byteOffset":4416,
			"target":34963
		},
		{
			"buffer":0,
			"byteLength":1008,
			"byteOffset":4896,
			"target":34962
		},
		{
			"buffer":0,
			"byteLength":1008,
			"byteOffset":5904,
			"target":34962
		},
		{
			"buffer":0,
			"byteLength":672,
			"byteOffset":6912,
			"target":34962
		},
		{
			"buffer":0,
			"byteLength":1344,
			"byteOffset":7584,
			"target":34962
		},
		{
			"buffer":0,
			"byteLength":360,
			"byteOffset":8928,
			"target":34963
		},
		{
			"buffer":0,
			"byteLength":1320,
			"byteOffset":9288,
			"target":34962
		},
		{
			"buffer":0,
			"byteLength":1320,
			"byteOffset":10608,
			"target":34962
		},
		{
			"buffer":0,
			"byteLength":880,
			"byteOffset":11928,
			"target":34962
		},
		{
			"buffer":0,
			"byteLength":552,
			"byteOffset":12808,
			"target":34963
		},
		{
			"buffer":0,
			"byteLength":960,
			"byteOffset":13360,
			"target":34962
		},
		{
			"buffer":0,
			"byteLength":960,
			"byteOffset":14320,
			"target":34962
		},
		{
			"buffer":0,
			"byteLength":640,
			"byteOffset":15280,
			"target":34962
		},
		{
			"buffer":0,
			"byteLength":336,
			"byteOffset":15920,
			"target":34963
		},
		{
			"buffer":0,
			"byteLength":1728,
			"byteOffset":16256,
			"target":34962
		},
		{
			"buffer":0,
			"byteLength":1728,
			"byteOffset":17984,
			"target":34962
		},
		{
			"buffer":0,
			"byteLength":1152,
			"byteOffset":19712,
			"target":34962
		},
		{
			"buffer":0,
			"byteLength":2304,
			"byteOffset":20864,
			"target":34962
		},
		{
			"buffer":0,
			"byteLength":504,
			"byteOffset":23168,
			"target":34963
		},
		{
			"buffer":0,
			"byteLength":1152,
			"byteOffset":23672,
			"target":34962
		},
		{
			"buffer":0,
			"byteLength":1152,
			"byteOffset":24824,
			"target":34962
		},
		{
			"buffer":0,
			"byteLength":768,
			"byteOffset":25976,
			"target":34962
		},
		{
			"buffer":0,
			"byteLength":1536,
			"byteOffset":26744,
			"target":34962
		},
		{
			"buffer":0,
			"byteLength":336,
			"byteOffset":28280,
			"target":34963
		},
		{
			"buffer":0,
			"byteLength":1824,
			"byteOffset":28616,
			"target":34962
		},
		{
			"buffer":0,
			"byteLength":1824,
			"byteOffset":30440,
			"target":34962
		},
		{
			"buffer":0,
			"byteLength":1216,
			"byteOffset":32264,
			"target":34962
		},
		{
			"buffer":0,
			"byteLength":708,
			"byteOffset":33480,
			"target":34963
		},
		{
			"buffer":0,
			"byteLength":960,
			"byteOffset":34188,
			"target":34962
		},
		{
			"buffer":0,
			"byteLength":960,
			"byteOffset":35148,
			"target":34962
		},
		{
			"buffer":0,
			"byteLength":640,
			"byteOffset":36108,
			"target":34962
		},
		{
			"buffer":0,
			"byteLength":1728,
			"byteOffset":36748,
			"target":34962
		},
		{
			"buffer":0,
			"byteLength":1728,
			"byteOffset":38476,
			"target":34962
		},
		{
			"buffer":0,
			"byteLength":1152,
			"byteOffset":40204,
			"target":34962
		},
		{
			"buffer":0,
			"byteLength":2304,
			"byteOffset":41356,
			"target":34962
		},
		{
			"buffer":0,
			"byteLength":504,
			"byteOffset":43660,
			"target":34963
		},
		{
			"buffer":0,
			"byteLength":1248,
			"byteOffset":44164,
			"target":34962
		},
		{
			"buffer":0,
			"byteLength":1248,
			"byteOffset":45412,
			"target":34962
		},
		{
			"buffer":0,
			"byteLength":832,
			"byteOffset":46660,
			"target":34962
		},
		{
			"buffer":0,
			"byteLength":1664,
			"byteOffset":47492,
			"target":34962
		},
		{
			"buffer":0,
			"byteLength":336,
			"byteOffset":49156,
			"target":34963
		},
		{
			"buffer":0,
			"byteLength":1728,
			"byteOffset":49492,
			"target":34962
		},
		{
			"buffer":0,
			"byteLength":1728,
			"byteOffset":51220,
			"target":34962
		},
		{
			"buffer":0,
			"byteLength":1152,
			"byteOffset":52948,
			"target":34962
		},
		{
			"buffer":0,
			"byteLength":2304,
			"byteOffset":54100,
			"target":34962
		},
		{
			"buffer":0,
			"byteLength":1248,
			"byteOffset":56404,
			"target":34962
		},
		{
			"buffer":0,
			"byteLength":1248,
			"byteOffset":57652,
			"target":34962
		},
		{
			"buffer":0,
			"byteLength":832,
			"byteOffset":58900,
			"target":34962
		},
		{
			"buffer":0,
			"byteLength":1664,
			"byteOffset":59732,
			"target":34962
		}
	],
	"buffers":[
		{
			"byteLength":61396,
			"uri":"Cardboard%20Box-8faa4d80e211d9966afb34a9dbc93449.bin"
		}
	]
}
