{
	"asset":{
		"generator":"Khronos glTF Blender I/O v5.0.21",
		"version":"2.0"
	},
	"scene":0,
	"scenes":[
		{
			"name":"Scene",
			"nodes":[
				0
			]
		}
	],
	"nodes":[
		{
			"mesh":0,
			"name":"Cube.004",
			"scale":[
				0.616310715675354,
				0.616310715675354,
				0.616310715675354
			],
			"translation":[
				0,
				0.5928614139556885,
				0.03785896301269531
			]
		}
	],
	"materials":[
		{
			"doubleSided":true,
			"name":"Box"
		},
		{
			"doubleSided":true,
			"name":"Roughness",
			"pbrMetallicRoughness":{
				"metallicFactor":0,
				"roughnessFactor":0.12727272510528564
			}
		}
	],
	"meshes":[
		{
			"name":"Cube.006",
			"primitives":[
				{
					"attributes":{
						"POSITION":0,
						"NORMAL":1,
						"TEXCOORD_0":2,
						"TANGENT":3
					},
					"indices":4,
					"material":0
				},
				{
					"attributes":{
						"POSITION":5,
						"NORMAL":6,
						"TEXCOORD_0":7,
						"TANGENT":8
					},
					"indices":9,
					"material":1
				}
			]
		}
	],
	"accessors":[
		{
			"bufferView":0,
			"componentType":5126,
			"count":144,
			"max":[
				1.0142515897750854,
				0.7799511551856995,
				1.101436734199524
			],
			"min":[
				-1.0142515897750854,
				-0.7799058556556702,
				-1.1094207763671875
			],
			"type":"VEC3"
		},
		{
			"bufferView":1,
			"componentType":5126,
			"count":144,
			"type":"VEC3"
		},
		{
			"bufferView":2,
			"componentType":5126,
			"count":144,
			"type":"VEC2"
		},
		{
			"bufferView":3,
			"componentType":5126,
			"count":144,
			"type":"VEC4"
		},
		{
			"bufferView":4,
			"componentType":5123,
			"count":252,
			"type":"SCALAR"
		},
		{
			"bufferView":5,
			"componentType":5126,
			"count":96,
			"max":[
				1.0142515897750854,
				0.7799511551856995,
				0.2678837180137634
			],
			"min":[
				-1.0142515897750854,
				-0.7799058556556702,
				-0.24024301767349243
			],
			"type":"VEC3"
		},
		{
			"bufferView":6,
			"componentType":5126,
			"count":96,
			"type":"VEC3"
		},
		{
			"bufferView":7,
			"componentType":5126,
			"count":96,
			"type":"VEC2"
		},
		{
			"bufferView":8,
			"componentType":5126,
			"count":96,
			"type":"VEC4"
		},
		{
			"bufferView":9,
			"componentType":5123,
			"count":168,
			"type":"SCALAR"
		}
	],
	"bufferViews":[
		{
			"buffer":0,
			"byteLength":1728,
			"byteOffset":0,
			"target":34962
		},
		{
			"buffer":0,
			"byteLength":1728,
			"byteOffset":1728,
			"target":34962
		},
		{
			"buffer":0,
			"byteLength":1152,
			"byteOffset":3456,
			"target":34962
		},
		{
			"buffer":0,
			"byteLength":2304,
			"byteOffset":4608,
			"target":34962
		},
		{
			"buffer":0,
			"byteLength":504,
			"byteOffset":6912,
			"target":34963
		},
		{
			"buffer":0,
			"byteLength":1152,
			"byteOffset":7416,
			"target":34962
		},
		{
			"buffer":0,
			"byteLength":1152,
			"byteOffset":8568,
			"target":34962
		},
		{
			"buffer":0,
			"byteLength":768,
			"byteOffset":9720,
			"target":34962
		},
		{
			"buffer":0,
			"byteLength":1536,
			"byteOffset":10488,
			"target":34962
		},
		{
			"buffer":0,
			"byteLength":336,
			"byteOffset":12024,
			"target":34963
		}
	],
	"buffers":[
		{
			"byteLength":12360,
			"uri":"Cardboard%20Box%202-bed0389c3faa1fc8f644bff10ee6ff71.bin"
		}
	]
}
