{
	"asset":{
		"generator":"Khronos glTF Blender I/O v5.0.21",
		"version":"2.0"
	},
	"scene":0,
	"scenes":[
		{
			"name":"Scene",
			"nodes":[
				0
			]
		}
	],
	"nodes":[
		{
			"mesh":0,
			"name":"Cube.001",
			"scale":[
				0.616310715675354,
				0.616310715675354,
				0.616310715675354
			],
			"translation":[
				0,
				0.5928614139556885,
				0.059844017028808594
			]
		}
	],
	"materials":[
		{
			"doubleSided":true,
			"name":"Box"
		},
		{
			"doubleSided":true,
			"name":"Roughness",
			"pbrMetallicRoughness":{
				"metallicFactor":0,
				"roughnessFactor":0.12727272510528564
			}
		}
	],
	"meshes":[
		{
			"name":"Cube.003",
			"primitives":[
				{
					"attributes":{
						"POSITION":0,
						"NORMAL":1,
						"TEXCOORD_0":2
					},
					"indices":3,
					"material":0
				},
				{
					"attributes":{
						"POSITION":4,
						"NORMAL":5,
						"TEXCOORD_0":6
					},
					"indices":7,
					"material":1
				}
			]
		}
	],
	"accessors":[
		{
			"bufferView":0,
			"componentType":5126,
			"count":110,
			"max":[
				1,
				1,
				1
			],
			"min":[
				-1,
				-1,
				-1
			],
			"type":"VEC3"
		},
		{
			"bufferView":1,
			"componentType":5126,
			"count":110,
			"type":"VEC3"
		},
		{
			"bufferView":2,
			"componentType":5126,
			"count":110,
			"type":"VEC2"
		},
		{
			"bufferView":3,
			"componentType":5123,
			"count":276,
			"type":"SCALAR"
		},
		{
			"bufferView":4,
			"componentType":5126,
			"count":80,
			"max":[
				1,
				1,
				0.24264267086982727
			],
			"min":[
				-1,
				-1,
				-0.20030054450035095
			],
			"type":"VEC3"
		},
		{
			"bufferView":5,
			"componentType":5126,
			"count":80,
			"type":"VEC3"
		},
		{
			"bufferView":6,
			"componentType":5126,
			"count":80,
			"type":"VEC2"
		},
		{
			"bufferView":7,
			"componentType":5123,
			"count":168,
			"type":"SCALAR"
		}
	],
	"bufferViews":[
		{
			"buffer":0,
			"byteLength":1320,
			"byteOffset":0,
			"target":34962
		},
		{
			"buffer":0,
			"byteLength":1320,
			"byteOffset":1320,
			"target":34962
		},
		{
			"buffer":0,
			"byteLength":880,
			"byteOffset":2640,
			"target":34962
		},
		{
			"buffer":0,
			"byteLength":552,
			"byteOffset":3520,
			"target":34963
		},
		{
			"buffer":0,
			"byteLength":960,
			"byteOffset":4072,
			"target":34962
		},
		{
			"buffer":0,
			"byteLength":960,
			"byteOffset":5032,
			"target":34962
		},
		{
			"buffer":0,
			"byteLength":640,
			"byteOffset":5992,
			"target":34962
		},
		{
			"buffer":0,
			"byteLength":336,
			"byteOffset":6632,
			"target":34963
		}
	],
	"buffers":[
		{
			"byteLength":6968,
			"uri":"Cardboard%20Box3-4f11617e9b7be3196bab8daeae457bd0.bin"
		}
	]
}
