{
	"asset":{
		"generator":"Khronos glTF Blender I/O v5.0.21",
		"version":"2.0"
	},
	"scene":0,
	"scenes":[
		{
			"name":"Scene",
			"nodes":[
				0
			]
		}
	],
	"nodes":[
		{
			"mesh":0,
			"name":"Plane.001 -col",
			"scale":[
				-26.524442672729492,
				-41.640628814697266,
				-24.09872817993164
			],
			"translation":[
				-1.834142804145813,
				2.9977076053619385,
				0.45769354701042175
			]
		}
	],
	"materials":[
		{
			"doubleSided":true,
			"name":"Material",
			"pbrMetallicRoughness":{
				"baseColorFactor":[
					0.0508880577981472,
					0.0508880577981472,
					0.0508880577981472,
					1
				],
				"metallicFactor":0,
				"roughnessFactor":0.5
			}
		}
	],
	"meshes":[
		{
			"name":"Plane.001",
			"primitives":[
				{
					"attributes":{
						"POSITION":0,
						"NORMAL":1,
						"TEXCOORD_0":2,
						"TANGENT":3
					},
					"indices":4,
					"material":0
				}
			]
		}
	],
	"accessors":[
		{
			"bufferView":0,
			"componentType":5126,
			"count":41684,
			"max":[
				0.9114660620689392,
				0.009822464548051357,
				0.7303144335746765
			],
			"min":[
				-0.998304009437561,
				-0.09680860489606857,
				-0.9131543636322021
			],
			"type":"VEC3"
		},
		{
			"bufferView":1,
			"componentType":5126,
			"count":41684,
			"type":"VEC3"
		},
		{
			"bufferView":2,
			"componentType":5126,
			"count":41684,
			"type":"VEC2"
		},
		{
			"bufferView":3,
			"componentType":5126,
			"count":41684,
			"type":"VEC4"
		},
		{
			"bufferView":4,
			"componentType":5123,
			"count":62580,
			"type":"SCALAR"
		}
	],
	"bufferViews":[
		{
			"buffer":0,
			"byteLength":500208,
			"byteOffset":0,
			"target":34962
		},
		{
			"buffer":0,
			"byteLength":500208,
			"byteOffset":500208,
			"target":34962
		},
		{
			"buffer":0,
			"byteLength":333472,
			"byteOffset":1000416,
			"target":34962
		},
		{
			"buffer":0,
			"byteLength":666944,
			"byteOffset":1333888,
			"target":34962
		},
		{
			"buffer":0,
			"byteLength":125160,
			"byteOffset":2000832,
			"target":34963
		}
	],
	"buffers":[
		{
			"byteLength":2125992,
			"uri":"cave1-c9d7b75ccab659a26c3eb4c37b6993ff.bin"
		}
	]
}
