{
	"asset":{
		"generator":"Khronos glTF Blender I/O v5.0.21",
		"version":"2.0"
	},
	"scene":0,
	"scenes":[
		{
			"name":"Scene",
			"nodes":[
				0,
				2
			]
		}
	],
	"nodes":[
		{
			"mesh":0,
			"name":"Wooden Doorframe_005.002",
			"scale":[
				1.6537519693374634,
				1.3315424919128418,
				1
			],
			"translation":[
				0,
				1.7022068500518799,
				0
			]
		},
		{
			"mesh":1,
			"name":"Door Handle.014",
			"rotation":[
				0,
				0,
				-0.009301233105361462,
				0.9999568462371826
			],
			"scale":[
				1.101589322090149,
				1.1015894412994385,
				1.101589322090149
			],
			"translation":[
				-0.6964230537414551,
				0.1384008377790451,
				0.051574524492025375
			]
		},
		{
			"children":[
				1
			],
			"mesh":2,
			"name":"Wooden Door_008",
			"scale":[
				1.6537519693374634,
				1.3315424919128418,
				1
			],
			"translation":[
				0.6414881348609924,
				1.3168280124664307,
				0.027605175971984863
			]
		}
	],
	"materials":[
		{
			"doubleSided":true,
			"name":"Doors",
			"pbrMetallicRoughness":{
				"baseColorFactor":[
					0.33167675137519836,
					0.9155592918395996,
					0.6011276245117188,
					1
				],
				"metallicFactor":0,
				"roughnessFactor":0.4000000059604645
			}
		}
	],
	"meshes":[
		{
			"name":"Cube.054",
			"primitives":[
				{
					"attributes":{
						"POSITION":0,
						"NORMAL":1,
						"TEXCOORD_0":2
					},
					"indices":3,
					"material":0
				}
			]
		},
		{
			"name":"Circle.033",
			"primitives":[
				{
					"attributes":{
						"POSITION":4,
						"NORMAL":5,
						"TEXCOORD_0":6
					},
					"indices":7,
					"material":0
				}
			]
		},
		{
			"name":"Cube.029",
			"primitives":[
				{
					"attributes":{
						"POSITION":8,
						"NORMAL":9,
						"TEXCOORD_0":10,
						"TANGENT":11
					},
					"indices":12,
					"material":0
				}
			]
		}
	],
	"accessors":[
		{
			"bufferView":0,
			"componentType":5126,
			"count":92,
			"max":[
				0.4485018253326416,
				0.758196234703064,
				0.07264715433120728
			],
			"min":[
				-0.4485030174255371,
				-1.1814076900482178,
				-0.0749489814043045
			],
			"type":"VEC3"
		},
		{
			"bufferView":1,
			"componentType":5126,
			"count":92,
			"type":"VEC3"
		},
		{
			"bufferView":2,
			"componentType":5126,
			"count":92,
			"type":"VEC2"
		},
		{
			"bufferView":3,
			"componentType":5123,
			"count":180,
			"type":"SCALAR"
		},
		{
			"bufferView":4,
			"componentType":5126,
			"count":256,
			"max":[
				0.10329782962799072,
				0.03015124797821045,
				0.023751039057970047
			],
			"min":[
				-0.04036521911621094,
				-0.03014872968196869,
				-0.11738762259483337
			],
			"type":"VEC3"
		},
		{
			"bufferView":5,
			"componentType":5126,
			"count":256,
			"type":"VEC3"
		},
		{
			"bufferView":6,
			"componentType":5126,
			"count":256,
			"type":"VEC2"
		},
		{
			"bufferView":7,
			"componentType":5123,
			"count":432,
			"type":"SCALAR"
		},
		{
			"bufferView":8,
			"componentType":5126,
			"count":192,
			"max":[
				-0.009531617164611816,
				0.9564788341522217,
				0.04283088445663452
			],
			"min":[
				-0.7653080224990845,
				-0.8495375514030457,
				-0.04283088445663452
			],
			"type":"VEC3"
		},
		{
			"bufferView":9,
			"componentType":5126,
			"count":192,
			"type":"VEC3"
		},
		{
			"bufferView":10,
			"componentType":5126,
			"count":192,
			"type":"VEC2"
		},
		{
			"bufferView":11,
			"componentType":5126,
			"count":192,
			"type":"VEC4"
		},
		{
			"bufferView":12,
			"componentType":5123,
			"count":408,
			"type":"SCALAR"
		}
	],
	"bufferViews":[
		{
			"buffer":0,
			"byteLength":1104,
			"byteOffset":0,
			"target":34962
		},
		{
			"buffer":0,
			"byteLength":1104,
			"byteOffset":1104,
			"target":34962
		},
		{
			"buffer":0,
			"byteLength":736,
			"byteOffset":2208,
			"target":34962
		},
		{
			"buffer":0,
			"byteLength":360,
			"byteOffset":2944,
			"target":34963
		},
		{
			"buffer":0,
			"byteLength":3072,
			"byteOffset":3304,
			"target":34962
		},
		{
			"buffer":0,
			"byteLength":3072,
			"byteOffset":6376,
			"target":34962
		},
		{
			"buffer":0,
			"byteLength":2048,
			"byteOffset":9448,
			"target":34962
		},
		{
			"buffer":0,
			"byteLength":864,
			"byteOffset":11496,
			"target":34963
		},
		{
			"buffer":0,
			"byteLength":2304,
			"byteOffset":12360,
			"target":34962
		},
		{
			"buffer":0,
			"byteLength":2304,
			"byteOffset":14664,
			"target":34962
		},
		{
			"buffer":0,
			"byteLength":1536,
			"byteOffset":16968,
			"target":34962
		},
		{
			"buffer":0,
			"byteLength":3072,
			"byteOffset":18504,
			"target":34962
		},
		{
			"buffer":0,
			"byteLength":816,
			"byteOffset":21576,
			"target":34963
		}
	],
	"buffers":[
		{
			"byteLength":22392,
			"uri":"door0.001-5e333e467ccfd02d81e2734ecfb56472.bin"
		}
	]
}
