{
	"asset":{
		"generator":"Khronos glTF Blender I/O v5.0.21",
		"version":"2.0"
	},
	"scene":0,
	"scenes":[
		{
			"name":"Scene",
			"nodes":[
				0
			]
		}
	],
	"nodes":[
		{
			"mesh":0,
			"name":"Plane.007",
			"rotation":[
				0.70710688829422,
				0,
				0,
				0.7071066498756409
			],
			"scale":[
				0.03720977529883385,
				0.03720977529883385,
				0.03720977529883385
			],
			"translation":[
				0.01580333709716797,
				1.4892467260360718,
				0.19810613989830017
			]
		}
	],
	"meshes":[
		{
			"name":"Plane.002",
			"primitives":[
				{
					"attributes":{
						"POSITION":0,
						"NORMAL":1,
						"TEXCOORD_0":2
					},
					"indices":3
				}
			]
		}
	],
	"accessors":[
		{
			"bufferView":0,
			"componentType":5126,
			"count":3050,
			"max":[
				14.224417686462402,
				2.013495683670044,
				40.064517974853516
			],
			"min":[
				-14.224417686462402,
				-7.800450801849365,
				-11.30064582824707
			],
			"type":"VEC3"
		},
		{
			"bufferView":1,
			"componentType":5126,
			"count":3050,
			"type":"VEC3"
		},
		{
			"bufferView":2,
			"componentType":5126,
			"count":3050,
			"type":"VEC2"
		},
		{
			"bufferView":3,
			"componentType":5123,
			"count":4524,
			"type":"SCALAR"
		}
	],
	"bufferViews":[
		{
			"buffer":0,
			"byteLength":36600,
			"byteOffset":0,
			"target":34962
		},
		{
			"buffer":0,
			"byteLength":36600,
			"byteOffset":36600,
			"target":34962
		},
		{
			"buffer":0,
			"byteLength":24400,
			"byteOffset":73200,
			"target":34962
		},
		{
			"buffer":0,
			"byteLength":9048,
			"byteOffset":97600,
			"target":34963
		}
	],
	"buffers":[
		{
			"byteLength":106648,
			"uri":"humanmodel1-c3f5e08bbb5856f11327941cdb96cc81.bin"
		}
	]
}
