{
	"asset":{
		"generator":"Khronos glTF Blender I/O v5.0.21",
		"version":"2.0"
	},
	"scene":0,
	"scenes":[
		{
			"name":"Scene",
			"nodes":[
				0,
				1,
				2,
				3,
				4,
				5,
				6,
				7,
				8,
				9,
				10,
				11,
				12,
				13,
				14,
				15,
				16,
				17
			]
		}
	],
	"nodes":[
		{
			"mesh":0,
			"name":"SnowBall.001",
			"scale":[
				3.143385648727417,
				1,
				3.2325174808502197
			],
			"translation":[
				-0.01252305693924427,
				0,
				50.59602355957031
			]
		},
		{
			"mesh":1,
			"name":"Plane",
			"scale":[
				6.01161003112793,
				1,
				7.000969409942627
			]
		},
		{
			"mesh":2,
			"name":"Plane.007",
			"rotation":[
				0.70710688829422,
				0,
				0,
				0.7071066498756409
			],
			"scale":[
				0.03720977529883385,
				0.03720977529883385,
				0.03720977529883385
			],
			"translation":[
				6.397373199462891,
				1.4892467260360718,
				0.19810613989830017
			]
		},
		{
			"mesh":3,
			"name":"SnowBall.002",
			"scale":[
				3.143385648727417,
				1,
				3.2325174808502197
			],
			"translation":[
				36.99380111694336,
				0,
				50.59602355957031
			]
		},
		{
			"mesh":4,
			"name":"SnowBall.003",
			"scale":[
				3.143385648727417,
				1,
				3.2325174808502197
			],
			"translation":[
				36.99380111694336,
				0,
				6.421112060546875
			]
		},
		{
			"mesh":5,
			"name":"SnowBall.004",
			"scale":[
				3.143385648727417,
				1,
				3.2325174808502197
			],
			"translation":[
				0.3954734802246094,
				0,
				6.421112060546875
			]
		},
		{
			"mesh":6,
			"name":"SnowBall.005",
			"scale":[
				3.143385648727417,
				1,
				3.2325174808502197
			],
			"translation":[
				0.3954734802246094,
				0,
				-38.01679611206055
			]
		},
		{
			"mesh":7,
			"name":"SnowBall.006",
			"scale":[
				3.143385648727417,
				1,
				3.2325174808502197
			],
			"translation":[
				36.91693115234375,
				0,
				-38.01679611206055
			]
		},
		{
			"mesh":8,
			"name":"SnowBall.007",
			"scale":[
				3.143385648727417,
				1,
				3.2325174808502197
			],
			"translation":[
				-35.66160583496094,
				0,
				-38.01679611206055
			]
		},
		{
			"mesh":9,
			"name":"SnowBall.008",
			"scale":[
				3.143385648727417,
				1,
				3.2325174808502197
			],
			"translation":[
				-72.18305969238281,
				0,
				-38.01679611206055
			]
		},
		{
			"mesh":10,
			"name":"SnowBall.009",
			"scale":[
				3.143385648727417,
				1,
				3.2325174808502197
			],
			"translation":[
				-72.18305969238281,
				0,
				6.421112060546875
			]
		},
		{
			"mesh":11,
			"name":"SnowBall.010",
			"scale":[
				3.143385648727417,
				1,
				3.2325174808502197
			],
			"translation":[
				-35.58473587036133,
				0,
				6.421112060546875
			]
		},
		{
			"mesh":12,
			"name":"SnowBall.011",
			"scale":[
				3.143385648727417,
				1,
				3.2325174808502197
			],
			"translation":[
				-35.58473587036133,
				0,
				50.59602355957031
			]
		},
		{
			"mesh":13,
			"name":"SnowBall.012",
			"scale":[
				3.143385648727417,
				1,
				3.2325174808502197
			],
			"translation":[
				-72.59105682373047,
				0,
				50.59602355957031
			]
		},
		{
			"mesh":14,
			"name":"-colonly",
			"scale":[
				121.86949920654297,
				1,
				124.29776000976562
			]
		},
		{
			"mesh":15,
			"name":"SnowBall.013",
			"scale":[
				3.143385648727417,
				1,
				3.2325174808502197
			],
			"translation":[
				73.7466049194336,
				0,
				6.015155792236328
			]
		},
		{
			"mesh":16,
			"name":"SnowBall.014",
			"scale":[
				3.143385648727417,
				1,
				3.2325174808502197
			],
			"translation":[
				73.7466049194336,
				0,
				50.59602355957031
			]
		},
		{
			"mesh":17,
			"name":"SnowBall.015",
			"scale":[
				3.143385648727417,
				1,
				3.2325174808502197
			],
			"translation":[
				73.7466049194336,
				0,
				-38.755027770996094
			]
		}
	],
	"meshes":[
		{
			"name":"Mesh",
			"primitives":[
				{
					"attributes":{
						"POSITION":0,
						"NORMAL":1
					},
					"indices":2
				}
			]
		},
		{
			"name":"Plane",
			"primitives":[
				{
					"attributes":{
						"POSITION":3,
						"NORMAL":4,
						"TEXCOORD_0":5,
						"TANGENT":6
					},
					"indices":7
				}
			]
		},
		{
			"name":"Plane.003",
			"primitives":[
				{
					"attributes":{
						"POSITION":8,
						"NORMAL":9,
						"TEXCOORD_0":10
					},
					"indices":11
				}
			]
		},
		{
			"name":"Mesh",
			"primitives":[
				{
					"attributes":{
						"POSITION":12,
						"NORMAL":13
					},
					"indices":2
				}
			]
		},
		{
			"name":"Mesh",
			"primitives":[
				{
					"attributes":{
						"POSITION":14,
						"NORMAL":15
					},
					"indices":2
				}
			]
		},
		{
			"name":"Mesh",
			"primitives":[
				{
					"attributes":{
						"POSITION":16,
						"NORMAL":17
					},
					"indices":2
				}
			]
		},
		{
			"name":"Mesh",
			"primitives":[
				{
					"attributes":{
						"POSITION":18,
						"NORMAL":19
					},
					"indices":2
				}
			]
		},
		{
			"name":"Mesh",
			"primitives":[
				{
					"attributes":{
						"POSITION":20,
						"NORMAL":21
					},
					"indices":2
				}
			]
		},
		{
			"name":"Mesh",
			"primitives":[
				{
					"attributes":{
						"POSITION":22,
						"NORMAL":23
					},
					"indices":2
				}
			]
		},
		{
			"name":"Mesh",
			"primitives":[
				{
					"attributes":{
						"POSITION":24,
						"NORMAL":25
					},
					"indices":2
				}
			]
		},
		{
			"name":"Mesh",
			"primitives":[
				{
					"attributes":{
						"POSITION":26,
						"NORMAL":27
					},
					"indices":2
				}
			]
		},
		{
			"name":"Mesh",
			"primitives":[
				{
					"attributes":{
						"POSITION":28,
						"NORMAL":29
					},
					"indices":2
				}
			]
		},
		{
			"name":"Mesh",
			"primitives":[
				{
					"attributes":{
						"POSITION":30,
						"NORMAL":31
					},
					"indices":2
				}
			]
		},
		{
			"name":"Mesh",
			"primitives":[
				{
					"attributes":{
						"POSITION":32,
						"NORMAL":33
					},
					"indices":2
				}
			]
		},
		{
			"name":"Plane.004",
			"primitives":[
				{
					"attributes":{
						"POSITION":34,
						"NORMAL":35,
						"TEXCOORD_0":36,
						"TANGENT":37
					},
					"indices":7
				}
			]
		},
		{
			"name":"Mesh",
			"primitives":[
				{
					"attributes":{
						"POSITION":38,
						"NORMAL":39
					},
					"indices":2
				}
			]
		},
		{
			"name":"Mesh",
			"primitives":[
				{
					"attributes":{
						"POSITION":40,
						"NORMAL":41
					},
					"indices":2
				}
			]
		},
		{
			"name":"Mesh",
			"primitives":[
				{
					"attributes":{
						"POSITION":42,
						"NORMAL":43
					},
					"indices":2
				}
			]
		}
	],
	"accessors":[
		{
			"bufferView":0,
			"componentType":5126,
			"count":278118,
			"max":[
				6.143850803375244,
				0.18301227688789368,
				7.130429744720459
			],
			"min":[
				-6.114478588104248,
				-0.1830621212720871,
				-7.1069183349609375
			],
			"type":"VEC3"
		},
		{
			"bufferView":1,
			"componentType":5126,
			"count":278118,
			"type":"VEC3"
		},
		{
			"bufferView":2,
			"componentType":5125,
			"count":1668696,
			"type":"SCALAR"
		},
		{
			"bufferView":3,
			"componentType":5126,
			"count":4,
			"max":[
				1,
				0,
				1
			],
			"min":[
				-1,
				0,
				-1
			],
			"type":"VEC3"
		},
		{
			"bufferView":4,
			"componentType":5126,
			"count":4,
			"type":"VEC3"
		},
		{
			"bufferView":5,
			"componentType":5126,
			"count":4,
			"type":"VEC2"
		},
		{
			"bufferView":6,
			"componentType":5126,
			"count":4,
			"type":"VEC4"
		},
		{
			"bufferView":7,
			"componentType":5123,
			"count":6,
			"type":"SCALAR"
		},
		{
			"bufferView":8,
			"componentType":5126,
			"count":3050,
			"max":[
				14.224417686462402,
				2.013495683670044,
				40.064517974853516
			],
			"min":[
				-14.224417686462402,
				-7.800450801849365,
				-11.30064582824707
			],
			"type":"VEC3"
		},
		{
			"bufferView":9,
			"componentType":5126,
			"count":3050,
			"type":"VEC3"
		},
		{
			"bufferView":10,
			"componentType":5126,
			"count":3050,
			"type":"VEC2"
		},
		{
			"bufferView":11,
			"componentType":5123,
			"count":4524,
			"type":"SCALAR"
		},
		{
			"bufferView":12,
			"componentType":5126,
			"count":278118,
			"max":[
				6.143850803375244,
				0.18301227688789368,
				7.130429744720459
			],
			"min":[
				-6.114478588104248,
				-0.1830621212720871,
				-7.1069183349609375
			],
			"type":"VEC3"
		},
		{
			"bufferView":13,
			"componentType":5126,
			"count":278118,
			"type":"VEC3"
		},
		{
			"bufferView":14,
			"componentType":5126,
			"count":278118,
			"max":[
				6.143850803375244,
				0.18301227688789368,
				7.130429744720459
			],
			"min":[
				-6.114478588104248,
				-0.1830621212720871,
				-7.1069183349609375
			],
			"type":"VEC3"
		},
		{
			"bufferView":15,
			"componentType":5126,
			"count":278118,
			"type":"VEC3"
		},
		{
			"bufferView":16,
			"componentType":5126,
			"count":278118,
			"max":[
				6.143850803375244,
				0.18301227688789368,
				7.130429744720459
			],
			"min":[
				-6.114478588104248,
				-0.1830621212720871,
				-7.1069183349609375
			],
			"type":"VEC3"
		},
		{
			"bufferView":17,
			"componentType":5126,
			"count":278118,
			"type":"VEC3"
		},
		{
			"bufferView":18,
			"componentType":5126,
			"count":278118,
			"max":[
				6.143850803375244,
				0.18301227688789368,
				7.130429744720459
			],
			"min":[
				-6.114478588104248,
				-0.1830621212720871,
				-7.1069183349609375
			],
			"type":"VEC3"
		},
		{
			"bufferView":19,
			"componentType":5126,
			"count":278118,
			"type":"VEC3"
		},
		{
			"bufferView":20,
			"componentType":5126,
			"count":278118,
			"max":[
				6.143850803375244,
				0.18301227688789368,
				7.130429744720459
			],
			"min":[
				-6.114478588104248,
				-0.1830621212720871,
				-7.1069183349609375
			],
			"type":"VEC3"
		},
		{
			"bufferView":21,
			"componentType":5126,
			"count":278118,
			"type":"VEC3"
		},
		{
			"bufferView":22,
			"componentType":5126,
			"count":278118,
			"max":[
				6.143850803375244,
				0.18301227688789368,
				7.130429744720459
			],
			"min":[
				-6.114478588104248,
				-0.1830621212720871,
				-7.1069183349609375
			],
			"type":"VEC3"
		},
		{
			"bufferView":23,
			"componentType":5126,
			"count":278118,
			"type":"VEC3"
		},
		{
			"bufferView":24,
			"componentType":5126,
			"count":278118,
			"max":[
				6.143850803375244,
				0.18301227688789368,
				7.130429744720459
			],
			"min":[
				-6.114478588104248,
				-0.1830621212720871,
				-7.1069183349609375
			],
			"type":"VEC3"
		},
		{
			"bufferView":25,
			"componentType":5126,
			"count":278118,
			"type":"VEC3"
		},
		{
			"bufferView":26,
			"componentType":5126,
			"count":278118,
			"max":[
				6.143850803375244,
				0.18301227688789368,
				7.130429744720459
			],
			"min":[
				-6.114478588104248,
				-0.1830621212720871,
				-7.1069183349609375
			],
			"type":"VEC3"
		},
		{
			"bufferView":27,
			"componentType":5126,
			"count":278118,
			"type":"VEC3"
		},
		{
			"bufferView":28,
			"componentType":5126,
			"count":278118,
			"max":[
				6.143850803375244,
				0.18301227688789368,
				7.130429744720459
			],
			"min":[
				-6.114478588104248,
				-0.1830621212720871,
				-7.1069183349609375
			],
			"type":"VEC3"
		},
		{
			"bufferView":29,
			"componentType":5126,
			"count":278118,
			"type":"VEC3"
		},
		{
			"bufferView":30,
			"componentType":5126,
			"count":278118,
			"max":[
				6.143850803375244,
				0.18301227688789368,
				7.130429744720459
			],
			"min":[
				-6.114478588104248,
				-0.1830621212720871,
				-7.1069183349609375
			],
			"type":"VEC3"
		},
		{
			"bufferView":31,
			"componentType":5126,
			"count":278118,
			"type":"VEC3"
		},
		{
			"bufferView":32,
			"componentType":5126,
			"count":278118,
			"max":[
				6.143850803375244,
				0.18301227688789368,
				7.130429744720459
			],
			"min":[
				-6.114478588104248,
				-0.1830621212720871,
				-7.1069183349609375
			],
			"type":"VEC3"
		},
		{
			"bufferView":33,
			"componentType":5126,
			"count":278118,
			"type":"VEC3"
		},
		{
			"bufferView":34,
			"componentType":5126,
			"count":4,
			"max":[
				1,
				0,
				1
			],
			"min":[
				-1,
				0,
				-1
			],
			"type":"VEC3"
		},
		{
			"bufferView":35,
			"componentType":5126,
			"count":4,
			"type":"VEC3"
		},
		{
			"bufferView":36,
			"componentType":5126,
			"count":4,
			"type":"VEC2"
		},
		{
			"bufferView":37,
			"componentType":5126,
			"count":4,
			"type":"VEC4"
		},
		{
			"bufferView":38,
			"componentType":5126,
			"count":278118,
			"max":[
				6.143850803375244,
				0.18301227688789368,
				7.130429744720459
			],
			"min":[
				-6.114478588104248,
				-0.1830621212720871,
				-7.1069183349609375
			],
			"type":"VEC3"
		},
		{
			"bufferView":39,
			"componentType":5126,
			"count":278118,
			"type":"VEC3"
		},
		{
			"bufferView":40,
			"componentType":5126,
			"count":278118,
			"max":[
				6.143850803375244,
				0.18301227688789368,
				7.130429744720459
			],
			"min":[
				-6.114478588104248,
				-0.1830621212720871,
				-7.1069183349609375
			],
			"type":"VEC3"
		},
		{
			"bufferView":41,
			"componentType":5126,
			"count":278118,
			"type":"VEC3"
		},
		{
			"bufferView":42,
			"componentType":5126,
			"count":278118,
			"max":[
				6.143850803375244,
				0.18301227688789368,
				7.130429744720459
			],
			"min":[
				-6.114478588104248,
				-0.1830621212720871,
				-7.1069183349609375
			],
			"type":"VEC3"
		},
		{
			"bufferView":43,
			"componentType":5126,
			"count":278118,
			"type":"VEC3"
		}
	],
	"bufferViews":[
		{
			"buffer":0,
			"byteLength":3337416,
			"byteOffset":0,
			"target":34962
		},
		{
			"buffer":0,
			"byteLength":3337416,
			"byteOffset":3337416,
			"target":34962
		},
		{
			"buffer":0,
			"byteLength":6674784,
			"byteOffset":6674832,
			"target":34963
		},
		{
			"buffer":0,
			"byteLength":48,
			"byteOffset":13349616,
			"target":34962
		},
		{
			"buffer":0,
			"byteLength":48,
			"byteOffset":13349664,
			"target":34962
		},
		{
			"buffer":0,
			"byteLength":32,
			"byteOffset":13349712,
			"target":34962
		},
		{
			"buffer":0,
			"byteLength":64,
			"byteOffset":13349744,
			"target":34962
		},
		{
			"buffer":0,
			"byteLength":12,
			"byteOffset":13349808,
			"target":34963
		},
		{
			"buffer":0,
			"byteLength":36600,
			"byteOffset":13349820,
			"target":34962
		},
		{
			"buffer":0,
			"byteLength":36600,
			"byteOffset":13386420,
			"target":34962
		},
		{
			"buffer":0,
			"byteLength":24400,
			"byteOffset":13423020,
			"target":34962
		},
		{
			"buffer":0,
			"byteLength":9048,
			"byteOffset":13447420,
			"target":34963
		},
		{
			"buffer":0,
			"byteLength":3337416,
			"byteOffset":13456468,
			"target":34962
		},
		{
			"buffer":0,
			"byteLength":3337416,
			"byteOffset":16793884,
			"target":34962
		},
		{
			"buffer":0,
			"byteLength":3337416,
			"byteOffset":20131300,
			"target":34962
		},
		{
			"buffer":0,
			"byteLength":3337416,
			"byteOffset":23468716,
			"target":34962
		},
		{
			"buffer":0,
			"byteLength":3337416,
			"byteOffset":26806132,
			"target":34962
		},
		{
			"buffer":0,
			"byteLength":3337416,
			"byteOffset":30143548,
			"target":34962
		},
		{
			"buffer":0,
			"byteLength":3337416,
			"byteOffset":33480964,
			"target":34962
		},
		{
			"buffer":0,
			"byteLength":3337416,
			"byteOffset":36818380,
			"target":34962
		},
		{
			"buffer":0,
			"byteLength":3337416,
			"byteOffset":40155796,
			"target":34962
		},
		{
			"buffer":0,
			"byteLength":3337416,
			"byteOffset":43493212,
			"target":34962
		},
		{
			"buffer":0,
			"byteLength":3337416,
			"byteOffset":46830628,
			"target":34962
		},
		{
			"buffer":0,
			"byteLength":3337416,
			"byteOffset":50168044,
			"target":34962
		},
		{
			"buffer":0,
			"byteLength":3337416,
			"byteOffset":53505460,
			"target":34962
		},
		{
			"buffer":0,
			"byteLength":3337416,
			"byteOffset":56842876,
			"target":34962
		},
		{
			"buffer":0,
			"byteLength":3337416,
			"byteOffset":60180292,
			"target":34962
		},
		{
			"buffer":0,
			"byteLength":3337416,
			"byteOffset":63517708,
			"target":34962
		},
		{
			"buffer":0,
			"byteLength":3337416,
			"byteOffset":66855124,
			"target":34962
		},
		{
			"buffer":0,
			"byteLength":3337416,
			"byteOffset":70192540,
			"target":34962
		},
		{
			"buffer":0,
			"byteLength":3337416,
			"byteOffset":73529956,
			"target":34962
		},
		{
			"buffer":0,
			"byteLength":3337416,
			"byteOffset":76867372,
			"target":34962
		},
		{
			"buffer":0,
			"byteLength":3337416,
			"byteOffset":80204788,
			"target":34962
		},
		{
			"buffer":0,
			"byteLength":3337416,
			"byteOffset":83542204,
			"target":34962
		},
		{
			"buffer":0,
			"byteLength":48,
			"byteOffset":86879620,
			"target":34962
		},
		{
			"buffer":0,
			"byteLength":48,
			"byteOffset":86879668,
			"target":34962
		},
		{
			"buffer":0,
			"byteLength":32,
			"byteOffset":86879716,
			"target":34962
		},
		{
			"buffer":0,
			"byteLength":64,
			"byteOffset":86879748,
			"target":34962
		},
		{
			"buffer":0,
			"byteLength":3337416,
			"byteOffset":86879812,
			"target":34962
		},
		{
			"buffer":0,
			"byteLength":3337416,
			"byteOffset":90217228,
			"target":34962
		},
		{
			"buffer":0,
			"byteLength":3337416,
			"byteOffset":93554644,
			"target":34962
		},
		{
			"buffer":0,
			"byteLength":3337416,
			"byteOffset":96892060,
			"target":34962
		},
		{
			"buffer":0,
			"byteLength":3337416,
			"byteOffset":100229476,
			"target":34962
		},
		{
			"buffer":0,
			"byteLength":3337416,
			"byteOffset":103566892,
			"target":34962
		}
	],
	"buffers":[
		{
			"byteLength":106904308,
			"uri":"map%204%20%28made%20by%20me%29-5b7f44f76e3d5d1405ee23f59859fd60.bin"
		}
	]
}
