{
	"asset":{
		"generator":"Khronos glTF Blender I/O v5.0.21",
		"version":"2.0"
	},
	"scene":0,
	"scenes":[
		{
			"name":"Scene",
			"nodes":[
				0,
				1,
				2,
				3,
				4,
				5,
				6
			]
		}
	],
	"nodes":[
		{
			"mesh":0,
			"name":"-col.002",
			"rotation":[
				0,
				0,
				-0.7071068286895752,
				0.7071068286895752
			],
			"translation":[
				-1.6589183807373047,
				0.8710230588912964,
				-58.049713134765625
			]
		},
		{
			"mesh":1,
			"name":"-col.005",
			"rotation":[
				-0.5,
				0.5,
				-0.5,
				0.5
			],
			"translation":[
				7.447878837585449,
				0.8710230588912964,
				30.255332946777344
			]
		},
		{
			"mesh":2,
			"name":"-col.001",
			"rotation":[
				0.5,
				0.5,
				0.5,
				0.5
			],
			"scale":[
				-1,
				-1,
				-0.9862607717514038
			],
			"translation":[
				-9.216309547424316,
				0.8710230588912964,
				30.255332946777344
			]
		},
		{
			"mesh":3,
			"name":"-col.003",
			"rotation":[
				-0.5,
				-0.5,
				0.5,
				0.5
			],
			"scale":[
				-1,
				-0.9684733748435974,
				-1
			],
			"translation":[
				7.447878837585449,
				0.8710230588912964,
				-28.935104370117188
			]
		},
		{
			"mesh":4,
			"name":"-col.004",
			"rotation":[
				0.5,
				-0.5,
				-0.5,
				0.5
			],
			"scale":[
				1,
				0.9684733748435974,
				0.9862607717514038
			],
			"translation":[
				-9.216309547424316,
				0.8710230588912964,
				-28.935104370117188
			]
		},
		{
			"mesh":5,
			"name":"-col",
			"scale":[
				0.06432203203439713,
				1,
				1
			],
			"translation":[
				1.2164958715438843,
				0,
				-0.5553067326545715
			]
		},
		{
			"mesh":6,
			"name":"-col.006",
			"scale":[
				51.37798309326172,
				1,
				50.886199951171875
			]
		}
	],
	"materials":[
		{
			"alphaMode":"BLEND",
			"doubleSided":true,
			"name":"Material.006",
			"pbrMetallicRoughness":{
				"baseColorFactor":[
					1,
					1,
					1,
					0.7977272868156433
				],
				"metallicFactor":0,
				"roughnessFactor":0.7409090995788574
			}
		},
		{
			"alphaMode":"BLEND",
			"doubleSided":true,
			"name":"Material.010",
			"pbrMetallicRoughness":{
				"baseColorFactor":[
					1,
					1,
					1,
					0.7977272868156433
				],
				"metallicFactor":0,
				"roughnessFactor":0.7409090995788574
			}
		},
		{
			"alphaMode":"BLEND",
			"doubleSided":true,
			"name":"Material.004",
			"pbrMetallicRoughness":{
				"baseColorFactor":[
					1,
					1,
					1,
					0.7977272868156433
				],
				"metallicFactor":0,
				"roughnessFactor":0.7409090995788574
			}
		},
		{
			"alphaMode":"BLEND",
			"doubleSided":true,
			"name":"Material.007",
			"pbrMetallicRoughness":{
				"baseColorFactor":[
					1,
					1,
					1,
					0.7977272868156433
				],
				"metallicFactor":0,
				"roughnessFactor":0.7409090995788574
			}
		},
		{
			"alphaMode":"BLEND",
			"doubleSided":true,
			"name":"Material.009",
			"pbrMetallicRoughness":{
				"baseColorFactor":[
					1,
					1,
					1,
					0.7977272868156433
				],
				"metallicFactor":0,
				"roughnessFactor":0.7409090995788574
			}
		},
		{
			"alphaMode":"BLEND",
			"doubleSided":true,
			"name":"Material.011",
			"pbrMetallicRoughness":{
				"baseColorFactor":[
					1,
					1,
					1,
					0.7977272868156433
				],
				"metallicFactor":0,
				"roughnessFactor":0.7409090995788574
			}
		},
		{
			"alphaMode":"BLEND",
			"doubleSided":true,
			"name":"Material.012",
			"pbrMetallicRoughness":{
				"baseColorFactor":[
					1,
					1,
					1,
					0.7977272868156433
				],
				"metallicFactor":0,
				"roughnessFactor":0.7409090995788574
			}
		},
		{
			"alphaMode":"BLEND",
			"doubleSided":true,
			"name":"Material.013",
			"pbrMetallicRoughness":{
				"baseColorFactor":[
					1,
					1,
					1,
					0.7977272868156433
				],
				"metallicFactor":0,
				"roughnessFactor":0.7409090995788574
			}
		},
		{
			"alphaMode":"BLEND",
			"doubleSided":true,
			"name":"Material.014",
			"pbrMetallicRoughness":{
				"baseColorFactor":[
					1,
					1,
					1,
					0.7977272868156433
				],
				"metallicFactor":0,
				"roughnessFactor":0.7409090995788574
			}
		},
		{
			"alphaMode":"BLEND",
			"doubleSided":true,
			"name":"Material.015",
			"pbrMetallicRoughness":{
				"baseColorFactor":[
					1,
					1,
					1,
					0.7977272868156433
				],
				"metallicFactor":0,
				"roughnessFactor":0.7409090995788574
			}
		},
		{
			"alphaMode":"BLEND",
			"doubleSided":true,
			"name":"Material.016",
			"pbrMetallicRoughness":{
				"baseColorFactor":[
					1,
					1,
					1,
					0.7977272868156433
				],
				"metallicFactor":0,
				"roughnessFactor":0.7409090995788574
			}
		},
		{
			"alphaMode":"BLEND",
			"doubleSided":true,
			"name":"Material.017",
			"pbrMetallicRoughness":{
				"baseColorFactor":[
					1,
					1,
					1,
					0.7977272868156433
				],
				"metallicFactor":0,
				"roughnessFactor":0.7409090995788574
			}
		},
		{
			"alphaMode":"BLEND",
			"doubleSided":true,
			"name":"Material.018",
			"pbrMetallicRoughness":{
				"baseColorFactor":[
					1,
					1,
					1,
					0.7977272868156433
				],
				"metallicFactor":0,
				"roughnessFactor":0.7409090995788574
			}
		},
		{
			"alphaMode":"BLEND",
			"doubleSided":true,
			"name":"Material.019",
			"pbrMetallicRoughness":{
				"baseColorFactor":[
					1,
					1,
					1,
					0.7977272868156433
				],
				"metallicFactor":0,
				"roughnessFactor":0.7409090995788574
			}
		},
		{
			"alphaMode":"BLEND",
			"doubleSided":true,
			"name":"Material.020",
			"pbrMetallicRoughness":{
				"baseColorFactor":[
					1,
					1,
					1,
					0.7977272868156433
				],
				"metallicFactor":0,
				"roughnessFactor":0.7409090995788574
			}
		},
		{
			"alphaMode":"BLEND",
			"doubleSided":true,
			"name":"Material.021",
			"pbrMetallicRoughness":{
				"baseColorFactor":[
					1,
					1,
					1,
					0.7977272868156433
				],
				"metallicFactor":0,
				"roughnessFactor":0.7409090995788574
			}
		},
		{
			"alphaMode":"BLEND",
			"doubleSided":true,
			"name":"Material.022",
			"pbrMetallicRoughness":{
				"baseColorFactor":[
					1,
					1,
					1,
					0.7977272868156433
				],
				"metallicFactor":0,
				"roughnessFactor":0.7409090995788574
			}
		},
		{
			"doubleSided":true,
			"name":"Material.023",
			"pbrMetallicRoughness":{
				"baseColorFactor":[
					0.8000074625015259,
					0.22845840454101562,
					0.05392776429653168,
					1
				],
				"metallicFactor":0,
				"roughnessFactor":0.5
			}
		},
		{
			"doubleSided":true,
			"name":"Material.024",
			"pbrMetallicRoughness":{
				"baseColorFactor":[
					0.8000074625015259,
					0.22845840454101562,
					0.05392776429653168,
					1
				],
				"metallicFactor":0,
				"roughnessFactor":0.5
			}
		},
		{
			"doubleSided":true,
			"name":"Material.025",
			"pbrMetallicRoughness":{
				"metallicFactor":0,
				"roughnessFactor":0.5
			}
		}
	],
	"meshes":[
		{
			"name":"Cube.006",
			"primitives":[
				{
					"attributes":{
						"POSITION":0,
						"NORMAL":1,
						"TEXCOORD_0":2,
						"TANGENT":3
					},
					"indices":4,
					"material":0
				}
			]
		},
		{
			"name":"Cube.010",
			"primitives":[
				{
					"attributes":{
						"POSITION":5,
						"NORMAL":6,
						"TEXCOORD_0":7,
						"TANGENT":8
					},
					"indices":9,
					"material":1
				},
				{
					"attributes":{
						"POSITION":10,
						"NORMAL":11,
						"TEXCOORD_0":12,
						"TANGENT":13
					},
					"indices":14,
					"material":2
				},
				{
					"attributes":{
						"POSITION":15,
						"NORMAL":16,
						"TEXCOORD_0":17,
						"TANGENT":18
					},
					"indices":9,
					"material":3
				},
				{
					"attributes":{
						"POSITION":19,
						"NORMAL":20,
						"TEXCOORD_0":21,
						"TANGENT":22
					},
					"indices":14,
					"material":4
				}
			]
		},
		{
			"name":"Cube.011",
			"primitives":[
				{
					"attributes":{
						"POSITION":23,
						"NORMAL":24,
						"TEXCOORD_0":25,
						"TANGENT":26
					},
					"indices":9,
					"material":5
				},
				{
					"attributes":{
						"POSITION":27,
						"NORMAL":28,
						"TEXCOORD_0":29,
						"TANGENT":30
					},
					"indices":14,
					"material":6
				},
				{
					"attributes":{
						"POSITION":31,
						"NORMAL":32,
						"TEXCOORD_0":33,
						"TANGENT":34
					},
					"indices":9,
					"material":7
				},
				{
					"attributes":{
						"POSITION":35,
						"NORMAL":36,
						"TEXCOORD_0":37,
						"TANGENT":38
					},
					"indices":14,
					"material":8
				}
			]
		},
		{
			"name":"Cube.012",
			"primitives":[
				{
					"attributes":{
						"POSITION":39,
						"NORMAL":40,
						"TEXCOORD_0":41,
						"TANGENT":42
					},
					"indices":9,
					"material":9
				},
				{
					"attributes":{
						"POSITION":43,
						"NORMAL":44,
						"TEXCOORD_0":45,
						"TANGENT":46
					},
					"indices":14,
					"material":10
				},
				{
					"attributes":{
						"POSITION":47,
						"NORMAL":48,
						"TEXCOORD_0":49,
						"TANGENT":50
					},
					"indices":9,
					"material":11
				},
				{
					"attributes":{
						"POSITION":51,
						"NORMAL":52,
						"TEXCOORD_0":53,
						"TANGENT":54
					},
					"indices":14,
					"material":12
				}
			]
		},
		{
			"name":"Cube.013",
			"primitives":[
				{
					"attributes":{
						"POSITION":55,
						"NORMAL":56,
						"TEXCOORD_0":57,
						"TANGENT":58
					},
					"indices":9,
					"material":13
				},
				{
					"attributes":{
						"POSITION":59,
						"NORMAL":60,
						"TEXCOORD_0":61,
						"TANGENT":62
					},
					"indices":14,
					"material":14
				},
				{
					"attributes":{
						"POSITION":63,
						"NORMAL":64,
						"TEXCOORD_0":65,
						"TANGENT":66
					},
					"indices":9,
					"material":15
				},
				{
					"attributes":{
						"POSITION":67,
						"NORMAL":68,
						"TEXCOORD_0":69,
						"TANGENT":70
					},
					"indices":14,
					"material":16
				}
			]
		},
		{
			"name":"Cube.001",
			"primitives":[
				{
					"attributes":{
						"POSITION":71,
						"NORMAL":72,
						"TEXCOORD_0":73,
						"TANGENT":74
					},
					"indices":75,
					"material":17
				},
				{
					"attributes":{
						"POSITION":76,
						"NORMAL":77,
						"TEXCOORD_0":78,
						"TANGENT":79
					},
					"indices":80,
					"material":18
				}
			]
		},
		{
			"name":"Plane",
			"primitives":[
				{
					"attributes":{
						"POSITION":81,
						"NORMAL":82,
						"TEXCOORD_0":83,
						"TANGENT":84
					},
					"indices":85,
					"material":19
				}
			]
		}
	],
	"accessors":[
		{
			"bufferView":0,
			"componentType":5126,
			"count":24,
			"max":[
				1.0000004768371582,
				2.3100080490112305,
				0.11839550733566284
			],
			"min":[
				-1.4974807500839233,
				-8.974556922912598,
				-0.10908418893814087
			],
			"type":"VEC3"
		},
		{
			"bufferView":1,
			"componentType":5126,
			"count":24,
			"type":"VEC3"
		},
		{
			"bufferView":2,
			"componentType":5126,
			"count":24,
			"type":"VEC2"
		},
		{
			"bufferView":3,
			"componentType":5126,
			"count":24,
			"type":"VEC4"
		},
		{
			"bufferView":4,
			"componentType":5123,
			"count":36,
			"type":"SCALAR"
		},
		{
			"bufferView":5,
			"componentType":5126,
			"count":36,
			"max":[
				1.0000008344650269,
				2.3100080490112305,
				0.11839550733566284
			],
			"min":[
				-1.4974807500839233,
				-18.302227020263672,
				-0.10908418893814087
			],
			"type":"VEC3"
		},
		{
			"bufferView":6,
			"componentType":5126,
			"count":36,
			"type":"VEC3"
		},
		{
			"bufferView":7,
			"componentType":5126,
			"count":36,
			"type":"VEC2"
		},
		{
			"bufferView":8,
			"componentType":5126,
			"count":36,
			"type":"VEC4"
		},
		{
			"bufferView":9,
			"componentType":5123,
			"count":60,
			"type":"SCALAR"
		},
		{
			"bufferView":10,
			"componentType":5126,
			"count":36,
			"max":[
				0.9999991059303284,
				23.363739013671875,
				41.20329284667969
			],
			"min":[
				-1.4974818229675293,
				23.136259078979492,
				20.59105682373047
			],
			"type":"VEC3"
		},
		{
			"bufferView":11,
			"componentType":5126,
			"count":36,
			"type":"VEC3"
		},
		{
			"bufferView":12,
			"componentType":5126,
			"count":36,
			"type":"VEC2"
		},
		{
			"bufferView":13,
			"componentType":5126,
			"count":36,
			"type":"VEC4"
		},
		{
			"bufferView":14,
			"componentType":5123,
			"count":60,
			"type":"SCALAR"
		},
		{
			"bufferView":15,
			"componentType":5126,
			"count":36,
			"max":[
				0.9999998807907104,
				23.270503997802734,
				20.791704177856445
			],
			"min":[
				-1.4974817037582397,
				2.6582698822021484,
				20.564224243164062
			],
			"type":"VEC3"
		},
		{
			"bufferView":16,
			"componentType":5126,
			"count":36,
			"type":"VEC3"
		},
		{
			"bufferView":17,
			"componentType":5126,
			"count":36,
			"type":"VEC2"
		},
		{
			"bufferView":18,
			"componentType":5126,
			"count":36,
			"type":"VEC4"
		},
		{
			"bufferView":19,
			"componentType":5126,
			"count":36,
			"max":[
				1,
				2.5339183807373047,
				20.60997772216797
			],
			"min":[
				-1.497480869293213,
				2.3064377307891846,
				-0.00225830078125
			],
			"type":"VEC3"
		},
		{
			"bufferView":20,
			"componentType":5126,
			"count":36,
			"type":"VEC3"
		},
		{
			"bufferView":21,
			"componentType":5126,
			"count":36,
			"type":"VEC2"
		},
		{
			"bufferView":22,
			"componentType":5126,
			"count":36,
			"type":"VEC4"
		},
		{
			"bufferView":23,
			"componentType":5126,
			"count":36,
			"max":[
				1.0000008344650269,
				2.3100080490112305,
				0.11839550733566284
			],
			"min":[
				-1.4974807500839233,
				-18.302227020263672,
				-0.10908418893814087
			],
			"type":"VEC3"
		},
		{
			"bufferView":24,
			"componentType":5126,
			"count":36,
			"type":"VEC3"
		},
		{
			"bufferView":25,
			"componentType":5126,
			"count":36,
			"type":"VEC2"
		},
		{
			"bufferView":26,
			"componentType":5126,
			"count":36,
			"type":"VEC4"
		},
		{
			"bufferView":27,
			"componentType":5126,
			"count":36,
			"max":[
				0.9999991059303284,
				23.363739013671875,
				41.20329284667969
			],
			"min":[
				-1.4974818229675293,
				23.136259078979492,
				20.59105682373047
			],
			"type":"VEC3"
		},
		{
			"bufferView":28,
			"componentType":5126,
			"count":36,
			"type":"VEC3"
		},
		{
			"bufferView":29,
			"componentType":5126,
			"count":36,
			"type":"VEC2"
		},
		{
			"bufferView":30,
			"componentType":5126,
			"count":36,
			"type":"VEC4"
		},
		{
			"bufferView":31,
			"componentType":5126,
			"count":36,
			"max":[
				0.9999998807907104,
				23.270503997802734,
				20.791704177856445
			],
			"min":[
				-1.4974817037582397,
				2.6582698822021484,
				20.564224243164062
			],
			"type":"VEC3"
		},
		{
			"bufferView":32,
			"componentType":5126,
			"count":36,
			"type":"VEC3"
		},
		{
			"bufferView":33,
			"componentType":5126,
			"count":36,
			"type":"VEC2"
		},
		{
			"bufferView":34,
			"componentType":5126,
			"count":36,
			"type":"VEC4"
		},
		{
			"bufferView":35,
			"componentType":5126,
			"count":36,
			"max":[
				1,
				2.5339183807373047,
				20.60997772216797
			],
			"min":[
				-1.497480869293213,
				2.3064377307891846,
				-0.00225830078125
			],
			"type":"VEC3"
		},
		{
			"bufferView":36,
			"componentType":5126,
			"count":36,
			"type":"VEC3"
		},
		{
			"bufferView":37,
			"componentType":5126,
			"count":36,
			"type":"VEC2"
		},
		{
			"bufferView":38,
			"componentType":5126,
			"count":36,
			"type":"VEC4"
		},
		{
			"bufferView":39,
			"componentType":5126,
			"count":36,
			"max":[
				1.0000008344650269,
				2.3100080490112305,
				0.11839550733566284
			],
			"min":[
				-1.4974807500839233,
				-18.302227020263672,
				-0.10908418893814087
			],
			"type":"VEC3"
		},
		{
			"bufferView":40,
			"componentType":5126,
			"count":36,
			"type":"VEC3"
		},
		{
			"bufferView":41,
			"componentType":5126,
			"count":36,
			"type":"VEC2"
		},
		{
			"bufferView":42,
			"componentType":5126,
			"count":36,
			"type":"VEC4"
		},
		{
			"bufferView":43,
			"componentType":5126,
			"count":36,
			"max":[
				0.9999991059303284,
				23.363739013671875,
				41.20329284667969
			],
			"min":[
				-1.4974818229675293,
				23.136259078979492,
				20.59105682373047
			],
			"type":"VEC3"
		},
		{
			"bufferView":44,
			"componentType":5126,
			"count":36,
			"type":"VEC3"
		},
		{
			"bufferView":45,
			"componentType":5126,
			"count":36,
			"type":"VEC2"
		},
		{
			"bufferView":46,
			"componentType":5126,
			"count":36,
			"type":"VEC4"
		},
		{
			"bufferView":47,
			"componentType":5126,
			"count":36,
			"max":[
				0.9999998807907104,
				23.270503997802734,
				20.791704177856445
			],
			"min":[
				-1.4974817037582397,
				2.6582698822021484,
				20.564224243164062
			],
			"type":"VEC3"
		},
		{
			"bufferView":48,
			"componentType":5126,
			"count":36,
			"type":"VEC3"
		},
		{
			"bufferView":49,
			"componentType":5126,
			"count":36,
			"type":"VEC2"
		},
		{
			"bufferView":50,
			"componentType":5126,
			"count":36,
			"type":"VEC4"
		},
		{
			"bufferView":51,
			"componentType":5126,
			"count":36,
			"max":[
				1,
				2.5339183807373047,
				20.60997772216797
			],
			"min":[
				-1.497480869293213,
				2.3064377307891846,
				-0.00225830078125
			],
			"type":"VEC3"
		},
		{
			"bufferView":52,
			"componentType":5126,
			"count":36,
			"type":"VEC3"
		},
		{
			"bufferView":53,
			"componentType":5126,
			"count":36,
			"type":"VEC2"
		},
		{
			"bufferView":54,
			"componentType":5126,
			"count":36,
			"type":"VEC4"
		},
		{
			"bufferView":55,
			"componentType":5126,
			"count":36,
			"max":[
				1.0000008344650269,
				2.3100080490112305,
				0.11839550733566284
			],
			"min":[
				-1.4974807500839233,
				-18.302227020263672,
				-0.10908418893814087
			],
			"type":"VEC3"
		},
		{
			"bufferView":56,
			"componentType":5126,
			"count":36,
			"type":"VEC3"
		},
		{
			"bufferView":57,
			"componentType":5126,
			"count":36,
			"type":"VEC2"
		},
		{
			"bufferView":58,
			"componentType":5126,
			"count":36,
			"type":"VEC4"
		},
		{
			"bufferView":59,
			"componentType":5126,
			"count":36,
			"max":[
				0.9999991059303284,
				23.363739013671875,
				41.20329284667969
			],
			"min":[
				-1.4974818229675293,
				23.136259078979492,
				20.59105682373047
			],
			"type":"VEC3"
		},
		{
			"bufferView":60,
			"componentType":5126,
			"count":36,
			"type":"VEC3"
		},
		{
			"bufferView":61,
			"componentType":5126,
			"count":36,
			"type":"VEC2"
		},
		{
			"bufferView":62,
			"componentType":5126,
			"count":36,
			"type":"VEC4"
		},
		{
			"bufferView":63,
			"componentType":5126,
			"count":36,
			"max":[
				0.9999998807907104,
				23.270503997802734,
				20.791704177856445
			],
			"min":[
				-1.4974817037582397,
				2.6582698822021484,
				20.564224243164062
			],
			"type":"VEC3"
		},
		{
			"bufferView":64,
			"componentType":5126,
			"count":36,
			"type":"VEC3"
		},
		{
			"bufferView":65,
			"componentType":5126,
			"count":36,
			"type":"VEC2"
		},
		{
			"bufferView":66,
			"componentType":5126,
			"count":36,
			"type":"VEC4"
		},
		{
			"bufferView":67,
			"componentType":5126,
			"count":36,
			"max":[
				1,
				2.5339183807373047,
				20.60997772216797
			],
			"min":[
				-1.497480869293213,
				2.3064377307891846,
				-0.00225830078125
			],
			"type":"VEC3"
		},
		{
			"bufferView":68,
			"componentType":5126,
			"count":36,
			"type":"VEC3"
		},
		{
			"bufferView":69,
			"componentType":5126,
			"count":36,
			"type":"VEC2"
		},
		{
			"bufferView":70,
			"componentType":5126,
			"count":36,
			"type":"VEC4"
		},
		{
			"bufferView":71,
			"componentType":5126,
			"count":292,
			"max":[
				1.905282974243164,
				1.099530816078186,
				0.8519459962844849
			],
			"min":[
				-40.33290481567383,
				-0.027112141251564026,
				0.38321807980537415
			],
			"type":"VEC3"
		},
		{
			"bufferView":72,
			"componentType":5126,
			"count":292,
			"type":"VEC3"
		},
		{
			"bufferView":73,
			"componentType":5126,
			"count":292,
			"type":"VEC2"
		},
		{
			"bufferView":74,
			"componentType":5126,
			"count":292,
			"type":"VEC4"
		},
		{
			"bufferView":75,
			"componentType":5123,
			"count":582,
			"type":"SCALAR"
		},
		{
			"bufferView":76,
			"componentType":5126,
			"count":52,
			"max":[
				-37.878257751464844,
				1.099530816078186,
				0.7311926484107971
			],
			"min":[
				-39.878257751464844,
				-0.027112141251564026,
				0.3868807554244995
			],
			"type":"VEC3"
		},
		{
			"bufferView":77,
			"componentType":5126,
			"count":52,
			"type":"VEC3"
		},
		{
			"bufferView":78,
			"componentType":5126,
			"count":52,
			"type":"VEC2"
		},
		{
			"bufferView":79,
			"componentType":5126,
			"count":52,
			"type":"VEC4"
		},
		{
			"bufferView":80,
			"componentType":5123,
			"count":84,
			"type":"SCALAR"
		},
		{
			"bufferView":81,
			"componentType":5126,
			"count":4,
			"max":[
				1,
				0,
				1
			],
			"min":[
				-1,
				0,
				-1
			],
			"type":"VEC3"
		},
		{
			"bufferView":82,
			"componentType":5126,
			"count":4,
			"type":"VEC3"
		},
		{
			"bufferView":83,
			"componentType":5126,
			"count":4,
			"type":"VEC2"
		},
		{
			"bufferView":84,
			"componentType":5126,
			"count":4,
			"type":"VEC4"
		},
		{
			"bufferView":85,
			"componentType":5123,
			"count":6,
			"type":"SCALAR"
		}
	],
	"bufferViews":[
		{
			"buffer":0,
			"byteLength":288,
			"byteOffset":0,
			"target":34962
		},
		{
			"buffer":0,
			"byteLength":288,
			"byteOffset":288,
			"target":34962
		},
		{
			"buffer":0,
			"byteLength":192,
			"byteOffset":576,
			"target":34962
		},
		{
			"buffer":0,
			"byteLength":384,
			"byteOffset":768,
			"target":34962
		},
		{
			"buffer":0,
			"byteLength":72,
			"byteOffset":1152,
			"target":34963
		},
		{
			"buffer":0,
			"byteLength":432,
			"byteOffset":1224,
			"target":34962
		},
		{
			"buffer":0,
			"byteLength":432,
			"byteOffset":1656,
			"target":34962
		},
		{
			"buffer":0,
			"byteLength":288,
			"byteOffset":2088,
			"target":34962
		},
		{
			"buffer":0,
			"byteLength":576,
			"byteOffset":2376,
			"target":34962
		},
		{
			"buffer":0,
			"byteLength":120,
			"byteOffset":2952,
			"target":34963
		},
		{
			"buffer":0,
			"byteLength":432,
			"byteOffset":3072,
			"target":34962
		},
		{
			"buffer":0,
			"byteLength":432,
			"byteOffset":3504,
			"target":34962
		},
		{
			"buffer":0,
			"byteLength":288,
			"byteOffset":3936,
			"target":34962
		},
		{
			"buffer":0,
			"byteLength":576,
			"byteOffset":4224,
			"target":34962
		},
		{
			"buffer":0,
			"byteLength":120,
			"byteOffset":4800,
			"target":34963
		},
		{
			"buffer":0,
			"byteLength":432,
			"byteOffset":4920,
			"target":34962
		},
		{
			"buffer":0,
			"byteLength":432,
			"byteOffset":5352,
			"target":34962
		},
		{
			"buffer":0,
			"byteLength":288,
			"byteOffset":5784,
			"target":34962
		},
		{
			"buffer":0,
			"byteLength":576,
			"byteOffset":6072,
			"target":34962
		},
		{
			"buffer":0,
			"byteLength":432,
			"byteOffset":6648,
			"target":34962
		},
		{
			"buffer":0,
			"byteLength":432,
			"byteOffset":7080,
			"target":34962
		},
		{
			"buffer":0,
			"byteLength":288,
			"byteOffset":7512,
			"target":34962
		},
		{
			"buffer":0,
			"byteLength":576,
			"byteOffset":7800,
			"target":34962
		},
		{
			"buffer":0,
			"byteLength":432,
			"byteOffset":8376,
			"target":34962
		},
		{
			"buffer":0,
			"byteLength":432,
			"byteOffset":8808,
			"target":34962
		},
		{
			"buffer":0,
			"byteLength":288,
			"byteOffset":9240,
			"target":34962
		},
		{
			"buffer":0,
			"byteLength":576,
			"byteOffset":9528,
			"target":34962
		},
		{
			"buffer":0,
			"byteLength":432,
			"byteOffset":10104,
			"target":34962
		},
		{
			"buffer":0,
			"byteLength":432,
			"byteOffset":10536,
			"target":34962
		},
		{
			"buffer":0,
			"byteLength":288,
			"byteOffset":10968,
			"target":34962
		},
		{
			"buffer":0,
			"byteLength":576,
			"byteOffset":11256,
			"target":34962
		},
		{
			"buffer":0,
			"byteLength":432,
			"byteOffset":11832,
			"target":34962
		},
		{
			"buffer":0,
			"byteLength":432,
			"byteOffset":12264,
			"target":34962
		},
		{
			"buffer":0,
			"byteLength":288,
			"byteOffset":12696,
			"target":34962
		},
		{
			"buffer":0,
			"byteLength":576,
			"byteOffset":12984,
			"target":34962
		},
		{
			"buffer":0,
			"byteLength":432,
			"byteOffset":13560,
			"target":34962
		},
		{
			"buffer":0,
			"byteLength":432,
			"byteOffset":13992,
			"target":34962
		},
		{
			"buffer":0,
			"byteLength":288,
			"byteOffset":14424,
			"target":34962
		},
		{
			"buffer":0,
			"byteLength":576,
			"byteOffset":14712,
			"target":34962
		},
		{
			"buffer":0,
			"byteLength":432,
			"byteOffset":15288,
			"target":34962
		},
		{
			"buffer":0,
			"byteLength":432,
			"byteOffset":15720,
			"target":34962
		},
		{
			"buffer":0,
			"byteLength":288,
			"byteOffset":16152,
			"target":34962
		},
		{
			"buffer":0,
			"byteLength":576,
			"byteOffset":16440,
			"target":34962
		},
		{
			"buffer":0,
			"byteLength":432,
			"byteOffset":17016,
			"target":34962
		},
		{
			"buffer":0,
			"byteLength":432,
			"byteOffset":17448,
			"target":34962
		},
		{
			"buffer":0,
			"byteLength":288,
			"byteOffset":17880,
			"target":34962
		},
		{
			"buffer":0,
			"byteLength":576,
			"byteOffset":18168,
			"target":34962
		},
		{
			"buffer":0,
			"byteLength":432,
			"byteOffset":18744,
			"target":34962
		},
		{
			"buffer":0,
			"byteLength":432,
			"byteOffset":19176,
			"target":34962
		},
		{
			"buffer":0,
			"byteLength":288,
			"byteOffset":19608,
			"target":34962
		},
		{
			"buffer":0,
			"byteLength":576,
			"byteOffset":19896,
			"target":34962
		},
		{
			"buffer":0,
			"byteLength":432,
			"byteOffset":20472,
			"target":34962
		},
		{
			"buffer":0,
			"byteLength":432,
			"byteOffset":20904,
			"target":34962
		},
		{
			"buffer":0,
			"byteLength":288,
			"byteOffset":21336,
			"target":34962
		},
		{
			"buffer":0,
			"byteLength":576,
			"byteOffset":21624,
			"target":34962
		},
		{
			"buffer":0,
			"byteLength":432,
			"byteOffset":22200,
			"target":34962
		},
		{
			"buffer":0,
			"byteLength":432,
			"byteOffset":22632,
			"target":34962
		},
		{
			"buffer":0,
			"byteLength":288,
			"byteOffset":23064,
			"target":34962
		},
		{
			"buffer":0,
			"byteLength":576,
			"byteOffset":23352,
			"target":34962
		},
		{
			"buffer":0,
			"byteLength":432,
			"byteOffset":23928,
			"target":34962
		},
		{
			"buffer":0,
			"byteLength":432,
			"byteOffset":24360,
			"target":34962
		},
		{
			"buffer":0,
			"byteLength":288,
			"byteOffset":24792,
			"target":34962
		},
		{
			"buffer":0,
			"byteLength":576,
			"byteOffset":25080,
			"target":34962
		},
		{
			"buffer":0,
			"byteLength":432,
			"byteOffset":25656,
			"target":34962
		},
		{
			"buffer":0,
			"byteLength":432,
			"byteOffset":26088,
			"target":34962
		},
		{
			"buffer":0,
			"byteLength":288,
			"byteOffset":26520,
			"target":34962
		},
		{
			"buffer":0,
			"byteLength":576,
			"byteOffset":26808,
			"target":34962
		},
		{
			"buffer":0,
			"byteLength":432,
			"byteOffset":27384,
			"target":34962
		},
		{
			"buffer":0,
			"byteLength":432,
			"byteOffset":27816,
			"target":34962
		},
		{
			"buffer":0,
			"byteLength":288,
			"byteOffset":28248,
			"target":34962
		},
		{
			"buffer":0,
			"byteLength":576,
			"byteOffset":28536,
			"target":34962
		},
		{
			"buffer":0,
			"byteLength":3504,
			"byteOffset":29112,
			"target":34962
		},
		{
			"buffer":0,
			"byteLength":3504,
			"byteOffset":32616,
			"target":34962
		},
		{
			"buffer":0,
			"byteLength":2336,
			"byteOffset":36120,
			"target":34962
		},
		{
			"buffer":0,
			"byteLength":4672,
			"byteOffset":38456,
			"target":34962
		},
		{
			"buffer":0,
			"byteLength":1164,
			"byteOffset":43128,
			"target":34963
		},
		{
			"buffer":0,
			"byteLength":624,
			"byteOffset":44292,
			"target":34962
		},
		{
			"buffer":0,
			"byteLength":624,
			"byteOffset":44916,
			"target":34962
		},
		{
			"buffer":0,
			"byteLength":416,
			"byteOffset":45540,
			"target":34962
		},
		{
			"buffer":0,
			"byteLength":832,
			"byteOffset":45956,
			"target":34962
		},
		{
			"buffer":0,
			"byteLength":168,
			"byteOffset":46788,
			"target":34963
		},
		{
			"buffer":0,
			"byteLength":48,
			"byteOffset":46956,
			"target":34962
		},
		{
			"buffer":0,
			"byteLength":48,
			"byteOffset":47004,
			"target":34962
		},
		{
			"buffer":0,
			"byteLength":32,
			"byteOffset":47052,
			"target":34962
		},
		{
			"buffer":0,
			"byteLength":64,
			"byteOffset":47084,
			"target":34962
		},
		{
			"buffer":0,
			"byteLength":12,
			"byteOffset":47148,
			"target":34963
		}
	],
	"buffers":[
		{
			"byteLength":47160,
			"uri":"map%202%20%28made%20my%20me%29-bbd6742d125a65fbd506d7fff50ef299.bin"
		}
	]
}
