{
	"asset":{
		"generator":"Khronos glTF Blender I/O v5.0.21",
		"version":"2.0"
	},
	"scene":0,
	"scenes":[
		{
			"name":"Scene",
			"nodes":[
				0,
				1,
				2,
				3,
				4,
				5,
				6,
				7,
				8,
				9,
				10,
				11,
				12,
				13,
				14,
				15,
				16,
				17,
				18,
				19,
				20,
				21,
				22,
				23,
				24,
				25,
				26
			]
		}
	],
	"nodes":[
		{
			"mesh":0,
			"name":"-col.001",
			"scale":[
				18.530155181884766,
				0.023753464221954346,
				24.436378479003906
			]
		},
		{
			"mesh":1,
			"name":"-col.004",
			"rotation":[
				0.70710688829422,
				0,
				0,
				0.7071066498756409
			],
			"scale":[
				0.03720977529883385,
				0.03720977529883385,
				0.03720977529883385
			],
			"translation":[
				-0.19973856210708618,
				1.4892467260360718,
				-38.84163284301758
			]
		},
		{
			"mesh":2,
			"name":"-col",
			"rotation":[
				0,
				0.7134374976158142,
				0,
				0.700718879699707
			],
			"scale":[
				0.24150288105010986,
				2.3490617275238037,
				4.4011712074279785
			],
			"translation":[
				-2.7381176948547363,
				0.7093073129653931,
				-18.885761260986328
			]
		},
		{
			"mesh":3,
			"name":"-col.002",
			"scale":[
				0.24150288105010986,
				2.3490617275238037,
				4.4011712074279785
			],
			"translation":[
				3.7561049461364746,
				0.7093073129653931,
				-19.49797821044922
			]
		},
		{
			"mesh":4,
			"name":"-col.003",
			"rotation":[
				0,
				0.7071068286895752,
				0,
				0.7071068286895752
			],
			"scale":[
				0.24150288105010986,
				2.3490617275238037,
				4.4011712074279785
			],
			"translation":[
				13.904624938964844,
				0.7093073129653931,
				-17.312416076660156
			]
		},
		{
			"mesh":5,
			"name":"-col.005",
			"scale":[
				0.24150288105010986,
				2.3490617275238037,
				4.4011712074279785
			],
			"translation":[
				-2.084867477416992,
				0.7093073129653931,
				-14.566788673400879
			]
		},
		{
			"mesh":6,
			"name":"-col.006",
			"rotation":[
				0,
				0.7071068286895752,
				0,
				0.7071068286895752
			],
			"scale":[
				0.24150288105010986,
				2.3490617275238037,
				4.4011712074279785
			],
			"translation":[
				2.401336669921875,
				0.7093073129653931,
				-12.036711692810059
			]
		},
		{
			"mesh":7,
			"name":"-col.007",
			"scale":[
				0.24150288105010986,
				2.3490617275238037,
				4.4011712074279785
			],
			"translation":[
				-9.987854957580566,
				0.7093073129653931,
				-19.110580444335938
			]
		},
		{
			"mesh":8,
			"name":"-col.008",
			"rotation":[
				0,
				0.7071068286895752,
				0,
				0.7071068286895752
			],
			"scale":[
				0.24150288105010986,
				2.3490617275238037,
				2.9960052967071533
			],
			"translation":[
				-15.43731689453125,
				0.7093073129653931,
				-19.004127502441406
			]
		},
		{
			"mesh":9,
			"name":"-col.009",
			"scale":[
				0.24150288105010986,
				2.3490617275238037,
				2.6019585132598877
			],
			"translation":[
				13.904624938964844,
				0.7093073129653931,
				-14.538948059082031
			]
		},
		{
			"mesh":10,
			"name":"-col.010",
			"scale":[
				0.24150288105010986,
				2.3490617275238037,
				1.7378661632537842
			],
			"translation":[
				12.507477760314941,
				0.7093073129653931,
				-20.460161209106445
			]
		},
		{
			"mesh":11,
			"name":"-col.011",
			"rotation":[
				0,
				0.7071068286895752,
				0,
				0.7071068286895752
			],
			"scale":[
				0.24150288105010986,
				2.3490617275238037,
				4.4011712074279785
			],
			"translation":[
				14.20994758605957,
				0.7093073129653931,
				-6.5184783935546875
			]
		},
		{
			"mesh":12,
			"name":"-col.012",
			"rotation":[
				0.7071068286895752,
				0,
				-0.7071068286895752,
				0
			],
			"scale":[
				-0.2814073860645294,
				-2.3490617275238037,
				-4.4011712074279785
			],
			"translation":[
				14.20994758605957,
				0.7093073129653931,
				4.256937026977539
			]
		},
		{
			"mesh":13,
			"name":"-col.013",
			"rotation":[
				0,
				0,
				-1,
				0
			],
			"scale":[
				-0.3067769408226013,
				-2.3490617275238037,
				-4.4011712074279785
			],
			"translation":[
				1.844763994216919,
				0.7789947986602783,
				-2.8339126110076904
			]
		},
		{
			"mesh":14,
			"name":"-col.014",
			"rotation":[
				1,
				0,
				0,
				0
			],
			"scale":[
				-0.2814073860645294,
				-2.3490617275238037,
				-4.4011712074279785
			],
			"translation":[
				-8.848045349121094,
				0.7093073129653931,
				-7.653124809265137
			]
		},
		{
			"mesh":15,
			"name":"-col.015",
			"rotation":[
				0,
				0,
				-1,
				0
			],
			"scale":[
				-0.3067769408226013,
				-2.3490617275238037,
				-4.4011712074279785
			],
			"translation":[
				-14.438691139221191,
				0.7789947986602783,
				-5.3539581298828125
			]
		},
		{
			"mesh":16,
			"name":"-col.016",
			"scale":[
				0.24150288105010986,
				2.3490617275238037,
				3.5203845500946045
			],
			"translation":[
				-12.293647766113281,
				0.7093073129653931,
				8.305977821350098
			]
		},
		{
			"mesh":17,
			"name":"-col.017",
			"rotation":[
				0,
				0.7071068286895752,
				0,
				0.7071068286895752
			],
			"scale":[
				0.24150288105010986,
				2.3490617275238037,
				2.9960052967071533
			],
			"translation":[
				-15.43731689453125,
				0.7093073129653931,
				8.568038940429688
			]
		},
		{
			"mesh":18,
			"name":"-col.018",
			"scale":[
				0.24150288105010986,
				2.3490617275238037,
				2.6019585132598877
			],
			"translation":[
				13.904624938964844,
				0.7093073129653931,
				15.154642105102539
			]
		},
		{
			"mesh":19,
			"name":"-col.019",
			"rotation":[
				0,
				0.7071068286895752,
				0,
				0.7071068286895752
			],
			"scale":[
				0.24150288105010986,
				2.3490617275238037,
				4.4011712074279785
			],
			"translation":[
				14.20994758605957,
				0.7093073129653931,
				17.655658721923828
			]
		},
		{
			"mesh":20,
			"name":"-col.020",
			"scale":[
				0.24150288105010986,
				2.3490617275238037,
				2.6019585132598877
			],
			"translation":[
				-12.69753360748291,
				0.7093073129653931,
				22.242050170898438
			]
		},
		{
			"mesh":21,
			"name":"-col.021",
			"rotation":[
				0,
				0.7071068286895752,
				0,
				0.7071068286895752
			],
			"scale":[
				0.24150288105010986,
				2.3490617275238037,
				4.4011712074279785
			],
			"translation":[
				-14.285058975219727,
				0.7093073129653931,
				16.42455291748047
			]
		},
		{
			"mesh":22,
			"name":"-col.022",
			"scale":[
				0.24150288105010986,
				2.3490617275238037,
				2.6019585132598877
			],
			"translation":[
				0.45884042978286743,
				0.7093073129653931,
				16.207237243652344
			]
		},
		{
			"mesh":23,
			"name":"-col.023",
			"rotation":[
				0,
				0.7071068286895752,
				0,
				0.7071068286895752
			],
			"scale":[
				0.24150288105010986,
				2.3490617275238037,
				4.4011712074279785
			],
			"translation":[
				0.45884042978286743,
				0.7093073129653931,
				13.433768272399902
			]
		},
		{
			"mesh":24,
			"name":"-col.024",
			"scale":[
				1,
				2.8028719425201416,
				0.3249189853668213
			],
			"translation":[
				-6.188183307647705,
				0.7491675615310669,
				-24.072986602783203
			]
		},
		{
			"mesh":25,
			"name":"Cube",
			"scale":[
				1,
				1,
				0.5006072521209717
			],
			"translation":[
				-2.3517050743103027,
				-0.981653094291687,
				-24.83106803894043
			]
		},
		{
			"mesh":26,
			"name":"-colonly",
			"scale":[
				3.7132046222686768,
				1,
				1
			],
			"translation":[
				-2.1370468139648438,
				-0.8256567120552063,
				-25.560243606567383
			]
		}
	],
	"materials":[
		{
			"doubleSided":true,
			"name":"Material.002",
			"pbrMetallicRoughness":{
				"metallicFactor":0,
				"roughnessFactor":0.5
			}
		},
		{
			"doubleSided":true,
			"name":"Material.003",
			"pbrMetallicRoughness":{
				"baseColorFactor":[
					0.5,
					0.5,
					0.5,
					1
				],
				"metallicFactor":0,
				"roughnessFactor":0.5
			}
		},
		{
			"doubleSided":true,
			"name":"Material.004",
			"pbrMetallicRoughness":{
				"baseColorFactor":[
					0.800000011920929,
					0.800000011920929,
					0.800000011920929,
					1
				],
				"metallicFactor":0,
				"roughnessFactor":0.5
			}
		}
	],
	"meshes":[
		{
			"name":"Cube.001",
			"primitives":[
				{
					"attributes":{
						"POSITION":0,
						"NORMAL":1,
						"TEXCOORD_0":2,
						"TANGENT":3
					},
					"indices":4,
					"material":0
				}
			]
		},
		{
			"name":"Plane.001",
			"primitives":[
				{
					"attributes":{
						"POSITION":5,
						"NORMAL":6,
						"TEXCOORD_0":7
					},
					"indices":8
				}
			]
		},
		{
			"name":"Cube.002",
			"primitives":[
				{
					"attributes":{
						"POSITION":9,
						"NORMAL":10,
						"TEXCOORD_0":11,
						"TANGENT":12
					},
					"indices":4,
					"material":1
				}
			]
		},
		{
			"name":"Cube.003",
			"primitives":[
				{
					"attributes":{
						"POSITION":13,
						"NORMAL":14,
						"TEXCOORD_0":15,
						"TANGENT":16
					},
					"indices":4
				}
			]
		},
		{
			"name":"Cube.004",
			"primitives":[
				{
					"attributes":{
						"POSITION":17,
						"NORMAL":18,
						"TEXCOORD_0":19,
						"TANGENT":20
					},
					"indices":4
				}
			]
		},
		{
			"name":"Cube.005",
			"primitives":[
				{
					"attributes":{
						"POSITION":21,
						"NORMAL":22,
						"TEXCOORD_0":23,
						"TANGENT":24
					},
					"indices":4
				}
			]
		},
		{
			"name":"Cube.006",
			"primitives":[
				{
					"attributes":{
						"POSITION":25,
						"NORMAL":26,
						"TEXCOORD_0":27,
						"TANGENT":28
					},
					"indices":4
				}
			]
		},
		{
			"name":"Cube.007",
			"primitives":[
				{
					"attributes":{
						"POSITION":29,
						"NORMAL":30,
						"TEXCOORD_0":31,
						"TANGENT":32
					},
					"indices":4
				}
			]
		},
		{
			"name":"Cube.008",
			"primitives":[
				{
					"attributes":{
						"POSITION":33,
						"NORMAL":34,
						"TEXCOORD_0":35,
						"TANGENT":36
					},
					"indices":4
				}
			]
		},
		{
			"name":"Cube.009",
			"primitives":[
				{
					"attributes":{
						"POSITION":37,
						"NORMAL":38,
						"TEXCOORD_0":39,
						"TANGENT":40
					},
					"indices":4
				}
			]
		},
		{
			"name":"Cube.010",
			"primitives":[
				{
					"attributes":{
						"POSITION":41,
						"NORMAL":42,
						"TEXCOORD_0":43,
						"TANGENT":44
					},
					"indices":4
				}
			]
		},
		{
			"name":"Cube.011",
			"primitives":[
				{
					"attributes":{
						"POSITION":45,
						"NORMAL":46,
						"TEXCOORD_0":47,
						"TANGENT":48
					},
					"indices":49
				}
			]
		},
		{
			"name":"Cube.013",
			"primitives":[
				{
					"attributes":{
						"POSITION":50,
						"NORMAL":51,
						"TEXCOORD_0":52,
						"TANGENT":53
					},
					"indices":49
				}
			]
		},
		{
			"name":"Cube.014",
			"primitives":[
				{
					"attributes":{
						"POSITION":54,
						"NORMAL":55,
						"TEXCOORD_0":56,
						"TANGENT":57
					},
					"indices":49
				}
			]
		},
		{
			"name":"Cube.015",
			"primitives":[
				{
					"attributes":{
						"POSITION":58,
						"NORMAL":59,
						"TEXCOORD_0":60,
						"TANGENT":61
					},
					"indices":49,
					"material":2
				}
			]
		},
		{
			"name":"Cube.016",
			"primitives":[
				{
					"attributes":{
						"POSITION":62,
						"NORMAL":63,
						"TEXCOORD_0":64,
						"TANGENT":65
					},
					"indices":49
				}
			]
		},
		{
			"name":"Cube.017",
			"primitives":[
				{
					"attributes":{
						"POSITION":66,
						"NORMAL":67,
						"TEXCOORD_0":68,
						"TANGENT":69
					},
					"indices":4
				}
			]
		},
		{
			"name":"Cube.018",
			"primitives":[
				{
					"attributes":{
						"POSITION":70,
						"NORMAL":71,
						"TEXCOORD_0":72,
						"TANGENT":73
					},
					"indices":4
				}
			]
		},
		{
			"name":"Cube.019",
			"primitives":[
				{
					"attributes":{
						"POSITION":74,
						"NORMAL":75,
						"TEXCOORD_0":76,
						"TANGENT":77
					},
					"indices":4
				}
			]
		},
		{
			"name":"Cube.020",
			"primitives":[
				{
					"attributes":{
						"POSITION":78,
						"NORMAL":79,
						"TEXCOORD_0":80,
						"TANGENT":81
					},
					"indices":49
				}
			]
		},
		{
			"name":"Cube.021",
			"primitives":[
				{
					"attributes":{
						"POSITION":82,
						"NORMAL":83,
						"TEXCOORD_0":84,
						"TANGENT":85
					},
					"indices":4
				}
			]
		},
		{
			"name":"Cube.022",
			"primitives":[
				{
					"attributes":{
						"POSITION":86,
						"NORMAL":87,
						"TEXCOORD_0":88,
						"TANGENT":89
					},
					"indices":4
				}
			]
		},
		{
			"name":"Cube.023",
			"primitives":[
				{
					"attributes":{
						"POSITION":90,
						"NORMAL":91,
						"TEXCOORD_0":92,
						"TANGENT":93
					},
					"indices":4
				}
			]
		},
		{
			"name":"Cube.024",
			"primitives":[
				{
					"attributes":{
						"POSITION":94,
						"NORMAL":95,
						"TEXCOORD_0":96,
						"TANGENT":97
					},
					"indices":4
				}
			]
		},
		{
			"name":"Cube.025",
			"primitives":[
				{
					"attributes":{
						"POSITION":98,
						"NORMAL":99,
						"TEXCOORD_0":100,
						"TANGENT":101
					},
					"indices":102
				}
			]
		},
		{
			"name":"Cube.026",
			"primitives":[
				{
					"attributes":{
						"POSITION":103,
						"NORMAL":104,
						"TEXCOORD_0":105,
						"TANGENT":106
					},
					"indices":107
				}
			]
		},
		{
			"name":"Cube.027",
			"primitives":[
				{
					"attributes":{
						"POSITION":108,
						"NORMAL":109,
						"TEXCOORD_0":110,
						"TANGENT":111
					},
					"indices":112
				}
			]
		}
	],
	"accessors":[
		{
			"bufferView":0,
			"componentType":5126,
			"count":24,
			"max":[
				1,
				1,
				1
			],
			"min":[
				-1,
				-79.76359558105469,
				-1
			],
			"type":"VEC3"
		},
		{
			"bufferView":1,
			"componentType":5126,
			"count":24,
			"type":"VEC3"
		},
		{
			"bufferView":2,
			"componentType":5126,
			"count":24,
			"type":"VEC2"
		},
		{
			"bufferView":3,
			"componentType":5126,
			"count":24,
			"type":"VEC4"
		},
		{
			"bufferView":4,
			"componentType":5123,
			"count":36,
			"type":"SCALAR"
		},
		{
			"bufferView":5,
			"componentType":5126,
			"count":3050,
			"max":[
				14.224417686462402,
				2.013495683670044,
				40.064517974853516
			],
			"min":[
				-14.224417686462402,
				-7.800450801849365,
				-11.30064582824707
			],
			"type":"VEC3"
		},
		{
			"bufferView":6,
			"componentType":5126,
			"count":3050,
			"type":"VEC3"
		},
		{
			"bufferView":7,
			"componentType":5126,
			"count":3050,
			"type":"VEC2"
		},
		{
			"bufferView":8,
			"componentType":5123,
			"count":4524,
			"type":"SCALAR"
		},
		{
			"bufferView":9,
			"componentType":5126,
			"count":24,
			"max":[
				1,
				1,
				1
			],
			"min":[
				-1,
				-1,
				-1
			],
			"type":"VEC3"
		},
		{
			"bufferView":10,
			"componentType":5126,
			"count":24,
			"type":"VEC3"
		},
		{
			"bufferView":11,
			"componentType":5126,
			"count":24,
			"type":"VEC2"
		},
		{
			"bufferView":12,
			"componentType":5126,
			"count":24,
			"type":"VEC4"
		},
		{
			"bufferView":13,
			"componentType":5126,
			"count":24,
			"max":[
				1,
				1,
				1
			],
			"min":[
				-1,
				-1,
				-1
			],
			"type":"VEC3"
		},
		{
			"bufferView":14,
			"componentType":5126,
			"count":24,
			"type":"VEC3"
		},
		{
			"bufferView":15,
			"componentType":5126,
			"count":24,
			"type":"VEC2"
		},
		{
			"bufferView":16,
			"componentType":5126,
			"count":24,
			"type":"VEC4"
		},
		{
			"bufferView":17,
			"componentType":5126,
			"count":24,
			"max":[
				1,
				1,
				1
			],
			"min":[
				-1,
				-1,
				-1
			],
			"type":"VEC3"
		},
		{
			"bufferView":18,
			"componentType":5126,
			"count":24,
			"type":"VEC3"
		},
		{
			"bufferView":19,
			"componentType":5126,
			"count":24,
			"type":"VEC2"
		},
		{
			"bufferView":20,
			"componentType":5126,
			"count":24,
			"type":"VEC4"
		},
		{
			"bufferView":21,
			"componentType":5126,
			"count":24,
			"max":[
				1,
				1,
				1
			],
			"min":[
				-1,
				-1,
				-1
			],
			"type":"VEC3"
		},
		{
			"bufferView":22,
			"componentType":5126,
			"count":24,
			"type":"VEC3"
		},
		{
			"bufferView":23,
			"componentType":5126,
			"count":24,
			"type":"VEC2"
		},
		{
			"bufferView":24,
			"componentType":5126,
			"count":24,
			"type":"VEC4"
		},
		{
			"bufferView":25,
			"componentType":5126,
			"count":24,
			"max":[
				1,
				1,
				1
			],
			"min":[
				-1,
				-1,
				-1
			],
			"type":"VEC3"
		},
		{
			"bufferView":26,
			"componentType":5126,
			"count":24,
			"type":"VEC3"
		},
		{
			"bufferView":27,
			"componentType":5126,
			"count":24,
			"type":"VEC2"
		},
		{
			"bufferView":28,
			"componentType":5126,
			"count":24,
			"type":"VEC4"
		},
		{
			"bufferView":29,
			"componentType":5126,
			"count":24,
			"max":[
				1,
				1,
				1
			],
			"min":[
				-1,
				-1,
				-1
			],
			"type":"VEC3"
		},
		{
			"bufferView":30,
			"componentType":5126,
			"count":24,
			"type":"VEC3"
		},
		{
			"bufferView":31,
			"componentType":5126,
			"count":24,
			"type":"VEC2"
		},
		{
			"bufferView":32,
			"componentType":5126,
			"count":24,
			"type":"VEC4"
		},
		{
			"bufferView":33,
			"componentType":5126,
			"count":24,
			"max":[
				1,
				1,
				1
			],
			"min":[
				-1,
				-1,
				-1
			],
			"type":"VEC3"
		},
		{
			"bufferView":34,
			"componentType":5126,
			"count":24,
			"type":"VEC3"
		},
		{
			"bufferView":35,
			"componentType":5126,
			"count":24,
			"type":"VEC2"
		},
		{
			"bufferView":36,
			"componentType":5126,
			"count":24,
			"type":"VEC4"
		},
		{
			"bufferView":37,
			"componentType":5126,
			"count":24,
			"max":[
				1,
				1,
				1
			],
			"min":[
				-1,
				-1,
				-1
			],
			"type":"VEC3"
		},
		{
			"bufferView":38,
			"componentType":5126,
			"count":24,
			"type":"VEC3"
		},
		{
			"bufferView":39,
			"componentType":5126,
			"count":24,
			"type":"VEC2"
		},
		{
			"bufferView":40,
			"componentType":5126,
			"count":24,
			"type":"VEC4"
		},
		{
			"bufferView":41,
			"componentType":5126,
			"count":24,
			"max":[
				1,
				1,
				1
			],
			"min":[
				-1,
				-1,
				-1
			],
			"type":"VEC3"
		},
		{
			"bufferView":42,
			"componentType":5126,
			"count":24,
			"type":"VEC3"
		},
		{
			"bufferView":43,
			"componentType":5126,
			"count":24,
			"type":"VEC2"
		},
		{
			"bufferView":44,
			"componentType":5126,
			"count":24,
			"type":"VEC4"
		},
		{
			"bufferView":45,
			"componentType":5126,
			"count":48,
			"max":[
				1.075096607208252,
				1,
				1
			],
			"min":[
				-13.528566360473633,
				-1,
				-1.0817581415176392
			],
			"type":"VEC3"
		},
		{
			"bufferView":46,
			"componentType":5126,
			"count":48,
			"type":"VEC3"
		},
		{
			"bufferView":47,
			"componentType":5126,
			"count":48,
			"type":"VEC2"
		},
		{
			"bufferView":48,
			"componentType":5126,
			"count":48,
			"type":"VEC4"
		},
		{
			"bufferView":49,
			"componentType":5123,
			"count":72,
			"type":"SCALAR"
		},
		{
			"bufferView":50,
			"componentType":5126,
			"count":48,
			"max":[
				1.075096607208252,
				1,
				1
			],
			"min":[
				-13.528566360473633,
				-1,
				-1.0817581415176392
			],
			"type":"VEC3"
		},
		{
			"bufferView":51,
			"componentType":5126,
			"count":48,
			"type":"VEC3"
		},
		{
			"bufferView":52,
			"componentType":5126,
			"count":48,
			"type":"VEC2"
		},
		{
			"bufferView":53,
			"componentType":5126,
			"count":48,
			"type":"VEC4"
		},
		{
			"bufferView":54,
			"componentType":5126,
			"count":48,
			"max":[
				1.075096607208252,
				1,
				1
			],
			"min":[
				-13.528566360473633,
				-1,
				-1.0817581415176392
			],
			"type":"VEC3"
		},
		{
			"bufferView":55,
			"componentType":5126,
			"count":48,
			"type":"VEC3"
		},
		{
			"bufferView":56,
			"componentType":5126,
			"count":48,
			"type":"VEC2"
		},
		{
			"bufferView":57,
			"componentType":5126,
			"count":48,
			"type":"VEC4"
		},
		{
			"bufferView":58,
			"componentType":5126,
			"count":48,
			"max":[
				1.075096607208252,
				1,
				1
			],
			"min":[
				-13.528566360473633,
				-1,
				-1.0817581415176392
			],
			"type":"VEC3"
		},
		{
			"bufferView":59,
			"componentType":5126,
			"count":48,
			"type":"VEC3"
		},
		{
			"bufferView":60,
			"componentType":5126,
			"count":48,
			"type":"VEC2"
		},
		{
			"bufferView":61,
			"componentType":5126,
			"count":48,
			"type":"VEC4"
		},
		{
			"bufferView":62,
			"componentType":5126,
			"count":48,
			"max":[
				1.075096607208252,
				1,
				1
			],
			"min":[
				-13.528566360473633,
				-1,
				-1.0817581415176392
			],
			"type":"VEC3"
		},
		{
			"bufferView":63,
			"componentType":5126,
			"count":48,
			"type":"VEC3"
		},
		{
			"bufferView":64,
			"componentType":5126,
			"count":48,
			"type":"VEC2"
		},
		{
			"bufferView":65,
			"componentType":5126,
			"count":48,
			"type":"VEC4"
		},
		{
			"bufferView":66,
			"componentType":5126,
			"count":24,
			"max":[
				1,
				1,
				1
			],
			"min":[
				-1,
				-1,
				-1
			],
			"type":"VEC3"
		},
		{
			"bufferView":67,
			"componentType":5126,
			"count":24,
			"type":"VEC3"
		},
		{
			"bufferView":68,
			"componentType":5126,
			"count":24,
			"type":"VEC2"
		},
		{
			"bufferView":69,
			"componentType":5126,
			"count":24,
			"type":"VEC4"
		},
		{
			"bufferView":70,
			"componentType":5126,
			"count":24,
			"max":[
				1,
				1,
				1
			],
			"min":[
				-1,
				-1,
				-1
			],
			"type":"VEC3"
		},
		{
			"bufferView":71,
			"componentType":5126,
			"count":24,
			"type":"VEC3"
		},
		{
			"bufferView":72,
			"componentType":5126,
			"count":24,
			"type":"VEC2"
		},
		{
			"bufferView":73,
			"componentType":5126,
			"count":24,
			"type":"VEC4"
		},
		{
			"bufferView":74,
			"componentType":5126,
			"count":24,
			"max":[
				1,
				1,
				1
			],
			"min":[
				-1,
				-1,
				-1
			],
			"type":"VEC3"
		},
		{
			"bufferView":75,
			"componentType":5126,
			"count":24,
			"type":"VEC3"
		},
		{
			"bufferView":76,
			"componentType":5126,
			"count":24,
			"type":"VEC2"
		},
		{
			"bufferView":77,
			"componentType":5126,
			"count":24,
			"type":"VEC4"
		},
		{
			"bufferView":78,
			"componentType":5126,
			"count":48,
			"max":[
				1.075096607208252,
				1,
				1
			],
			"min":[
				-13.528566360473633,
				-1,
				-1.0817581415176392
			],
			"type":"VEC3"
		},
		{
			"bufferView":79,
			"componentType":5126,
			"count":48,
			"type":"VEC3"
		},
		{
			"bufferView":80,
			"componentType":5126,
			"count":48,
			"type":"VEC2"
		},
		{
			"bufferView":81,
			"componentType":5126,
			"count":48,
			"type":"VEC4"
		},
		{
			"bufferView":82,
			"componentType":5126,
			"count":24,
			"max":[
				1,
				1,
				1
			],
			"min":[
				-1,
				-1,
				-1
			],
			"type":"VEC3"
		},
		{
			"bufferView":83,
			"componentType":5126,
			"count":24,
			"type":"VEC3"
		},
		{
			"bufferView":84,
			"componentType":5126,
			"count":24,
			"type":"VEC2"
		},
		{
			"bufferView":85,
			"componentType":5126,
			"count":24,
			"type":"VEC4"
		},
		{
			"bufferView":86,
			"componentType":5126,
			"count":24,
			"max":[
				1,
				1,
				1
			],
			"min":[
				-1,
				-1,
				-1
			],
			"type":"VEC3"
		},
		{
			"bufferView":87,
			"componentType":5126,
			"count":24,
			"type":"VEC3"
		},
		{
			"bufferView":88,
			"componentType":5126,
			"count":24,
			"type":"VEC2"
		},
		{
			"bufferView":89,
			"componentType":5126,
			"count":24,
			"type":"VEC4"
		},
		{
			"bufferView":90,
			"componentType":5126,
			"count":24,
			"max":[
				1,
				1,
				1
			],
			"min":[
				-1,
				-1,
				-1
			],
			"type":"VEC3"
		},
		{
			"bufferView":91,
			"componentType":5126,
			"count":24,
			"type":"VEC3"
		},
		{
			"bufferView":92,
			"componentType":5126,
			"count":24,
			"type":"VEC2"
		},
		{
			"bufferView":93,
			"componentType":5126,
			"count":24,
			"type":"VEC4"
		},
		{
			"bufferView":94,
			"componentType":5126,
			"count":24,
			"max":[
				1,
				1,
				1
			],
			"min":[
				-1,
				-1,
				-1
			],
			"type":"VEC3"
		},
		{
			"bufferView":95,
			"componentType":5126,
			"count":24,
			"type":"VEC3"
		},
		{
			"bufferView":96,
			"componentType":5126,
			"count":24,
			"type":"VEC2"
		},
		{
			"bufferView":97,
			"componentType":5126,
			"count":24,
			"type":"VEC4"
		},
		{
			"bufferView":98,
			"componentType":5126,
			"count":104,
			"max":[
				24.664642333984375,
				1,
				149.22689819335938
			],
			"min":[
				-12.305121421813965,
				-0.7489078640937805,
				-1
			],
			"type":"VEC3"
		},
		{
			"bufferView":99,
			"componentType":5126,
			"count":104,
			"type":"VEC3"
		},
		{
			"bufferView":100,
			"componentType":5126,
			"count":104,
			"type":"VEC2"
		},
		{
			"bufferView":101,
			"componentType":5126,
			"count":104,
			"type":"VEC4"
		},
		{
			"bufferView":102,
			"componentType":5123,
			"count":228,
			"type":"SCALAR"
		},
		{
			"bufferView":103,
			"componentType":5126,
			"count":211,
			"max":[
				3.3494973182678223,
				1,
				1
			],
			"min":[
				-2.9025473594665527,
				-1,
				-5.423215389251709
			],
			"type":"VEC3"
		},
		{
			"bufferView":104,
			"componentType":5126,
			"count":211,
			"type":"VEC3"
		},
		{
			"bufferView":105,
			"componentType":5126,
			"count":211,
			"type":"VEC2"
		},
		{
			"bufferView":106,
			"componentType":5126,
			"count":211,
			"type":"VEC4"
		},
		{
			"bufferView":107,
			"componentType":5123,
			"count":624,
			"type":"SCALAR"
		},
		{
			"bufferView":108,
			"componentType":5126,
			"count":24,
			"max":[
				1,
				0.8863665461540222,
				1
			],
			"min":[
				-1,
				-1,
				-2.0899908542633057
			],
			"type":"VEC3"
		},
		{
			"bufferView":109,
			"componentType":5126,
			"count":24,
			"type":"VEC3"
		},
		{
			"bufferView":110,
			"componentType":5126,
			"count":24,
			"type":"VEC2"
		},
		{
			"bufferView":111,
			"componentType":5126,
			"count":24,
			"type":"VEC4"
		},
		{
			"bufferView":112,
			"componentType":5123,
			"count":36,
			"type":"SCALAR"
		}
	],
	"bufferViews":[
		{
			"buffer":0,
			"byteLength":288,
			"byteOffset":0,
			"target":34962
		},
		{
			"buffer":0,
			"byteLength":288,
			"byteOffset":288,
			"target":34962
		},
		{
			"buffer":0,
			"byteLength":192,
			"byteOffset":576,
			"target":34962
		},
		{
			"buffer":0,
			"byteLength":384,
			"byteOffset":768,
			"target":34962
		},
		{
			"buffer":0,
			"byteLength":72,
			"byteOffset":1152,
			"target":34963
		},
		{
			"buffer":0,
			"byteLength":36600,
			"byteOffset":1224,
			"target":34962
		},
		{
			"buffer":0,
			"byteLength":36600,
			"byteOffset":37824,
			"target":34962
		},
		{
			"buffer":0,
			"byteLength":24400,
			"byteOffset":74424,
			"target":34962
		},
		{
			"buffer":0,
			"byteLength":9048,
			"byteOffset":98824,
			"target":34963
		},
		{
			"buffer":0,
			"byteLength":288,
			"byteOffset":107872,
			"target":34962
		},
		{
			"buffer":0,
			"byteLength":288,
			"byteOffset":108160,
			"target":34962
		},
		{
			"buffer":0,
			"byteLength":192,
			"byteOffset":108448,
			"target":34962
		},
		{
			"buffer":0,
			"byteLength":384,
			"byteOffset":108640,
			"target":34962
		},
		{
			"buffer":0,
			"byteLength":288,
			"byteOffset":109024,
			"target":34962
		},
		{
			"buffer":0,
			"byteLength":288,
			"byteOffset":109312,
			"target":34962
		},
		{
			"buffer":0,
			"byteLength":192,
			"byteOffset":109600,
			"target":34962
		},
		{
			"buffer":0,
			"byteLength":384,
			"byteOffset":109792,
			"target":34962
		},
		{
			"buffer":0,
			"byteLength":288,
			"byteOffset":110176,
			"target":34962
		},
		{
			"buffer":0,
			"byteLength":288,
			"byteOffset":110464,
			"target":34962
		},
		{
			"buffer":0,
			"byteLength":192,
			"byteOffset":110752,
			"target":34962
		},
		{
			"buffer":0,
			"byteLength":384,
			"byteOffset":110944,
			"target":34962
		},
		{
			"buffer":0,
			"byteLength":288,
			"byteOffset":111328,
			"target":34962
		},
		{
			"buffer":0,
			"byteLength":288,
			"byteOffset":111616,
			"target":34962
		},
		{
			"buffer":0,
			"byteLength":192,
			"byteOffset":111904,
			"target":34962
		},
		{
			"buffer":0,
			"byteLength":384,
			"byteOffset":112096,
			"target":34962
		},
		{
			"buffer":0,
			"byteLength":288,
			"byteOffset":112480,
			"target":34962
		},
		{
			"buffer":0,
			"byteLength":288,
			"byteOffset":112768,
			"target":34962
		},
		{
			"buffer":0,
			"byteLength":192,
			"byteOffset":113056,
			"target":34962
		},
		{
			"buffer":0,
			"byteLength":384,
			"byteOffset":113248,
			"target":34962
		},
		{
			"buffer":0,
			"byteLength":288,
			"byteOffset":113632,
			"target":34962
		},
		{
			"buffer":0,
			"byteLength":288,
			"byteOffset":113920,
			"target":34962
		},
		{
			"buffer":0,
			"byteLength":192,
			"byteOffset":114208,
			"target":34962
		},
		{
			"buffer":0,
			"byteLength":384,
			"byteOffset":114400,
			"target":34962
		},
		{
			"buffer":0,
			"byteLength":288,
			"byteOffset":114784,
			"target":34962
		},
		{
			"buffer":0,
			"byteLength":288,
			"byteOffset":115072,
			"target":34962
		},
		{
			"buffer":0,
			"byteLength":192,
			"byteOffset":115360,
			"target":34962
		},
		{
			"buffer":0,
			"byteLength":384,
			"byteOffset":115552,
			"target":34962
		},
		{
			"buffer":0,
			"byteLength":288,
			"byteOffset":115936,
			"target":34962
		},
		{
			"buffer":0,
			"byteLength":288,
			"byteOffset":116224,
			"target":34962
		},
		{
			"buffer":0,
			"byteLength":192,
			"byteOffset":116512,
			"target":34962
		},
		{
			"buffer":0,
			"byteLength":384,
			"byteOffset":116704,
			"target":34962
		},
		{
			"buffer":0,
			"byteLength":288,
			"byteOffset":117088,
			"target":34962
		},
		{
			"buffer":0,
			"byteLength":288,
			"byteOffset":117376,
			"target":34962
		},
		{
			"buffer":0,
			"byteLength":192,
			"byteOffset":117664,
			"target":34962
		},
		{
			"buffer":0,
			"byteLength":384,
			"byteOffset":117856,
			"target":34962
		},
		{
			"buffer":0,
			"byteLength":576,
			"byteOffset":118240,
			"target":34962
		},
		{
			"buffer":0,
			"byteLength":576,
			"byteOffset":118816,
			"target":34962
		},
		{
			"buffer":0,
			"byteLength":384,
			"byteOffset":119392,
			"target":34962
		},
		{
			"buffer":0,
			"byteLength":768,
			"byteOffset":119776,
			"target":34962
		},
		{
			"buffer":0,
			"byteLength":144,
			"byteOffset":120544,
			"target":34963
		},
		{
			"buffer":0,
			"byteLength":576,
			"byteOffset":120688,
			"target":34962
		},
		{
			"buffer":0,
			"byteLength":576,
			"byteOffset":121264,
			"target":34962
		},
		{
			"buffer":0,
			"byteLength":384,
			"byteOffset":121840,
			"target":34962
		},
		{
			"buffer":0,
			"byteLength":768,
			"byteOffset":122224,
			"target":34962
		},
		{
			"buffer":0,
			"byteLength":576,
			"byteOffset":122992,
			"target":34962
		},
		{
			"buffer":0,
			"byteLength":576,
			"byteOffset":123568,
			"target":34962
		},
		{
			"buffer":0,
			"byteLength":384,
			"byteOffset":124144,
			"target":34962
		},
		{
			"buffer":0,
			"byteLength":768,
			"byteOffset":124528,
			"target":34962
		},
		{
			"buffer":0,
			"byteLength":576,
			"byteOffset":125296,
			"target":34962
		},
		{
			"buffer":0,
			"byteLength":576,
			"byteOffset":125872,
			"target":34962
		},
		{
			"buffer":0,
			"byteLength":384,
			"byteOffset":126448,
			"target":34962
		},
		{
			"buffer":0,
			"byteLength":768,
			"byteOffset":126832,
			"target":34962
		},
		{
			"buffer":0,
			"byteLength":576,
			"byteOffset":127600,
			"target":34962
		},
		{
			"buffer":0,
			"byteLength":576,
			"byteOffset":128176,
			"target":34962
		},
		{
			"buffer":0,
			"byteLength":384,
			"byteOffset":128752,
			"target":34962
		},
		{
			"buffer":0,
			"byteLength":768,
			"byteOffset":129136,
			"target":34962
		},
		{
			"buffer":0,
			"byteLength":288,
			"byteOffset":129904,
			"target":34962
		},
		{
			"buffer":0,
			"byteLength":288,
			"byteOffset":130192,
			"target":34962
		},
		{
			"buffer":0,
			"byteLength":192,
			"byteOffset":130480,
			"target":34962
		},
		{
			"buffer":0,
			"byteLength":384,
			"byteOffset":130672,
			"target":34962
		},
		{
			"buffer":0,
			"byteLength":288,
			"byteOffset":131056,
			"target":34962
		},
		{
			"buffer":0,
			"byteLength":288,
			"byteOffset":131344,
			"target":34962
		},
		{
			"buffer":0,
			"byteLength":192,
			"byteOffset":131632,
			"target":34962
		},
		{
			"buffer":0,
			"byteLength":384,
			"byteOffset":131824,
			"target":34962
		},
		{
			"buffer":0,
			"byteLength":288,
			"byteOffset":132208,
			"target":34962
		},
		{
			"buffer":0,
			"byteLength":288,
			"byteOffset":132496,
			"target":34962
		},
		{
			"buffer":0,
			"byteLength":192,
			"byteOffset":132784,
			"target":34962
		},
		{
			"buffer":0,
			"byteLength":384,
			"byteOffset":132976,
			"target":34962
		},
		{
			"buffer":0,
			"byteLength":576,
			"byteOffset":133360,
			"target":34962
		},
		{
			"buffer":0,
			"byteLength":576,
			"byteOffset":133936,
			"target":34962
		},
		{
			"buffer":0,
			"byteLength":384,
			"byteOffset":134512,
			"target":34962
		},
		{
			"buffer":0,
			"byteLength":768,
			"byteOffset":134896,
			"target":34962
		},
		{
			"buffer":0,
			"byteLength":288,
			"byteOffset":135664,
			"target":34962
		},
		{
			"buffer":0,
			"byteLength":288,
			"byteOffset":135952,
			"target":34962
		},
		{
			"buffer":0,
			"byteLength":192,
			"byteOffset":136240,
			"target":34962
		},
		{
			"buffer":0,
			"byteLength":384,
			"byteOffset":136432,
			"target":34962
		},
		{
			"buffer":0,
			"byteLength":288,
			"byteOffset":136816,
			"target":34962
		},
		{
			"buffer":0,
			"byteLength":288,
			"byteOffset":137104,
			"target":34962
		},
		{
			"buffer":0,
			"byteLength":192,
			"byteOffset":137392,
			"target":34962
		},
		{
			"buffer":0,
			"byteLength":384,
			"byteOffset":137584,
			"target":34962
		},
		{
			"buffer":0,
			"byteLength":288,
			"byteOffset":137968,
			"target":34962
		},
		{
			"buffer":0,
			"byteLength":288,
			"byteOffset":138256,
			"target":34962
		},
		{
			"buffer":0,
			"byteLength":192,
			"byteOffset":138544,
			"target":34962
		},
		{
			"buffer":0,
			"byteLength":384,
			"byteOffset":138736,
			"target":34962
		},
		{
			"buffer":0,
			"byteLength":288,
			"byteOffset":139120,
			"target":34962
		},
		{
			"buffer":0,
			"byteLength":288,
			"byteOffset":139408,
			"target":34962
		},
		{
			"buffer":0,
			"byteLength":192,
			"byteOffset":139696,
			"target":34962
		},
		{
			"buffer":0,
			"byteLength":384,
			"byteOffset":139888,
			"target":34962
		},
		{
			"buffer":0,
			"byteLength":1248,
			"byteOffset":140272,
			"target":34962
		},
		{
			"buffer":0,
			"byteLength":1248,
			"byteOffset":141520,
			"target":34962
		},
		{
			"buffer":0,
			"byteLength":832,
			"byteOffset":142768,
			"target":34962
		},
		{
			"buffer":0,
			"byteLength":1664,
			"byteOffset":143600,
			"target":34962
		},
		{
			"buffer":0,
			"byteLength":456,
			"byteOffset":145264,
			"target":34963
		},
		{
			"buffer":0,
			"byteLength":2532,
			"byteOffset":145720,
			"target":34962
		},
		{
			"buffer":0,
			"byteLength":2532,
			"byteOffset":148252,
			"target":34962
		},
		{
			"buffer":0,
			"byteLength":1688,
			"byteOffset":150784,
			"target":34962
		},
		{
			"buffer":0,
			"byteLength":3376,
			"byteOffset":152472,
			"target":34962
		},
		{
			"buffer":0,
			"byteLength":1248,
			"byteOffset":155848,
			"target":34963
		},
		{
			"buffer":0,
			"byteLength":288,
			"byteOffset":157096,
			"target":34962
		},
		{
			"buffer":0,
			"byteLength":288,
			"byteOffset":157384,
			"target":34962
		},
		{
			"buffer":0,
			"byteLength":192,
			"byteOffset":157672,
			"target":34962
		},
		{
			"buffer":0,
			"byteLength":384,
			"byteOffset":157864,
			"target":34962
		},
		{
			"buffer":0,
			"byteLength":72,
			"byteOffset":158248,
			"target":34963
		}
	],
	"buffers":[
		{
			"byteLength":158320,
			"uri":"maze%20made%20by%20me-c5b235dc66afd83ec0be35be4b283e58.bin"
		}
	]
}
