{
	"asset":{
		"generator":"Khronos glTF Blender I/O v5.0.21",
		"version":"2.0"
	},
	"scene":0,
	"scenes":[
		{
			"name":"Scene",
			"nodes":[
				0,
				1,
				2,
				3,
				4,
				5
			]
		}
	],
	"nodes":[
		{
			"mesh":0,
			"name":"Plane.007",
			"rotation":[
				0.70710688829422,
				0,
				0,
				0.7071066498756409
			],
			"scale":[
				0.03720977529883385,
				0.03720977529883385,
				0.03720977529883385
			],
			"translation":[
				-0.04074239730834961,
				1.4892467260360718,
				0.19810613989830017
			]
		},
		{
			"mesh":1,
			"name":"platform-col",
			"scale":[
				1.717831015586853,
				1,
				1
			],
			"translation":[
				0,
				0.032003648579120636,
				0
			]
		},
		{
			"mesh":2,
			"name":"platform-col.001",
			"rotation":[
				0,
				0,
				-1,
				0
			],
			"scale":[
				-1.717831015586853,
				-1,
				-0.32637155055999756
			],
			"translation":[
				0,
				3.2448391914367676,
				16.72794532775879
			]
		},
		{
			"mesh":3,
			"name":"platform-col.002",
			"rotation":[
				0,
				0,
				-1,
				0
			],
			"scale":[
				-1.717831015586853,
				-1,
				-0.32637155055999756
			],
			"translation":[
				2.7417967319488525,
				3.2448391914367676,
				27.367595672607422
			]
		},
		{
			"mesh":4,
			"name":"platform-col.003",
			"rotation":[
				0,
				0,
				-1,
				0
			],
			"scale":[
				-1.717831015586853,
				-1,
				-0.32637155055999756
			],
			"translation":[
				-1.7127816677093506,
				6.6340789794921875,
				32.693267822265625
			]
		},
		{
			"mesh":5,
			"name":"platform-col.004",
			"rotation":[
				0,
				0,
				-1,
				0
			],
			"scale":[
				-1.717831015586853,
				-1,
				-0.32637155055999756
			],
			"translation":[
				-1.7127816677093506,
				4.97183084487915,
				43.5435791015625
			]
		}
	],
	"materials":[
		{
			"doubleSided":true,
			"name":"Material.001",
			"pbrMetallicRoughness":{
				"metallicFactor":0,
				"roughnessFactor":0.5
			}
		},
		{
			"doubleSided":true,
			"name":"Material.002",
			"pbrMetallicRoughness":{
				"metallicFactor":0,
				"roughnessFactor":0.5
			}
		},
		{
			"doubleSided":true,
			"name":"Material.003",
			"pbrMetallicRoughness":{
				"metallicFactor":0,
				"roughnessFactor":0.5
			}
		},
		{
			"doubleSided":true,
			"name":"Material.004",
			"pbrMetallicRoughness":{
				"metallicFactor":0,
				"roughnessFactor":0.5
			}
		},
		{
			"doubleSided":true,
			"name":"Material.005",
			"pbrMetallicRoughness":{
				"metallicFactor":0,
				"roughnessFactor":0.5
			}
		}
	],
	"meshes":[
		{
			"name":"Plane.002",
			"primitives":[
				{
					"attributes":{
						"POSITION":0,
						"NORMAL":1,
						"TEXCOORD_0":2
					},
					"indices":3
				}
			]
		},
		{
			"name":"Cube.001",
			"primitives":[
				{
					"attributes":{
						"POSITION":4,
						"NORMAL":5,
						"TEXCOORD_0":6,
						"TANGENT":7
					},
					"indices":8,
					"material":0
				}
			]
		},
		{
			"name":"Cube.004",
			"primitives":[
				{
					"attributes":{
						"POSITION":9,
						"NORMAL":10,
						"TEXCOORD_0":11,
						"TANGENT":12
					},
					"indices":8,
					"material":1
				}
			]
		},
		{
			"name":"Cube.005",
			"primitives":[
				{
					"attributes":{
						"POSITION":13,
						"NORMAL":14,
						"TEXCOORD_0":15,
						"TANGENT":16
					},
					"indices":8,
					"material":2
				}
			]
		},
		{
			"name":"Cube.006",
			"primitives":[
				{
					"attributes":{
						"POSITION":17,
						"NORMAL":18,
						"TEXCOORD_0":19,
						"TANGENT":20
					},
					"indices":8,
					"material":3
				}
			]
		},
		{
			"name":"Cube.007",
			"primitives":[
				{
					"attributes":{
						"POSITION":21,
						"NORMAL":22,
						"TEXCOORD_0":23,
						"TANGENT":24
					},
					"indices":8,
					"material":4
				}
			]
		}
	],
	"accessors":[
		{
			"bufferView":0,
			"componentType":5126,
			"count":3050,
			"max":[
				14.224417686462402,
				2.013495683670044,
				40.064517974853516
			],
			"min":[
				-14.224417686462402,
				-7.800450801849365,
				-11.30064582824707
			],
			"type":"VEC3"
		},
		{
			"bufferView":1,
			"componentType":5126,
			"count":3050,
			"type":"VEC3"
		},
		{
			"bufferView":2,
			"componentType":5126,
			"count":3050,
			"type":"VEC2"
		},
		{
			"bufferView":3,
			"componentType":5123,
			"count":4524,
			"type":"SCALAR"
		},
		{
			"bufferView":4,
			"componentType":5126,
			"count":24,
			"max":[
				1,
				-0.015621304512023926,
				10.622222900390625
			],
			"min":[
				-1,
				-1.004063606262207,
				-1
			],
			"type":"VEC3"
		},
		{
			"bufferView":5,
			"componentType":5126,
			"count":24,
			"type":"VEC3"
		},
		{
			"bufferView":6,
			"componentType":5126,
			"count":24,
			"type":"VEC2"
		},
		{
			"bufferView":7,
			"componentType":5126,
			"count":24,
			"type":"VEC4"
		},
		{
			"bufferView":8,
			"componentType":5123,
			"count":36,
			"type":"SCALAR"
		},
		{
			"bufferView":9,
			"componentType":5126,
			"count":24,
			"max":[
				1,
				-0.015621304512023926,
				10.622222900390625
			],
			"min":[
				-1,
				-1.004063606262207,
				-1
			],
			"type":"VEC3"
		},
		{
			"bufferView":10,
			"componentType":5126,
			"count":24,
			"type":"VEC3"
		},
		{
			"bufferView":11,
			"componentType":5126,
			"count":24,
			"type":"VEC2"
		},
		{
			"bufferView":12,
			"componentType":5126,
			"count":24,
			"type":"VEC4"
		},
		{
			"bufferView":13,
			"componentType":5126,
			"count":24,
			"max":[
				1,
				-0.015621304512023926,
				10.622222900390625
			],
			"min":[
				-1,
				-1.004063606262207,
				-1
			],
			"type":"VEC3"
		},
		{
			"bufferView":14,
			"componentType":5126,
			"count":24,
			"type":"VEC3"
		},
		{
			"bufferView":15,
			"componentType":5126,
			"count":24,
			"type":"VEC2"
		},
		{
			"bufferView":16,
			"componentType":5126,
			"count":24,
			"type":"VEC4"
		},
		{
			"bufferView":17,
			"componentType":5126,
			"count":24,
			"max":[
				1,
				-0.015621304512023926,
				10.622222900390625
			],
			"min":[
				-1,
				-1.004063606262207,
				-1
			],
			"type":"VEC3"
		},
		{
			"bufferView":18,
			"componentType":5126,
			"count":24,
			"type":"VEC3"
		},
		{
			"bufferView":19,
			"componentType":5126,
			"count":24,
			"type":"VEC2"
		},
		{
			"bufferView":20,
			"componentType":5126,
			"count":24,
			"type":"VEC4"
		},
		{
			"bufferView":21,
			"componentType":5126,
			"count":24,
			"max":[
				1,
				-0.015621304512023926,
				10.622222900390625
			],
			"min":[
				-1,
				-1.004063606262207,
				-1
			],
			"type":"VEC3"
		},
		{
			"bufferView":22,
			"componentType":5126,
			"count":24,
			"type":"VEC3"
		},
		{
			"bufferView":23,
			"componentType":5126,
			"count":24,
			"type":"VEC2"
		},
		{
			"bufferView":24,
			"componentType":5126,
			"count":24,
			"type":"VEC4"
		}
	],
	"bufferViews":[
		{
			"buffer":0,
			"byteLength":36600,
			"byteOffset":0,
			"target":34962
		},
		{
			"buffer":0,
			"byteLength":36600,
			"byteOffset":36600,
			"target":34962
		},
		{
			"buffer":0,
			"byteLength":24400,
			"byteOffset":73200,
			"target":34962
		},
		{
			"buffer":0,
			"byteLength":9048,
			"byteOffset":97600,
			"target":34963
		},
		{
			"buffer":0,
			"byteLength":288,
			"byteOffset":106648,
			"target":34962
		},
		{
			"buffer":0,
			"byteLength":288,
			"byteOffset":106936,
			"target":34962
		},
		{
			"buffer":0,
			"byteLength":192,
			"byteOffset":107224,
			"target":34962
		},
		{
			"buffer":0,
			"byteLength":384,
			"byteOffset":107416,
			"target":34962
		},
		{
			"buffer":0,
			"byteLength":72,
			"byteOffset":107800,
			"target":34963
		},
		{
			"buffer":0,
			"byteLength":288,
			"byteOffset":107872,
			"target":34962
		},
		{
			"buffer":0,
			"byteLength":288,
			"byteOffset":108160,
			"target":34962
		},
		{
			"buffer":0,
			"byteLength":192,
			"byteOffset":108448,
			"target":34962
		},
		{
			"buffer":0,
			"byteLength":384,
			"byteOffset":108640,
			"target":34962
		},
		{
			"buffer":0,
			"byteLength":288,
			"byteOffset":109024,
			"target":34962
		},
		{
			"buffer":0,
			"byteLength":288,
			"byteOffset":109312,
			"target":34962
		},
		{
			"buffer":0,
			"byteLength":192,
			"byteOffset":109600,
			"target":34962
		},
		{
			"buffer":0,
			"byteLength":384,
			"byteOffset":109792,
			"target":34962
		},
		{
			"buffer":0,
			"byteLength":288,
			"byteOffset":110176,
			"target":34962
		},
		{
			"buffer":0,
			"byteLength":288,
			"byteOffset":110464,
			"target":34962
		},
		{
			"buffer":0,
			"byteLength":192,
			"byteOffset":110752,
			"target":34962
		},
		{
			"buffer":0,
			"byteLength":384,
			"byteOffset":110944,
			"target":34962
		},
		{
			"buffer":0,
			"byteLength":288,
			"byteOffset":111328,
			"target":34962
		},
		{
			"buffer":0,
			"byteLength":288,
			"byteOffset":111616,
			"target":34962
		},
		{
			"buffer":0,
			"byteLength":192,
			"byteOffset":111904,
			"target":34962
		},
		{
			"buffer":0,
			"byteLength":384,
			"byteOffset":112096,
			"target":34962
		}
	],
	"buffers":[
		{
			"byteLength":112480,
			"uri":"parkout%20%28made%20by%20me%29-c353d91985e25148168e21f550871895.bin"
		}
	]
}
