{
	"asset":{
		"generator":"Khronos glTF Blender I/O v5.0.21",
		"version":"2.0"
	},
	"scene":0,
	"scenes":[
		{
			"name":"Scene",
			"nodes":[
				5
			]
		}
	],
	"nodes":[
		{
			"mesh":0,
			"name":"Barrel.001",
			"rotation":[
				0,
				0,
				0.7071066498756409,
				0.70710688829422
			],
			"translation":[
				0.18000002205371857,
				0.07999997586011887,
				0
			]
		},
		{
			"mesh":1,
			"name":"Forend.001",
			"rotation":[
				0,
				0,
				0.7071066498756409,
				0.70710688829422
			],
			"translation":[
				0.7159573435783386,
				-0.0801529735326767,
				0.00011218764120712876
			]
		},
		{
			"mesh":2,
			"name":"Magazine Tube.001",
			"rotation":[
				0,
				0,
				0.7071066498756409,
				0.70710688829422
			],
			"translation":[
				0.17999997735023499,
				-0.08000004291534424,
				0
			]
		},
		{
			"mesh":3,
			"name":"Trigger Guard.001",
			"translation":[
				-0.5981458425521851,
				-0.20713560283184052,
				0
			]
		},
		{
			"mesh":4,
			"name":"Trigger.001",
			"translation":[
				-0.6500000357627869,
				-0.14000003039836884,
				0
			]
		},
		{
			"children":[
				0,
				1,
				2,
				3,
				4
			],
			"mesh":5,
			"name":"Shotgun",
			"rotation":[
				-0.009069014340639114,
				0.0015793528873473406,
				0.0021124635823071003,
				0.999955415725708
			],
			"translation":[
				0,
				0.5,
				0
			]
		}
	],
	"animations":[
		{
			"channels":[
				{
					"sampler":0,
					"target":{
						"node":1,
						"path":"translation"
					}
				},
				{
					"sampler":1,
					"target":{
						"node":1,
						"path":"rotation"
					}
				},
				{
					"sampler":2,
					"target":{
						"node":1,
						"path":"scale"
					}
				}
			],
			"name":"Forend.001Action",
			"samplers":[
				{
					"input":29,
					"interpolation":"LINEAR",
					"output":30
				},
				{
					"input":31,
					"interpolation":"STEP",
					"output":32
				},
				{
					"input":31,
					"interpolation":"STEP",
					"output":33
				}
			]
		}
	],
	"materials":[
		{
			"alphaMode":"BLEND",
			"doubleSided":true,
			"name":"M_Shotgun",
			"pbrMetallicRoughness":{
				"baseColorTexture":{
					"index":0
				},
				"metallicFactor":0
			}
		}
	],
	"meshes":[
		{
			"name":"Cylinder.004",
			"primitives":[
				{
					"attributes":{
						"POSITION":0,
						"NORMAL":1,
						"TEXCOORD_0":2,
						"TANGENT":3
					},
					"indices":4,
					"material":0
				}
			]
		},
		{
			"name":"Cylinder.009",
			"primitives":[
				{
					"attributes":{
						"POSITION":5,
						"NORMAL":6,
						"TEXCOORD_0":7,
						"TANGENT":8
					},
					"indices":9,
					"material":0
				}
			]
		},
		{
			"name":"Cylinder.008",
			"primitives":[
				{
					"attributes":{
						"POSITION":10,
						"NORMAL":11,
						"TEXCOORD_0":12,
						"TANGENT":13
					},
					"indices":14,
					"material":0
				}
			]
		},
		{
			"name":"Cube.010",
			"primitives":[
				{
					"attributes":{
						"POSITION":15,
						"NORMAL":16,
						"TEXCOORD_0":17,
						"TANGENT":18
					},
					"indices":19,
					"material":0
				}
			]
		},
		{
			"name":"Cube.011",
			"primitives":[
				{
					"attributes":{
						"POSITION":20,
						"NORMAL":21,
						"TEXCOORD_0":22,
						"TANGENT":23
					},
					"indices":24,
					"material":0
				}
			]
		},
		{
			"name":"Cube.009",
			"primitives":[
				{
					"attributes":{
						"POSITION":25,
						"NORMAL":26,
						"TEXCOORD_0":27
					},
					"indices":28,
					"material":0
				}
			]
		}
	],
	"textures":[
		{
			"sampler":0,
			"source":0
		}
	],
	"images":[
		{
			"mimeType":"image/png",
			"name":"T_Shotgun512.png",
			"uri":"../../blender/textures/T_Shotgun512.png"
		}
	],
	"accessors":[
		{
			"bufferView":0,
			"componentType":5126,
			"count":54,
			"max":[
				0.06928221881389618,
				1.9073491230869877e-08,
				0.08000002056360245
			],
			"min":[
				-0.06928204745054245,
				-2.319999933242798,
				-0.08000002056360245
			],
			"type":"VEC3"
		},
		{
			"bufferView":1,
			"componentType":5126,
			"count":54,
			"type":"VEC3"
		},
		{
			"bufferView":2,
			"componentType":5126,
			"count":54,
			"type":"VEC2"
		},
		{
			"bufferView":3,
			"componentType":5126,
			"count":54,
			"type":"VEC4"
		},
		{
			"bufferView":4,
			"componentType":5123,
			"count":84,
			"type":"SCALAR"
		},
		{
			"bufferView":5,
			"componentType":5126,
			"count":32,
			"max":[
				0.09422368556261063,
				1.525879333996727e-08,
				0.10880003124475479
			],
			"min":[
				-0.09422358125448227,
				-0.9199997186660767,
				-0.10880003124475479
			],
			"type":"VEC3"
		},
		{
			"bufferView":6,
			"componentType":5126,
			"count":32,
			"type":"VEC3"
		},
		{
			"bufferView":7,
			"componentType":5126,
			"count":32,
			"type":"VEC2"
		},
		{
			"bufferView":8,
			"componentType":5126,
			"count":32,
			"type":"VEC4"
		},
		{
			"bufferView":9,
			"componentType":5123,
			"count":60,
			"type":"SCALAR"
		},
		{
			"bufferView":10,
			"componentType":5126,
			"count":74,
			"max":[
				0.09400012344121933,
				1.8278710101071738e-08,
				0.06400001794099808
			],
			"min":[
				-0.05542563647031784,
				-1.5200001001358032,
				-0.06400001794099808
			],
			"type":"VEC3"
		},
		{
			"bufferView":11,
			"componentType":5126,
			"count":74,
			"type":"VEC3"
		},
		{
			"bufferView":12,
			"componentType":5126,
			"count":74,
			"type":"VEC2"
		},
		{
			"bufferView":13,
			"componentType":5126,
			"count":74,
			"type":"VEC4"
		},
		{
			"bufferView":14,
			"componentType":5123,
			"count":126,
			"type":"SCALAR"
		},
		{
			"bufferView":15,
			"componentType":5126,
			"count":100,
			"max":[
				0.2818438708782196,
				0.06739998608827591,
				0.022947650402784348
			],
			"min":[
				-0.21972250938415527,
				-0.07516246289014816,
				-0.022947626188397408
			],
			"type":"VEC3"
		},
		{
			"bufferView":16,
			"componentType":5126,
			"count":100,
			"type":"VEC3"
		},
		{
			"bufferView":17,
			"componentType":5126,
			"count":100,
			"type":"VEC2"
		},
		{
			"bufferView":18,
			"componentType":5126,
			"count":100,
			"type":"VEC4"
		},
		{
			"bufferView":19,
			"componentType":5123,
			"count":192,
			"type":"SCALAR"
		},
		{
			"bufferView":20,
			"componentType":5126,
			"count":42,
			"max":[
				7.450580596923828e-09,
				3.3527612686157227e-08,
				0.0075000254437327385
			],
			"min":[
				-0.08000000566244125,
				-0.11500003188848495,
				-0.007499972824007273
			],
			"type":"VEC3"
		},
		{
			"bufferView":21,
			"componentType":5126,
			"count":42,
			"type":"VEC3"
		},
		{
			"bufferView":22,
			"componentType":5126,
			"count":42,
			"type":"VEC2"
		},
		{
			"bufferView":23,
			"componentType":5126,
			"count":42,
			"type":"VEC4"
		},
		{
			"bufferView":24,
			"componentType":5123,
			"count":78,
			"type":"SCALAR"
		},
		{
			"bufferView":25,
			"componentType":5126,
			"count":122,
			"max":[
				0.18113206326961517,
				0.1660381704568863,
				0.1000000387430191
			],
			"min":[
				-2.5,
				-0.7652067542076111,
				-0.1000000387430191
			],
			"type":"VEC3"
		},
		{
			"bufferView":26,
			"componentType":5126,
			"count":122,
			"type":"VEC3"
		},
		{
			"bufferView":27,
			"componentType":5126,
			"count":122,
			"type":"VEC2"
		},
		{
			"bufferView":28,
			"componentType":5123,
			"count":324,
			"type":"SCALAR"
		},
		{
			"bufferView":29,
			"componentType":5126,
			"count":31,
			"max":[
				1.2916666666666667
			],
			"min":[
				0.041666666666666664
			],
			"type":"SCALAR"
		},
		{
			"bufferView":30,
			"componentType":5126,
			"count":31,
			"type":"VEC3"
		},
		{
			"bufferView":31,
			"componentType":5126,
			"count":2,
			"max":[
				1.2916666666666667
			],
			"min":[
				0.041666666666666664
			],
			"type":"SCALAR"
		},
		{
			"bufferView":32,
			"componentType":5126,
			"count":2,
			"type":"VEC4"
		},
		{
			"bufferView":33,
			"componentType":5126,
			"count":2,
			"type":"VEC3"
		}
	],
	"bufferViews":[
		{
			"buffer":0,
			"byteLength":648,
			"byteOffset":0,
			"target":34962
		},
		{
			"buffer":0,
			"byteLength":648,
			"byteOffset":648,
			"target":34962
		},
		{
			"buffer":0,
			"byteLength":432,
			"byteOffset":1296,
			"target":34962
		},
		{
			"buffer":0,
			"byteLength":864,
			"byteOffset":1728,
			"target":34962
		},
		{
			"buffer":0,
			"byteLength":168,
			"byteOffset":2592,
			"target":34963
		},
		{
			"buffer":0,
			"byteLength":384,
			"byteOffset":2760,
			"target":34962
		},
		{
			"buffer":0,
			"byteLength":384,
			"byteOffset":3144,
			"target":34962
		},
		{
			"buffer":0,
			"byteLength":256,
			"byteOffset":3528,
			"target":34962
		},
		{
			"buffer":0,
			"byteLength":512,
			"byteOffset":3784,
			"target":34962
		},
		{
			"buffer":0,
			"byteLength":120,
			"byteOffset":4296,
			"target":34963
		},
		{
			"buffer":0,
			"byteLength":888,
			"byteOffset":4416,
			"target":34962
		},
		{
			"buffer":0,
			"byteLength":888,
			"byteOffset":5304,
			"target":34962
		},
		{
			"buffer":0,
			"byteLength":592,
			"byteOffset":6192,
			"target":34962
		},
		{
			"buffer":0,
			"byteLength":1184,
			"byteOffset":6784,
			"target":34962
		},
		{
			"buffer":0,
			"byteLength":252,
			"byteOffset":7968,
			"target":34963
		},
		{
			"buffer":0,
			"byteLength":1200,
			"byteOffset":8220,
			"target":34962
		},
		{
			"buffer":0,
			"byteLength":1200,
			"byteOffset":9420,
			"target":34962
		},
		{
			"buffer":0,
			"byteLength":800,
			"byteOffset":10620,
			"target":34962
		},
		{
			"buffer":0,
			"byteLength":1600,
			"byteOffset":11420,
			"target":34962
		},
		{
			"buffer":0,
			"byteLength":384,
			"byteOffset":13020,
			"target":34963
		},
		{
			"buffer":0,
			"byteLength":504,
			"byteOffset":13404,
			"target":34962
		},
		{
			"buffer":0,
			"byteLength":504,
			"byteOffset":13908,
			"target":34962
		},
		{
			"buffer":0,
			"byteLength":336,
			"byteOffset":14412,
			"target":34962
		},
		{
			"buffer":0,
			"byteLength":672,
			"byteOffset":14748,
			"target":34962
		},
		{
			"buffer":0,
			"byteLength":156,
			"byteOffset":15420,
			"target":34963
		},
		{
			"buffer":0,
			"byteLength":1464,
			"byteOffset":15576,
			"target":34962
		},
		{
			"buffer":0,
			"byteLength":1464,
			"byteOffset":17040,
			"target":34962
		},
		{
			"buffer":0,
			"byteLength":976,
			"byteOffset":18504,
			"target":34962
		},
		{
			"buffer":0,
			"byteLength":648,
			"byteOffset":19480,
			"target":34963
		},
		{
			"buffer":0,
			"byteLength":124,
			"byteOffset":20128
		},
		{
			"buffer":0,
			"byteLength":372,
			"byteOffset":20252
		},
		{
			"buffer":0,
			"byteLength":8,
			"byteOffset":20624
		},
		{
			"buffer":0,
			"byteLength":32,
			"byteOffset":20632
		},
		{
			"buffer":0,
			"byteLength":24,
			"byteOffset":20664
		}
	],
	"samplers":[
		{
			"magFilter":9729,
			"minFilter":9987
		}
	],
	"buffers":[
		{
			"byteLength":20688,
			"uri":"shotgun%200.001-411c14118af3efbe12ad3faf69a92998.bin"
		}
	]
}
