{
	"asset":{
		"generator":"Khronos glTF Blender I/O v5.0.21",
		"version":"2.0"
	},
	"scene":0,
	"scenes":[
		{
			"name":"Scene",
			"nodes":[
				0
			]
		}
	],
	"nodes":[
		{
			"mesh":0,
			"name":"SM_Armchair",
			"translation":[
				0,
				0.07074295729398727,
				0
			]
		}
	],
	"materials":[
		{
			"doubleSided":true,
			"name":"M_PSX_Armchair",
			"pbrMetallicRoughness":{
				"baseColorTexture":{
					"index":0
				},
				"metallicFactor":0,
				"roughnessFactor":0.5
			}
		}
	],
	"meshes":[
		{
			"name":"Cube.006",
			"primitives":[
				{
					"attributes":{
						"POSITION":0,
						"NORMAL":1,
						"TEXCOORD_0":2,
						"TANGENT":3
					},
					"indices":4,
					"material":0
				}
			]
		}
	],
	"textures":[
		{
			"sampler":0,
			"source":0
		}
	],
	"images":[
		{
			"mimeType":"image/png",
			"name":"Armchair_BaseColor",
			"uri":"../../blender/textures/Armchair_BaseColor.png"
		}
	],
	"accessors":[
		{
			"bufferView":0,
			"componentType":5126,
			"count":319,
			"max":[
				0.6021792888641357,
				1.338303804397583,
				0.5205656290054321
			],
			"min":[
				-0.6021792888641357,
				-0.07063648104667664,
				-0.6400924921035767
			],
			"type":"VEC3"
		},
		{
			"bufferView":1,
			"componentType":5126,
			"count":319,
			"type":"VEC3"
		},
		{
			"bufferView":2,
			"componentType":5126,
			"count":319,
			"type":"VEC2"
		},
		{
			"bufferView":3,
			"componentType":5126,
			"count":319,
			"type":"VEC4"
		},
		{
			"bufferView":4,
			"componentType":5123,
			"count":816,
			"type":"SCALAR"
		}
	],
	"bufferViews":[
		{
			"buffer":0,
			"byteLength":3828,
			"byteOffset":0,
			"target":34962
		},
		{
			"buffer":0,
			"byteLength":3828,
			"byteOffset":3828,
			"target":34962
		},
		{
			"buffer":0,
			"byteLength":2552,
			"byteOffset":7656,
			"target":34962
		},
		{
			"buffer":0,
			"byteLength":5104,
			"byteOffset":10208,
			"target":34962
		},
		{
			"buffer":0,
			"byteLength":1632,
			"byteOffset":15312,
			"target":34963
		}
	],
	"samplers":[
		{
			"magFilter":9728,
			"minFilter":9984
		}
	],
	"buffers":[
		{
			"byteLength":16944,
			"uri":"smallsofa-79f01f2e51a9400f408b9e538ed7f5f0.bin"
		}
	]
}
