{
	"asset":{
		"generator":"Khronos glTF Blender I/O v5.0.21",
		"version":"2.0"
	},
	"scene":0,
	"scenes":[
		{
			"name":"Scene",
			"nodes":[
				0,
				1,
				2
			]
		}
	],
	"nodes":[
		{
			"mesh":0,
			"name":"SM_TVStand",
			"rotation":[
				0,
				1,
				0,
				0
			],
			"translation":[
				0,
				0.37133803963661194,
				0
			]
		},
		{
			"mesh":1,
			"name":"SM_Drawer_01"
		},
		{
			"mesh":2,
			"name":"SM_Drawer_02",
			"rotation":[
				1,
				0,
				0,
				0
			],
			"scale":[
				-1,
				-1,
				-1
			]
		}
	],
	"materials":[
		{
			"doubleSided":true,
			"name":"M_PSX_Wood",
			"pbrMetallicRoughness":{
				"baseColorTexture":{
					"index":0
				},
				"metallicFactor":0,
				"roughnessFactor":0.5
			}
		}
	],
	"meshes":[
		{
			"name":"Cube.029",
			"primitives":[
				{
					"attributes":{
						"POSITION":0,
						"NORMAL":1,
						"TEXCOORD_0":2,
						"TEXCOORD_1":3,
						"TANGENT":4
					},
					"indices":5,
					"material":0
				}
			]
		},
		{
			"name":"Cube.039",
			"primitives":[
				{
					"attributes":{
						"POSITION":6,
						"NORMAL":7,
						"TEXCOORD_0":8,
						"TANGENT":9
					},
					"indices":10,
					"material":0
				}
			]
		},
		{
			"name":"Cube.040",
			"primitives":[
				{
					"attributes":{
						"POSITION":11,
						"NORMAL":12,
						"TEXCOORD_0":13,
						"TANGENT":14
					},
					"indices":10,
					"material":0
				}
			]
		}
	],
	"textures":[
		{
			"sampler":0,
			"source":0
		}
	],
	"images":[
		{
			"mimeType":"image/png",
			"name":"PSX_Wood",
			"uri":"../../textures/PSX_Wood.png"
		}
	],
	"accessors":[
		{
			"bufferView":0,
			"componentType":5126,
			"count":240,
			"max":[
				0.5960586071014404,
				0.4938659965991974,
				0.5651566982269287
			],
			"min":[
				-0.5960584878921509,
				-0.37133702635765076,
				-0.5651566982269287
			],
			"type":"VEC3"
		},
		{
			"bufferView":1,
			"componentType":5126,
			"count":240,
			"type":"VEC3"
		},
		{
			"bufferView":2,
			"componentType":5126,
			"count":240,
			"type":"VEC2"
		},
		{
			"bufferView":3,
			"componentType":5126,
			"count":240,
			"type":"VEC2"
		},
		{
			"bufferView":4,
			"componentType":5126,
			"count":240,
			"type":"VEC4"
		},
		{
			"bufferView":5,
			"componentType":5123,
			"count":420,
			"type":"SCALAR"
		},
		{
			"bufferView":6,
			"componentType":5126,
			"count":96,
			"max":[
				-0.058044299483299255,
				0.7834621667861938,
				0.5925410985946655
			],
			"min":[
				-0.42549848556518555,
				0.6732145547866821,
				0.08886247873306274
			],
			"type":"VEC3"
		},
		{
			"bufferView":7,
			"componentType":5126,
			"count":96,
			"type":"VEC3"
		},
		{
			"bufferView":8,
			"componentType":5126,
			"count":96,
			"type":"VEC2"
		},
		{
			"bufferView":9,
			"componentType":5126,
			"count":96,
			"type":"VEC4"
		},
		{
			"bufferView":10,
			"componentType":5123,
			"count":168,
			"type":"SCALAR"
		},
		{
			"bufferView":11,
			"componentType":5126,
			"count":96,
			"max":[
				-0.058044299483299255,
				0.7834621667861938,
				0.5925410985946655
			],
			"min":[
				-0.42549848556518555,
				0.6732145547866821,
				0.08886247873306274
			],
			"type":"VEC3"
		},
		{
			"bufferView":12,
			"componentType":5126,
			"count":96,
			"type":"VEC3"
		},
		{
			"bufferView":13,
			"componentType":5126,
			"count":96,
			"type":"VEC2"
		},
		{
			"bufferView":14,
			"componentType":5126,
			"count":96,
			"type":"VEC4"
		}
	],
	"bufferViews":[
		{
			"buffer":0,
			"byteLength":2880,
			"byteOffset":0,
			"target":34962
		},
		{
			"buffer":0,
			"byteLength":2880,
			"byteOffset":2880,
			"target":34962
		},
		{
			"buffer":0,
			"byteLength":1920,
			"byteOffset":5760,
			"target":34962
		},
		{
			"buffer":0,
			"byteLength":1920,
			"byteOffset":7680,
			"target":34962
		},
		{
			"buffer":0,
			"byteLength":3840,
			"byteOffset":9600,
			"target":34962
		},
		{
			"buffer":0,
			"byteLength":840,
			"byteOffset":13440,
			"target":34963
		},
		{
			"buffer":0,
			"byteLength":1152,
			"byteOffset":14280,
			"target":34962
		},
		{
			"buffer":0,
			"byteLength":1152,
			"byteOffset":15432,
			"target":34962
		},
		{
			"buffer":0,
			"byteLength":768,
			"byteOffset":16584,
			"target":34962
		},
		{
			"buffer":0,
			"byteLength":1536,
			"byteOffset":17352,
			"target":34962
		},
		{
			"buffer":0,
			"byteLength":336,
			"byteOffset":18888,
			"target":34963
		},
		{
			"buffer":0,
			"byteLength":1152,
			"byteOffset":19224,
			"target":34962
		},
		{
			"buffer":0,
			"byteLength":1152,
			"byteOffset":20376,
			"target":34962
		},
		{
			"buffer":0,
			"byteLength":768,
			"byteOffset":21528,
			"target":34962
		},
		{
			"buffer":0,
			"byteLength":1536,
			"byteOffset":22296,
			"target":34962
		}
	],
	"samplers":[
		{
			"magFilter":9728,
			"minFilter":9984
		}
	],
	"buffers":[
		{
			"byteLength":23832,
			"uri":"Table0.0002-121181c360a7eab96d32df86e92e32da.bin"
		}
	]
}
