{
	"asset":{
		"generator":"Khronos glTF Blender I/O v5.0.21",
		"version":"2.0"
	},
	"scene":0,
	"scenes":[
		{
			"name":"Scene",
			"nodes":[
				0
			]
		}
	],
	"nodes":[
		{
			"mesh":0,
			"name":"Cylinder",
			"rotation":[
				0.7071068286895752,
				0,
				0,
				0.7071068286895752
			],
			"scale":[
				0.48311540484428406,
				0.39196836948394775,
				0.4784749746322632
			],
			"translation":[
				0,
				4.193774700164795,
				0
			]
		}
	],
	"meshes":[
		{
			"name":"Cylinder",
			"primitives":[
				{
					"attributes":{
						"POSITION":0,
						"NORMAL":1,
						"TEXCOORD_0":2
					},
					"indices":3
				}
			]
		}
	],
	"accessors":[
		{
			"bufferView":0,
			"componentType":5126,
			"count":448,
			"max":[
				2.0499961376190186,
				14.386927604675293,
				2.081775426864624
			],
			"min":[
				-2.0499961376190186,
				-0.5183071494102478,
				-2.0817744731903076
			],
			"type":"VEC3"
		},
		{
			"bufferView":1,
			"componentType":5126,
			"count":448,
			"type":"VEC3"
		},
		{
			"bufferView":2,
			"componentType":5126,
			"count":448,
			"type":"VEC2"
		},
		{
			"bufferView":3,
			"componentType":5123,
			"count":756,
			"type":"SCALAR"
		}
	],
	"bufferViews":[
		{
			"buffer":0,
			"byteLength":5376,
			"byteOffset":0,
			"target":34962
		},
		{
			"buffer":0,
			"byteLength":5376,
			"byteOffset":5376,
			"target":34962
		},
		{
			"buffer":0,
			"byteLength":3584,
			"byteOffset":10752,
			"target":34962
		},
		{
			"buffer":0,
			"byteLength":1512,
			"byteOffset":14336,
			"target":34963
		}
	],
	"buffers":[
		{
			"byteLength":15848,
			"uri":"torch0.1-11db783bc9ed982bed8dac1cad6e20cc.bin"
		}
	]
}
