{
	"asset":{
		"generator":"Khronos glTF Blender I/O v5.0.21",
		"version":"2.0"
	},
	"scene":0,
	"scenes":[
		{
			"name":"Scene",
			"nodes":[
				5
			]
		}
	],
	"nodes":[
		{
			"mesh":0,
			"name":"Clothes Hanging Bar.001",
			"translation":[
				0.0020318031311035156,
				0.5919964909553528,
				0.03809639438986778
			]
		},
		{
			"mesh":1,
			"name":"Wardrobe Door Left.001",
			"rotation":[
				0,
				-0.593520998954773,
				0,
				0.8048185110092163
			],
			"scale":[
				0.37474048137664795,
				0.37474048137664795,
				0.37474051117897034
			],
			"translation":[
				-0.6099638938903809,
				0.23854421079158783,
				0.41107699275016785
			]
		},
		{
			"mesh":2,
			"name":"Wardrobe Door Right.001",
			"translation":[
				0.17429351806640625,
				0.23854397237300873,
				0.41107624769210815
			]
		},
		{
			"mesh":3,
			"name":"Wardrobe Drawer 2.001",
			"translation":[
				-0.0022988319396972656,
				-0.9084396958351135,
				0.19522719085216522
			]
		},
		{
			"mesh":4,
			"name":"Wardrobe Drawer 2.002",
			"translation":[
				-0.0022988319396972656,
				-0.6441079378128052,
				0.19522720575332642
			]
		},
		{
			"children":[
				0,
				1,
				2,
				3,
				4
			],
			"mesh":5,
			"name":"wardrobe-col",
			"translation":[
				-0.07703828811645508,
				1.2044668197631836,
				-0.3323616683483124
			]
		}
	],
	"materials":[
		{
			"doubleSided":true,
			"name":"Hanger Bar",
			"pbrMetallicRoughness":{
				"baseColorFactor":[
					0.023605331778526306,
					0.023605331778526306,
					0.023605331778526306,
					1
				],
				"metallicFactor":0,
				"roughnessFactor":0.5
			}
		},
		{
			"doubleSided":true,
			"name":"Wardrobe",
			"pbrMetallicRoughness":{
				"metallicFactor":0,
				"roughnessFactor":0.4000000059604645
			}
		},
		{
			"doubleSided":true,
			"name":"Wardrobe Door Handle",
			"pbrMetallicRoughness":{
				"baseColorFactor":[
					0.01825636625289917,
					0.01825636625289917,
					0.01825636625289917,
					1
				],
				"metallicFactor":0,
				"roughnessFactor":0.5
			}
		}
	],
	"meshes":[
		{
			"name":"Cylinder.001",
			"primitives":[
				{
					"attributes":{
						"POSITION":0,
						"NORMAL":1,
						"TEXCOORD_0":2
					},
					"indices":3,
					"material":0
				}
			]
		},
		{
			"name":"Cube.029",
			"primitives":[
				{
					"attributes":{
						"POSITION":4,
						"NORMAL":5,
						"TEXCOORD_0":6,
						"TANGENT":7
					},
					"indices":8,
					"material":1
				},
				{
					"attributes":{
						"POSITION":9,
						"NORMAL":10,
						"TEXCOORD_0":11,
						"TANGENT":12
					},
					"indices":13,
					"material":2
				}
			]
		},
		{
			"name":"Cube.036",
			"primitives":[
				{
					"attributes":{
						"POSITION":14,
						"NORMAL":15,
						"TEXCOORD_0":16,
						"TANGENT":17
					},
					"indices":18,
					"material":1
				},
				{
					"attributes":{
						"POSITION":19,
						"NORMAL":20,
						"TEXCOORD_0":21,
						"TANGENT":22
					},
					"indices":23,
					"material":2
				}
			]
		},
		{
			"name":"Cube.055",
			"primitives":[
				{
					"attributes":{
						"POSITION":24,
						"NORMAL":25,
						"TEXCOORD_0":26,
						"TANGENT":27
					},
					"indices":28,
					"material":1
				},
				{
					"attributes":{
						"POSITION":29,
						"NORMAL":30,
						"TEXCOORD_0":31,
						"TANGENT":32
					},
					"indices":33,
					"material":2
				}
			]
		},
		{
			"name":"Cube.066",
			"primitives":[
				{
					"attributes":{
						"POSITION":34,
						"NORMAL":35,
						"TEXCOORD_0":36,
						"TANGENT":37
					},
					"indices":28,
					"material":1
				},
				{
					"attributes":{
						"POSITION":38,
						"NORMAL":39,
						"TEXCOORD_0":40,
						"TANGENT":41
					},
					"indices":33,
					"material":2
				}
			]
		},
		{
			"name":"Cube.062",
			"primitives":[
				{
					"attributes":{
						"POSITION":42,
						"NORMAL":43,
						"TEXCOORD_0":44,
						"TANGENT":45
					},
					"indices":46,
					"material":1
				}
			]
		}
	],
	"accessors":[
		{
			"bufferView":0,
			"componentType":5126,
			"count":60,
			"max":[
				0.612952709197998,
				0.012693047523498535,
				0.011885643005371094
			],
			"min":[
				-0.6129536628723145,
				-0.010268449783325195,
				-0.011885643005371094
			],
			"type":"VEC3"
		},
		{
			"bufferView":1,
			"componentType":5126,
			"count":60,
			"type":"VEC3"
		},
		{
			"bufferView":2,
			"componentType":5126,
			"count":60,
			"type":"VEC2"
		},
		{
			"bufferView":3,
			"componentType":5123,
			"count":138,
			"type":"SCALAR"
		},
		{
			"bufferView":4,
			"componentType":5126,
			"count":120,
			"max":[
				1.6022334098815918,
				1.8016390800476074,
				0.02293682098388672
			],
			"min":[
				-0.005176663398742676,
				-1.8366304636001587,
				-0.10450887680053711
			],
			"type":"VEC3"
		},
		{
			"bufferView":5,
			"componentType":5126,
			"count":120,
			"type":"VEC3"
		},
		{
			"bufferView":6,
			"componentType":5126,
			"count":120,
			"type":"VEC2"
		},
		{
			"bufferView":7,
			"componentType":5126,
			"count":120,
			"type":"VEC4"
		},
		{
			"bufferView":8,
			"componentType":5123,
			"count":228,
			"type":"SCALAR"
		},
		{
			"bufferView":9,
			"componentType":5126,
			"count":100,
			"max":[
				1.5491435527801514,
				0.3188042640686035,
				0.1437244415283203
			],
			"min":[
				1.4909170866012573,
				-0.2799251079559326,
				-0.01013326644897461
			],
			"type":"VEC3"
		},
		{
			"bufferView":10,
			"componentType":5126,
			"count":100,
			"type":"VEC3"
		},
		{
			"bufferView":11,
			"componentType":5126,
			"count":100,
			"type":"VEC2"
		},
		{
			"bufferView":12,
			"componentType":5126,
			"count":100,
			"type":"VEC4"
		},
		{
			"bufferView":13,
			"componentType":5123,
			"count":198,
			"type":"SCALAR"
		},
		{
			"bufferView":14,
			"componentType":5126,
			"count":120,
			"max":[
				0.42925548553466797,
				0.6751474142074585,
				0.00859600305557251
			],
			"min":[
				-0.17310619354248047,
				-0.688259482383728,
				-0.03916306048631668
			],
			"type":"VEC3"
		},
		{
			"bufferView":15,
			"componentType":5126,
			"count":120,
			"type":"VEC3"
		},
		{
			"bufferView":16,
			"componentType":5126,
			"count":120,
			"type":"VEC2"
		},
		{
			"bufferView":17,
			"componentType":5126,
			"count":120,
			"type":"VEC4"
		},
		{
			"bufferView":18,
			"componentType":5123,
			"count":228,
			"type":"SCALAR"
		},
		{
			"bufferView":19,
			"componentType":5126,
			"count":100,
			"max":[
				-0.1313915252685547,
				0.11946916580200195,
				0.05386000871658325
			],
			"min":[
				-0.15321111679077148,
				-0.10489904880523682,
				-0.003796696662902832
			],
			"type":"VEC3"
		},
		{
			"bufferView":20,
			"componentType":5126,
			"count":100,
			"type":"VEC3"
		},
		{
			"bufferView":21,
			"componentType":5126,
			"count":100,
			"type":"VEC2"
		},
		{
			"bufferView":22,
			"componentType":5126,
			"count":100,
			"type":"VEC4"
		},
		{
			"bufferView":23,
			"componentType":5123,
			"count":198,
			"type":"SCALAR"
		},
		{
			"bufferView":24,
			"componentType":5126,
			"count":120,
			"max":[
				0.6046643257141113,
				0.14442455768585205,
				0.21367911994457245
			],
			"min":[
				-0.6000590324401855,
				-0.11990711092948914,
				-0.5079386234283447
			],
			"type":"VEC3"
		},
		{
			"bufferView":25,
			"componentType":5126,
			"count":120,
			"type":"VEC3"
		},
		{
			"bufferView":26,
			"componentType":5126,
			"count":120,
			"type":"VEC2"
		},
		{
			"bufferView":27,
			"componentType":5126,
			"count":120,
			"type":"VEC4"
		},
		{
			"bufferView":28,
			"componentType":5123,
			"count":324,
			"type":"SCALAR"
		},
		{
			"bufferView":29,
			"componentType":5126,
			"count":100,
			"max":[
				0.11668205261230469,
				0.023479074239730835,
				0.26418983936309814
			],
			"min":[
				-0.10768604278564453,
				-0.011829644441604614,
				0.20896705985069275
			],
			"type":"VEC3"
		},
		{
			"bufferView":30,
			"componentType":5126,
			"count":100,
			"type":"VEC3"
		},
		{
			"bufferView":31,
			"componentType":5126,
			"count":100,
			"type":"VEC2"
		},
		{
			"bufferView":32,
			"componentType":5126,
			"count":100,
			"type":"VEC4"
		},
		{
			"bufferView":33,
			"componentType":5123,
			"count":198,
			"type":"SCALAR"
		},
		{
			"bufferView":34,
			"componentType":5126,
			"count":120,
			"max":[
				0.6046643257141113,
				0.14442449808120728,
				0.21367911994457245
			],
			"min":[
				-0.6000590324401855,
				-0.11990714073181152,
				-0.5079386234283447
			],
			"type":"VEC3"
		},
		{
			"bufferView":35,
			"componentType":5126,
			"count":120,
			"type":"VEC3"
		},
		{
			"bufferView":36,
			"componentType":5126,
			"count":120,
			"type":"VEC2"
		},
		{
			"bufferView":37,
			"componentType":5126,
			"count":120,
			"type":"VEC4"
		},
		{
			"bufferView":38,
			"componentType":5126,
			"count":100,
			"max":[
				0.11668205261230469,
				0.023479044437408447,
				0.26418983936309814
			],
			"min":[
				-0.10768604278564453,
				-0.011829674243927002,
				0.20896705985069275
			],
			"type":"VEC3"
		},
		{
			"bufferView":39,
			"componentType":5126,
			"count":100,
			"type":"VEC3"
		},
		{
			"bufferView":40,
			"componentType":5126,
			"count":100,
			"type":"VEC2"
		},
		{
			"bufferView":41,
			"componentType":5126,
			"count":100,
			"type":"VEC4"
		},
		{
			"bufferView":42,
			"componentType":5126,
			"count":1006,
			"max":[
				0.7332863807678223,
				1.086972951889038,
				0.457486093044281
			],
			"min":[
				-0.733278751373291,
				-1.2016514539718628,
				-0.38129922747612
			],
			"type":"VEC3"
		},
		{
			"bufferView":43,
			"componentType":5126,
			"count":1006,
			"type":"VEC3"
		},
		{
			"bufferView":44,
			"componentType":5126,
			"count":1006,
			"type":"VEC2"
		},
		{
			"bufferView":45,
			"componentType":5126,
			"count":1006,
			"type":"VEC4"
		},
		{
			"bufferView":46,
			"componentType":5123,
			"count":2208,
			"type":"SCALAR"
		}
	],
	"bufferViews":[
		{
			"buffer":0,
			"byteLength":720,
			"byteOffset":0,
			"target":34962
		},
		{
			"buffer":0,
			"byteLength":720,
			"byteOffset":720,
			"target":34962
		},
		{
			"buffer":0,
			"byteLength":480,
			"byteOffset":1440,
			"target":34962
		},
		{
			"buffer":0,
			"byteLength":276,
			"byteOffset":1920,
			"target":34963
		},
		{
			"buffer":0,
			"byteLength":1440,
			"byteOffset":2196,
			"target":34962
		},
		{
			"buffer":0,
			"byteLength":1440,
			"byteOffset":3636,
			"target":34962
		},
		{
			"buffer":0,
			"byteLength":960,
			"byteOffset":5076,
			"target":34962
		},
		{
			"buffer":0,
			"byteLength":1920,
			"byteOffset":6036,
			"target":34962
		},
		{
			"buffer":0,
			"byteLength":456,
			"byteOffset":7956,
			"target":34963
		},
		{
			"buffer":0,
			"byteLength":1200,
			"byteOffset":8412,
			"target":34962
		},
		{
			"buffer":0,
			"byteLength":1200,
			"byteOffset":9612,
			"target":34962
		},
		{
			"buffer":0,
			"byteLength":800,
			"byteOffset":10812,
			"target":34962
		},
		{
			"buffer":0,
			"byteLength":1600,
			"byteOffset":11612,
			"target":34962
		},
		{
			"buffer":0,
			"byteLength":396,
			"byteOffset":13212,
			"target":34963
		},
		{
			"buffer":0,
			"byteLength":1440,
			"byteOffset":13608,
			"target":34962
		},
		{
			"buffer":0,
			"byteLength":1440,
			"byteOffset":15048,
			"target":34962
		},
		{
			"buffer":0,
			"byteLength":960,
			"byteOffset":16488,
			"target":34962
		},
		{
			"buffer":0,
			"byteLength":1920,
			"byteOffset":17448,
			"target":34962
		},
		{
			"buffer":0,
			"byteLength":456,
			"byteOffset":19368,
			"target":34963
		},
		{
			"buffer":0,
			"byteLength":1200,
			"byteOffset":19824,
			"target":34962
		},
		{
			"buffer":0,
			"byteLength":1200,
			"byteOffset":21024,
			"target":34962
		},
		{
			"buffer":0,
			"byteLength":800,
			"byteOffset":22224,
			"target":34962
		},
		{
			"buffer":0,
			"byteLength":1600,
			"byteOffset":23024,
			"target":34962
		},
		{
			"buffer":0,
			"byteLength":396,
			"byteOffset":24624,
			"target":34963
		},
		{
			"buffer":0,
			"byteLength":1440,
			"byteOffset":25020,
			"target":34962
		},
		{
			"buffer":0,
			"byteLength":1440,
			"byteOffset":26460,
			"target":34962
		},
		{
			"buffer":0,
			"byteLength":960,
			"byteOffset":27900,
			"target":34962
		},
		{
			"buffer":0,
			"byteLength":1920,
			"byteOffset":28860,
			"target":34962
		},
		{
			"buffer":0,
			"byteLength":648,
			"byteOffset":30780,
			"target":34963
		},
		{
			"buffer":0,
			"byteLength":1200,
			"byteOffset":31428,
			"target":34962
		},
		{
			"buffer":0,
			"byteLength":1200,
			"byteOffset":32628,
			"target":34962
		},
		{
			"buffer":0,
			"byteLength":800,
			"byteOffset":33828,
			"target":34962
		},
		{
			"buffer":0,
			"byteLength":1600,
			"byteOffset":34628,
			"target":34962
		},
		{
			"buffer":0,
			"byteLength":396,
			"byteOffset":36228,
			"target":34963
		},
		{
			"buffer":0,
			"byteLength":1440,
			"byteOffset":36624,
			"target":34962
		},
		{
			"buffer":0,
			"byteLength":1440,
			"byteOffset":38064,
			"target":34962
		},
		{
			"buffer":0,
			"byteLength":960,
			"byteOffset":39504,
			"target":34962
		},
		{
			"buffer":0,
			"byteLength":1920,
			"byteOffset":40464,
			"target":34962
		},
		{
			"buffer":0,
			"byteLength":1200,
			"byteOffset":42384,
			"target":34962
		},
		{
			"buffer":0,
			"byteLength":1200,
			"byteOffset":43584,
			"target":34962
		},
		{
			"buffer":0,
			"byteLength":800,
			"byteOffset":44784,
			"target":34962
		},
		{
			"buffer":0,
			"byteLength":1600,
			"byteOffset":45584,
			"target":34962
		},
		{
			"buffer":0,
			"byteLength":12072,
			"byteOffset":47184,
			"target":34962
		},
		{
			"buffer":0,
			"byteLength":12072,
			"byteOffset":59256,
			"target":34962
		},
		{
			"buffer":0,
			"byteLength":8048,
			"byteOffset":71328,
			"target":34962
		},
		{
			"buffer":0,
			"byteLength":16096,
			"byteOffset":79376,
			"target":34962
		},
		{
			"buffer":0,
			"byteLength":4416,
			"byteOffset":95472,
			"target":34963
		}
	],
	"buffers":[
		{
			"byteLength":99888,
			"uri":"wardrobe%200.2-0017dee51077d215d8f8d7cb467876b3.bin"
		}
	]
}
